SplineFontDB: 3.0
FontName: S7
FullName: S7
FamilyName: S7
Weight: Medium
Copyright: Created with FontForge 2.0 (http://fontforge.sf.net)
Version: 001.000
ItalicAngle: 0
UnderlinePosition: -103
UnderlineWidth: 51
Ascent: 819
Descent: 205
sfntRevision: 0x00010000
LayerCount: 2
Layer: 0 1 "Back"  1
Layer: 1 1 "Fore"  0
XUID: [1021 919 20378 22825]
FSType: 8
OS2Version: 4
OS2_WeightWidthSlopeOnly: 0
OS2_UseTypoMetrics: 1
CreationTime: 1360255587
ModificationTime: 1390410087
PfmFamily: 17
TTFWeight: 500
TTFWidth: 5
LineGap: 92
VLineGap: 0
Panose: 2 0 6 3 0 0 0 0 0 0
OS2TypoAscent: 819
OS2TypoAOffset: 0
OS2TypoDescent: -205
OS2TypoDOffset: 0
OS2TypoLinegap: 92
OS2WinAscent: 778
OS2WinAOffset: 0
OS2WinDescent: 0
OS2WinDOffset: 0
HheadAscent: 778
HheadAOffset: 0
HheadDescent: 0
HheadDOffset: 0
OS2SubXSize: 665
OS2SubYSize: 716
OS2SubXOff: 0
OS2SubYOff: 143
OS2SupXSize: 665
OS2SupYSize: 716
OS2SupXOff: 0
OS2SupYOff: 491
OS2StrikeYSize: 51
OS2StrikeYPos: 265
OS2Vendor: 'PfEd'
OS2CodePages: 00000001.00000000
OS2UnicodeRanges: 00000001.00000000.00000000.00000000
DEI: 91125
ShortTable: cvt  5
  34
  648
  0
  16
  778
EndShort
ShortTable: maxp 16
  1
  0
  166
  325
  19
  0
  0
  2
  1
  2
  22
  0
  256
  0
  0
  0
EndShort
LangName: 1033 "" "" "" "FontForge 2.0 : S7 : 7-2-2013" 
GaspTable: 1 65535 2 0
Encoding: UnicodeBmp
UnicodeInterp: none
NameList: Adobe Glyph List
DisplaySize: -24
AntiAlias: 1
FitToEm: 1
WinInfo: 0 76 22
BeginChars: 65540 166

StartChar: .notdef
Encoding: 65536 -1 0
Width: 374
Flags: W
LayerCount: 2
Fore
SplineSet
34 0 m 1,0,-1
 34 682 l 1,1,-1
 306 682 l 1,2,-1
 306 0 l 1,3,-1
 34 0 l 1,0,-1
68 34 m 1,4,-1
 272 34 l 1,5,-1
 272 648 l 1,6,-1
 68 648 l 1,7,-1
 68 34 l 1,4,-1
EndSplineSet
Validated: 1
EndChar

StartChar: exclam
Encoding: 33 33 4
Width: 251
Flags: W
LayerCount: 2
Fore
SplineSet
110 739 m 1,0,1
 115 743 115 743 126 743 c 0,2,3
 141 742 141 742 161 738 c 0,4,5
 184 733 184 733 184 733 c 1,6,-1
 188 729 l 2,7,8
 189 728 189 728 190 726 c 128,-1,9
 191 724 191 724 192 723 c 0,10,11
 193 721 193 721 196 716 c 128,-1,12
 199 711 199 711 200 710 c 2,13,-1
 203 703 l 1,14,-1
 153 192 l 1,15,-1
 147 187 l 2,16,17
 141 182 141 182 135 176 c 0,18,19
 134 175 134 175 133 175 c 2,20,-1
 131 173 l 2,21,22
 130 172 130 172 127 170 c 2,23,-1
 123 166 l 1,24,-1
 119 164 l 2,25,26
 114 161 114 161 111 161 c 128,-1,27
 108 161 108 161 100 168 c 0,28,29
 87 179 87 179 84 182 c 2,30,-1
 83 183 l 2,31,32
 83 184 83 184 82 185 c 128,-1,33
 81 186 81 186 80 186 c 2,34,-1
 79 187 l 1,35,36
 67 201 67 201 62 206 c 2,37,-1
 55 214 l 1,38,-1
 110 739 l 1,0,1
35 50 m 1,39,-1
 43 117 l 1,40,-1
 149 117 l 1,41,-1
 137 15 l 1,42,-1
 30 15 l 1,43,-1
 35 50 l 1,39,-1
EndSplineSet
Validated: 1
EndChar

StartChar: quotedbl
Encoding: 34 34 5
Width: 251
Flags: W
LayerCount: 2
Fore
SplineSet
142 646 m 1,0,-1
 152 786 l 1,1,-1
 239 786 l 1,2,-1
 227 616 l 1,3,-1
 139 616 l 1,4,-1
 142 646 l 1,0,-1
18 653 m 1,5,-1
 28 786 l 1,6,-1
 125 786 l 1,7,-1
 113 616 l 1,8,-1
 15 616 l 1,9,-1
 18 653 l 1,5,-1
EndSplineSet
Validated: 1
EndChar

StartChar: percent
Encoding: 37 37 6
Width: 563
Flags: W
LayerCount: 2
Fore
SplineSet
356 219 m 1,0,-1
 368 228 l 2,1,2
 370 229 370 229 372 231 c 0,3,4
 378 236 378 236 380 238 c 1,5,-1
 380 239 l 1,6,-1
 381 239 l 1,7,8
 386 242 386 242 390 246 c 2,9,-1
 394 249 l 1,10,-1
 492 249 l 1,11,-1
 495 246 l 2,12,13
 499 243 499 243 502 239 c 2,14,-1
 503 238 l 1,15,-1
 504 237 l 2,16,17
 505 236 505 236 509 231 c 0,18,19
 511 229 511 229 512 228 c 0,20,21
 517 223 517 223 519 222 c 2,22,-1
 523 220 l 2,23,24
 525 219 525 219 528 217 c 1,25,-1
 528 216 l 1,26,-1
 529 216 l 1,27,-1
 530 216 l 1,28,29
 530 215 530 215 536 211 c 2,30,-1
 539 209 l 1,31,-1
 526 89 l 2,32,33
 526 85 526 85 525 84 c 0,34,35
 523 79 523 79 515 73 c 1,36,-1
 509 65 l 2,37,38
 507 63 507 63 506 62 c 2,39,-1
 504 61 l 1,40,-1
 503 59 l 1,41,-1
 502 59 l 1,42,43
 501 58 501 58 500 58 c 2,44,-1
 499 58 l 1,45,-1
 368 58 l 2,46,47
 364 58 364 58 362 59 c 2,48,-1
 357 62 l 2,49,50
 356 62 356 62 355 63 c 0,51,52
 354 63 354 63 353 64 c 2,53,-1
 352 65 l 2,54,55
 352 66 352 66 349 68.5 c 128,-1,56
 346 71 346 71 345 72 c 0,57,58
 343 75 343 75 342 75 c 1,59,60
 342 76 342 76 339 82 c 0,61,62
 338 84 338 84 336 90 c 0,63,64
 335 90 335 90 335 92 c 2,65,-1
 335 93 l 1,66,-1
 348 212 l 2,67,68
 349 212 349 212 350 213 c 2,69,-1
 354 217 l 1,70,-1
 356 219 l 1,0,-1
54 733 m 1,71,-1
 66 742 l 2,72,73
 68 743 68 743 70 745 c 0,74,75
 76 750 76 750 78 752 c 1,76,-1
 78 753 l 1,77,-1
 79 753 l 1,78,79
 84 756 84 756 88 760 c 2,80,-1
 92 763 l 1,81,-1
 190 763 l 1,82,-1
 193 760 l 2,83,84
 197 757 197 757 200 753 c 2,85,-1
 201 752 l 1,86,-1
 202 751 l 2,87,88
 203 750 203 750 207 745 c 0,89,90
 209 743 209 743 210 742 c 0,91,92
 215 737 215 737 217 736 c 2,93,-1
 221 734 l 2,94,95
 223 733 223 733 226 731 c 1,96,-1
 226 730 l 1,97,-1
 227 730 l 1,98,-1
 228 730 l 1,99,100
 228 729 228 729 234 725 c 2,101,-1
 237 723 l 1,102,-1
 224 603 l 2,103,104
 224 599 224 599 223 598 c 0,105,106
 221 593 221 593 213 587 c 1,107,-1
 207 579 l 2,108,109
 205 577 205 577 204 576 c 2,110,-1
 202 575 l 1,111,-1
 201 573 l 1,112,-1
 200 573 l 1,113,114
 199 572 199 572 198 572 c 2,115,-1
 197 572 l 1,116,-1
 66 572 l 2,117,118
 62 572 62 572 60 573 c 2,119,-1
 55 576 l 2,120,121
 54 576 54 576 53 577 c 0,122,123
 52 577 52 577 51 578 c 2,124,-1
 50 579 l 2,125,126
 50 580 50 580 47 582.5 c 128,-1,127
 44 585 44 585 43 586 c 0,128,129
 41 589 41 589 40 589 c 1,130,131
 40 590 40 590 37 596 c 0,132,133
 36 598 36 598 34 604 c 0,134,135
 33 604 33 604 33 606 c 2,136,-1
 33 607 l 1,137,-1
 46 726 l 2,138,139
 47 726 47 726 48 727 c 2,140,-1
 52 731 l 1,141,-1
 54 733 l 1,71,-1
36 60 m 1,142,-1
 189 375 l 2,143,144
 189 376 189 376 199 381 c 0,145,146
 205 384 205 384 223 384 c 0,147,148
 226 384 226 384 232 384 c 1,149,150
 235 373 235 373 234 366 c 0,151,152
 231 347 231 347 231 339 c 1,153,154
 232 335 232 335 232 334 c 0,155,156
 233 332 233 332 233 332 c 1,157,-1
 233 330 l 2,158,159
 233 324 233 324 232 312 c 1,160,161
 232 312 232 312 232 295 c 1,162,-1
 231 279 l 1,163,-1
 118 32 l 1,164,-1
 107 32 l 1,165,-1
 81 32 l 1,166,-1
 79 32 l 1,167,-1
 76 32 l 1,168,-1
 52 35 l 1,169,170
 42 35 42 35 41 39 c 2,171,-1
 38 47 l 2,172,173
 38 48 38 48 36 60 c 1,142,-1
324 434 m 1,174,175
 320 430 320 430 314 428 c 0,176,177
 306 425 306 425 289 425 c 0,178,179
 286 425 286 425 280 425 c 1,180,181
 277 434 277 434 278 443 c 0,182,183
 280 466 280 466 280 473 c 0,184,185
 280 475 280 475 280 475 c 1,186,187
 279 476 279 476 279 477 c 2,188,-1
 279 479 l 1,189,190
 280 485 280 485 280 497 c 0,191,192
 280 508 280 508 280 514 c 2,193,-1
 281 530 l 1,194,-1
 394 767 l 1,195,-1
 406 767 l 1,196,-1
 431 767 l 1,197,-1
 434 767 l 1,198,-1
 437 767 l 1,199,-1
 460 764 l 2,200,201
 470 763 470 763 471 760 c 2,202,-1
 474 752 l 2,203,204
 476 747 476 747 477 738 c 1,205,-1
 477 736 l 2,206,207
 477 735 477 735 478 734 c 1,208,209
 478 732 478 732 478 732 c 1,210,211
 480 719 480 719 480 714 c 2,212,-1
 481 706 l 1,213,-1
 324 434 l 1,174,175
EndSplineSet
Validated: 1
EndChar

StartChar: quotesingle
Encoding: 39 39 7
Width: 251
Flags: W
LayerCount: 2
Fore
SplineSet
33 651 m 1,0,-1
 43 786 l 1,1,-1
 149 786 l 1,2,-1
 137 616 l 1,3,-1
 30 616 l 1,4,-1
 33 651 l 1,0,-1
EndSplineSet
Validated: 1
EndChar

StartChar: parenleft
Encoding: 40 40 8
Width: 251
Flags: W
LayerCount: 2
Fore
SplineSet
237 676 m 1,0,-1
 211 676 l 1,1,-1
 156 745 l 1,2,-1
 180 765 l 1,3,-1
 186 771 l 1,4,-1
 196 776 l 2,5,6
 200 778 200 778 208 778 c 2,7,-1
 216 778 l 1,8,-1
 221 777 l 2,9,10
 230 775 230 775 233 772 c 0,11,12
 235 770 235 770 239 768 c 1,13,-1
 237 676 l 1,0,-1
103 66 m 1,14,-1
 145 112 l 1,15,-1
 208 112 l 1,16,-1
 247 68 l 1,17,-1
 213 33 l 2,18,19
 209 29 209 29 206 27 c 2,20,-1
 202 23 l 1,21,-1
 198 19 l 1,22,-1
 196 18 l 2,23,24
 194 17 194 17 193 17 c 0,25,26
 191 16 191 16 189 16 c 2,27,-1
 182 16 l 2,28,29
 172 16 172 16 168 19 c 2,30,-1
 103 66 l 1,14,-1
62 375 m 1,31,32
 63 374 63 374 67 378 c 2,33,-1
 76 387 l 1,34,-1
 78 389 l 1,35,-1
 79 390 l 2,36,37
 80 390 80 390 81 391 c 2,38,-1
 90 397 l 2,39,40
 93 399 93 399 96 398 c 2,41,-1
 98 397 l 2,42,43
 99 396 99 396 101.5 394 c 128,-1,44
 104 392 104 392 107 390 c 0,45,46
 113 385 113 385 126 372 c 2,47,-1
 127 371 l 2,48,49
 128 370 128 370 128 370 c 1,50,-1
 148 350 l 1,51,-1
 157 341 l 1,52,-1
 135 125 l 1,53,-1
 91 78 l 1,54,55
 90 79 90 79 73 98 c 128,-1,56
 56 117 56 117 54 119 c 0,57,58
 49 124 49 124 48 126 c 0,59,60
 41 139 41 139 40 141 c 0,61,62
 37 149 37 149 33 159 c 1,63,64
 31 161 31 161 31 164 c 2,65,-1
 31 168 l 1,66,-1
 62 375 l 1,31,32
95 664 m 1,67,68
 97 666 97 666 97 667 c 128,-1,69
 97 668 97 668 98 671 c 0,70,71
 102 683 102 683 111 694 c 2,72,-1
 140 731 l 1,73,-1
 190 670 l 1,74,-1
 169 478 l 1,75,-1
 159 470 l 2,76,77
 148 462 148 462 135 452 c 1,78,79
 136 452 136 452 135 451 c 1,80,-1
 133 451 l 1,81,82
 123 442 123 442 110 433 c 0,83,84
 98 425 98 425 98 425 c 1,85,-1
 93 430 l 2,86,87
 87 436 87 436 86 438 c 2,88,-1
 85 440 l 1,89,-1
 84 442 l 1,90,-1
 82 444 l 1,91,-1
 73 459 l 1,92,-1
 70 465 l 1,93,-1
 95 664 l 1,67,68
EndSplineSet
Validated: 1
EndChar

StartChar: parenright
Encoding: 41 41 9
Width: 251
Flags: W
LayerCount: 2
Fore
SplineSet
172 149 m 2,0,1
 171 142 171 142 169 138 c 0,2,3
 165 130 165 130 151 112 c 1,4,5
 151 112 151 112 137 98 c 1,6,7
 118 86 118 86 112 86 c 0,8,9
 111 86 111 86 110 87 c 2,10,-1
 109 88 l 2,11,12
 105 93 105 93 97 101.5 c 128,-1,13
 89 110 89 110 85 114 c 2,14,-1
 74 126 l 1,15,-1
 98 348 l 1,16,-1
 106 356 l 1,17,-1
 124 374 l 1,18,-1
 126 376 l 1,19,-1
 128 378 l 1,20,-1
 146 393 l 2,21,22
 154 400 154 400 157 398 c 2,23,-1
 165 394 l 2,24,25
 169 392 169 392 177 386 c 1,26,-1
 178 385 l 2,27,28
 179 384 179 384 180 384 c 0,29,30
 181 383 181 383 182 383 c 0,31,32
 192 375 192 375 196 372 c 2,33,-1
 202 367 l 1,34,-1
 172 149 l 2,0,1
201 450 m 1,35,-1
 195 445 l 2,36,37
 189 440 189 440 183 434 c 0,38,39
 182 433 182 433 181 433 c 2,40,-1
 179 431 l 2,41,42
 178 430 178 430 175.5 428 c 128,-1,43
 173 426 173 426 171 424.5 c 128,-1,44
 169 423 169 423 167 422 c 0,45,46
 161 419 161 419 159 419 c 0,47,48
 155 420 155 420 148 426 c 0,49,50
 138 434 138 434 132 440 c 2,51,-1
 131 441 l 2,52,53
 131 442 131 442 130 443 c 128,-1,54
 129 444 129 444 128 444 c 2,55,-1
 127 445 l 1,56,57
 115 459 115 459 110 464 c 2,58,-1
 103 472 l 1,59,-1
 128 668 l 1,60,-1
 138 679 l 1,61,62
 141 684 141 684 149 693 c 128,-1,63
 157 702 157 702 160 706 c 2,64,-1
 162 708 l 1,65,-1
 164 710 l 2,66,67
 170 716 170 716 181 703 c 0,68,69
 191 692 191 692 192 690 c 0,70,71
 197 685 197 685 201 678 c 0,72,73
 202 675 202 675 204 673 c 0,74,75
 208 669 208 669 210 666 c 2,76,-1
 214 662 l 2,77,78
 215 661 215 661 216 659 c 128,-1,79
 217 657 217 657 218 656 c 0,80,81
 219 654 219 654 222 650 c 0,82,83
 225 644 225 644 226 643 c 2,84,-1
 229 636 l 1,85,-1
 201 450 l 1,35,-1
9 745 m 1,86,87
 9 745 9 745 33 765 c 1,88,-1
 39 771 l 1,89,-1
 49 776 l 2,90,91
 53 778 53 778 61 778 c 2,92,-1
 90 778 l 1,93,-1
 95 777 l 2,94,95
 104 775 104 775 107 772 c 0,96,97
 109 770 109 770 113 768 c 2,98,-1
 119 765 l 2,99,100
 124 763 124 763 126 759 c 128,-1,101
 128 755 128 755 136 746 c 128,-1,102
 144 737 144 737 146 735 c 0,103,104
 154 723 154 723 149 717 c 1,105,106
 149 715 149 715 148 715 c 128,-1,107
 147 715 147 715 146 714 c 0,108,109
 142 709 142 709 133.5 700 c 128,-1,110
 125 691 125 691 121 687 c 2,111,-1
 111 676 l 1,112,-1
 20 676 l 1,113,-1
 9 745 l 1,86,87
6 110 m 1,114,-1
 64 112 l 1,115,-1
 103 68 l 1,116,-1
 69 33 l 2,117,118
 65 29 65 29 62 27 c 2,119,-1
 58 23 l 1,120,-1
 54 19 l 1,121,-1
 8 20 l 1,122,123
 7 65 7 65 6 110 c 1,114,-1
EndSplineSet
Validated: 1
EndChar

StartChar: asterisk
Encoding: 42 42 10
Width: 251
Flags: W
LayerCount: 2
Fore
SplineSet
97 525 m 1,0,-1
 125 530 l 1,1,-1
 156 525 l 1,2,-1
 156 483 l 1,3,-1
 197 520 l 1,4,-1
 220 504 l 1,5,-1
 233 481 l 1,6,-1
 197 446 l 1,7,-1
 236 445 l 1,8,-1
 241 414 l 1,9,-1
 236 381 l 1,10,-1
 193 383 l 1,11,-1
 232 345 l 1,12,-1
 219 322 l 1,13,-1
 194 312 l 1,14,-1
 154 348 l 1,15,-1
 154 304 l 1,16,-1
 125 299 l 1,17,-1
 95 304 l 1,18,-1
 95 347 l 1,19,-1
 58 309 l 1,20,-1
 33 321 l 1,21,-1
 18 343 l 1,22,-1
 46 380 l 1,23,-1
 15 380 l 1,24,-1
 10 414 l 1,25,-1
 15 448 l 1,26,-1
 55 448 l 1,27,-1
 19 483 l 1,28,-1
 29 506 l 1,29,-1
 48 522 l 1,30,-1
 96 480 l 1,31,-1
 97 525 l 1,0,-1
EndSplineSet
Validated: 1
EndChar

StartChar: plus
Encoding: 43 43 11
Width: 563
Flags: W
LayerCount: 2
Fore
SplineSet
284 626 m 0,0,1
 330 626 330 626 330 605 c 0,2,-1
 330 461 l 0,3,-1
 486 461 l 0,4,5
 497 461 497 461 497 423 c 0,6,7
 497 419 497 419 497 411 c 1,8,9
 497 359 497 359 489 359 c 0,10,-1
 331 359 l 0,11,-1
 330 209 l 0,12,13
 329 195 329 195 289 195 c 16,14,15
 229 195 229 195 228 210 c 0,16,-1
 228 359 l 0,17,-1
 72 359 l 0,18,19
 60 359 60 359 60 406 c 0,20,21
 60 409 60 409 60 411 c 0,22,23
 60 461 60 461 70 461 c 0,24,-1
 228 461 l 0,25,-1
 228 613 l 8,26,27
 228 626 228 626 284 626 c 0,0,1
EndSplineSet
EndChar

StartChar: comma
Encoding: 44 44 12
Width: 251
Flags: W
LayerCount: 2
Fore
SplineSet
34 76 m 1,0,-1
 43 185 l 1,1,-1
 149 185 l 1,2,-1
 137 15 l 1,3,-1
 30 15 l 1,4,-1
 34 76 l 1,0,-1
EndSplineSet
Validated: 1
EndChar

StartChar: hyphen
Encoding: 45 45 13
Width: 563
Flags: W
LayerCount: 2
Fore
SplineSet
332 359 m 0,0,-1
 72 359 l 0,1,2
 63 359 63 359 60 406 c 0,3,4
 60 408 60 408 60 411 c 0,5,6
 60 461 60 461 80 461 c 0,7,8
 330 461 l 0,9,-1
 486 461 l 0,10,11
 497 461 497 461 497 423 c 0,12,13
 497 419 497 419 497 411 c 1,14,15
 497 359 497 359 489 359 c 0,16,-1
 332 359 l 0,0,-1
EndSplineSet
Validated: 1
EndChar

StartChar: period
Encoding: 46 46 14
Width: 251
Flags: W
LayerCount: 2
Fore
SplineSet
39 78 m 1,0,-1
 43 117 l 1,1,-1
 149 117 l 1,2,-1
 137 15 l 1,3,-1
 30 15 l 1,4,-1
 39 78 l 1,0,-1
EndSplineSet
Validated: 1
EndChar

StartChar: slash
Encoding: 47 47 15
Width: 563
Flags: W
LayerCount: 2
Fore
SplineSet
50 60 m 1,0,-1
 203 375 l 2,1,2
 203 376 203 376 213 381 c 0,3,4
 219 384 219 384 237 384 c 0,5,6
 240 384 240 384 246 384 c 1,7,8
 249 373 249 373 248 366 c 0,9,10
 245 347 245 347 245 339 c 1,11,12
 246 335 246 335 246 334 c 0,13,14
 247 332 247 332 247 332 c 1,15,-1
 247 330 l 2,16,17
 247 324 247 324 246 312 c 1,18,19
 246 312 246 312 246 295 c 1,20,-1
 245 279 l 1,21,-1
 132 32 l 1,22,-1
 121 32 l 1,23,-1
 95 32 l 1,24,-1
 93 32 l 1,25,-1
 90 32 l 1,26,-1
 66 35 l 1,27,28
 56 35 56 35 55 39 c 2,29,-1
 52 47 l 2,30,31
 52 48 52 48 50 60 c 1,0,-1
338 434 m 1,32,33
 334 430 334 430 328 428 c 0,34,35
 320 425 320 425 303 425 c 0,36,37
 300 425 300 425 294 425 c 1,38,39
 291 434 291 434 292 443 c 0,40,41
 294 466 294 466 294 473 c 0,42,43
 294 475 294 475 294 475 c 1,44,45
 293 476 293 476 293 477 c 2,46,-1
 293 479 l 1,47,48
 294 485 294 485 294 497 c 0,49,50
 294 508 294 508 294 514 c 2,51,-1
 295 530 l 1,52,-1
 408 767 l 1,53,-1
 420 767 l 1,54,-1
 445 767 l 1,55,-1
 448 767 l 1,56,-1
 451 767 l 1,57,-1
 474 764 l 2,58,59
 484 763 484 763 485 760 c 2,60,-1
 488 752 l 2,61,62
 490 747 490 747 491 738 c 1,63,-1
 491 736 l 2,64,65
 491 735 491 735 492 734 c 1,66,67
 492 732 492 732 492 732 c 1,68,69
 494 719 494 719 494 714 c 2,70,-1
 495 706 l 1,71,-1
 338 434 l 1,32,33
EndSplineSet
Validated: 1
EndChar

StartChar: zero
Encoding: 48 48 16
Width: 563
Flags: W
LayerCount: 2
Fore
SplineSet
475 88 m 2,0,1
 475 86 475 86 472 77 c 0,2,3
 469 67 469 67 451 51 c 1,4,5
 445 54 445 54 437 62 c 0,6,7
 431 68 431 68 415 86 c 0,8,9
 414 86 414 86 413 87 c 2,10,-1
 412 88 l 2,11,12
 408 93 408 93 400 101.5 c 128,-1,13
 392 110 392 110 388 114 c 2,14,-1
 377 126 l 1,15,-1
 401 348 l 1,16,-1
 409 356 l 1,17,-1
 427 374 l 1,18,-1
 429 376 l 1,19,-1
 431 378 l 1,20,-1
 449 393 l 2,21,22
 457 399 457 399 460 398 c 2,23,-1
 468 394 l 2,24,25
 472 392 472 392 480 386 c 1,26,-1
 481 385 l 2,27,28
 482 384 482 384 483 384 c 0,29,30
 484 383 484 383 485 383 c 0,31,32
 495 375 495 375 499 372 c 2,33,-1
 505 367 l 1,34,-1
 475 88 l 2,0,1
504 450 m 1,35,-1
 498 445 l 2,36,37
 494 442 494 442 486 434 c 0,38,39
 485 433 485 433 484 433 c 2,40,-1
 482 431 l 2,41,42
 481 430 481 430 478.5 428 c 128,-1,43
 476 426 476 426 474 424.5 c 128,-1,44
 472 423 472 423 470 422 c 0,45,46
 464 419 464 419 462 419 c 0,47,48
 458 420 458 420 451 426 c 0,49,50
 441 434 441 434 435 440 c 2,51,-1
 434 441 l 2,52,53
 434 442 434 442 433 443 c 128,-1,54
 432 444 432 444 431 444 c 2,55,-1
 430 445 l 1,56,57
 418 459 418 459 413 464 c 2,58,-1
 406 472 l 1,59,-1
 431 668 l 1,60,-1
 441 679 l 1,61,62
 444 684 444 684 452 693 c 128,-1,63
 460 702 460 702 463 706 c 2,64,-1
 465 708 l 1,65,-1
 467 710 l 2,66,67
 471 714 471 714 478 721.5 c 128,-1,68
 485 729 485 729 488 732 c 0,69,70
 498 742 498 742 502 742 c 0,71,72
 505 742 505 742 507 740 c 0,73,74
 511 736 511 736 513 733 c 2,75,-1
 517 729 l 2,76,77
 518 728 518 728 519 726 c 128,-1,78
 520 724 520 724 521 723 c 0,79,80
 522 721 522 721 525 716.5 c 128,-1,81
 528 712 528 712 529 710 c 2,82,-1
 532 703 l 1,83,-1
 504 450 l 1,35,-1
131 763 m 1,84,85
 131 763 131 763 134 765 c 2,86,-1
 140 771 l 1,87,-1
 150 776 l 2,88,89
 154 778 154 778 162 778 c 2,90,-1
 449 778 l 1,91,-1
 454 777 l 2,92,93
 458 776 458 776 466 772 c 0,94,95
 468 771 468 771 472 768.5 c 128,-1,96
 476 766 476 766 478 765 c 0,97,98
 483 762 483 762 483 758 c 0,99,100
 483 755 483 755 474 743 c 0,101,102
 471 739 471 739 463.5 730.5 c 128,-1,103
 456 722 456 722 452 717 c 1,104,105
 452 715 452 715 451 715 c 128,-1,106
 450 715 450 715 449 714 c 0,107,108
 445 709 445 709 436.5 700 c 128,-1,109
 428 691 428 691 424 687 c 2,110,-1
 414 676 l 1,111,-1
 211 676 l 1,112,-1
 131 763 l 1,84,85
438 36 m 1,113,114
 438 36 438 36 436 33 c 0,115,116
 432 29 432 29 429 27 c 2,117,-1
 425 23 l 1,118,-1
 421 19 l 2,119,120
 420 18 420 18 419 18 c 0,121,122
 417 17 417 17 416 17 c 0,123,124
 414 16 414 16 412 16 c 2,125,-1
 109 16 l 2,126,127
 101 16 101 16 95 19 c 2,128,-1
 83 25 l 2,129,130
 81 26 81 26 78 28 c 128,-1,131
 75 30 75 30 74 31 c 2,132,-1
 71 34 l 1,133,-1
 145 112 l 1,134,-1
 367 112 l 5,135,-1
 438 36 l 1,113,114
62 375 m 1,136,137
 63 374 63 374 67 378 c 2,138,-1
 76 387 l 1,139,-1
 78 389 l 2,140,141
 78 390 78 390 79 390 c 128,-1,142
 80 390 80 390 81 391 c 2,143,-1
 90 397 l 2,144,145
 94 400 94 400 96 398 c 2,146,-1
 98 397 l 2,147,148
 99 396 99 396 101.5 394 c 128,-1,149
 104 392 104 392 107 390 c 0,150,151
 113 385 113 385 126 372 c 2,152,-1
 127 371 l 2,153,154
 128 371 128 371 128 370 c 2,155,-1
 148 350 l 1,156,-1
 157 341 l 1,157,-1
 135 125 l 1,158,-1
 58 45 l 1,159,160
 57 46 57 46 56.5 47 c 128,-1,161
 56 48 56 48 54 50 c 0,162,163
 50 54 50 54 48 57 c 0,164,165
 46 59 46 59 40 72 c 0,166,167
 37 78 37 78 33 90 c 1,168,169
 31 92 31 92 31 95 c 2,170,-1
 31 99 l 1,171,-1
 62 375 l 1,136,137
95 714 m 1,172,173
 97 716 97 716 97 717 c 0,174,175
 97 720 97 720 98 721 c 0,176,177
 103 736 103 736 111 744 c 2,178,-1
 117 750 l 1,179,-1
 190 670 l 1,180,-1
 169 478 l 1,181,-1
 159 470 l 2,182,183
 148 462 148 462 135 452 c 1,184,185
 136 452 136 452 135 451 c 1,186,-1
 133 451 l 1,187,188
 123 442 123 442 110 433 c 0,189,190
 99 425 99 425 98 425 c 2,191,-1
 93 430 l 2,192,193
 88 435 88 435 86 438 c 2,194,-1
 85 440 l 1,195,-1
 84 442 l 1,196,-1
 82 444 l 1,197,-1
 73 459 l 1,198,-1
 70 465 l 1,199,-1
 95 714 l 1,172,173
EndSplineSet
Validated: 1
EndChar

StartChar: one
Encoding: 49 49 17
Width: 563
Flags: W
LayerCount: 2
Fore
SplineSet
475 88 m 2,0,1
 475 86 475 86 472 77 c 0,2,3
 469 67 469 67 451 51 c 1,4,5
 445 54 445 54 437 62 c 0,6,7
 431 68 431 68 415 86 c 0,8,9
 414 86 414 86 413 87 c 2,10,-1
 412 88 l 2,11,12
 408 93 408 93 400 101.5 c 128,-1,13
 392 110 392 110 388 114 c 2,14,-1
 377 126 l 1,15,-1
 401 348 l 1,16,-1
 409 356 l 1,17,-1
 427 374 l 1,18,-1
 429 376 l 1,19,-1
 431 378 l 1,20,-1
 449 393 l 2,21,22
 457 399 457 399 460 398 c 2,23,-1
 468 394 l 2,24,25
 472 392 472 392 480 386 c 1,26,-1
 481 385 l 2,27,28
 482 384 482 384 483 384 c 0,29,30
 484 383 484 383 485 383 c 0,31,32
 495 375 495 375 499 372 c 2,33,-1
 505 367 l 1,34,-1
 475 88 l 2,0,1
504 450 m 1,35,-1
 498 445 l 2,36,37
 494 442 494 442 486 434 c 0,38,39
 485 433 485 433 484 433 c 2,40,-1
 482 431 l 2,41,42
 481 430 481 430 478.5 428 c 128,-1,43
 476 426 476 426 474 424.5 c 128,-1,44
 472 423 472 423 470 422 c 0,45,46
 464 419 464 419 462 419 c 0,47,48
 458 420 458 420 451 426 c 0,49,50
 441 434 441 434 435 440 c 2,51,-1
 434 441 l 2,52,53
 434 442 434 442 433 443 c 128,-1,54
 432 444 432 444 431 444 c 2,55,-1
 430 445 l 1,56,57
 418 459 418 459 413 464 c 2,58,-1
 406 472 l 1,59,-1
 431 668 l 1,60,-1
 441 679 l 1,61,62
 444 684 444 684 452 693 c 128,-1,63
 460 702 460 702 463 706 c 2,64,-1
 465 708 l 1,65,-1
 467 710 l 2,66,67
 471 714 471 714 478 721.5 c 128,-1,68
 485 729 485 729 488 732 c 0,69,70
 498 742 498 742 502 742 c 0,71,72
 505 742 505 742 507 740 c 0,73,74
 511 736 511 736 513 733 c 2,75,-1
 517 729 l 2,76,77
 518 728 518 728 519 726 c 128,-1,78
 520 724 520 724 521 723 c 0,79,80
 522 721 522 721 525 716.5 c 128,-1,81
 528 712 528 712 529 710 c 2,82,-1
 532 703 l 1,83,-1
 504 450 l 1,35,-1
EndSplineSet
Validated: 1
EndChar

StartChar: two
Encoding: 50 50 18
Width: 563
Flags: W
LayerCount: 2
Fore
SplineSet
504 450 m 1,0,-1
 498 445 l 2,1,2
 494 442 494 442 486 434 c 0,3,4
 485 433 485 433 484 433 c 2,5,-1
 482 431 l 2,6,7
 481 430 481 430 478.5 428 c 128,-1,8
 476 426 476 426 474 424.5 c 128,-1,9
 472 423 472 423 470 422 c 0,10,11
 464 419 464 419 462 419 c 0,12,13
 458 420 458 420 451 426 c 0,14,15
 441 434 441 434 435 440 c 2,16,-1
 434 441 l 2,17,18
 434 442 434 442 433 443 c 128,-1,19
 432 444 432 444 431 444 c 2,20,-1
 430 445 l 1,21,22
 418 459 418 459 413 464 c 2,23,-1
 406 472 l 1,24,-1
 431 668 l 1,25,-1
 441 679 l 1,26,27
 444 684 444 684 452 693 c 128,-1,28
 460 702 460 702 463 706 c 2,29,-1
 465 708 l 1,30,-1
 467 710 l 2,31,32
 471 714 471 714 478 721.5 c 128,-1,33
 485 729 485 729 488 732 c 0,34,35
 498 742 498 742 502 742 c 0,36,37
 505 742 505 742 507 740 c 0,38,39
 511 736 511 736 513 733 c 2,40,-1
 517 729 l 2,41,42
 518 728 518 728 519 726 c 128,-1,43
 520 724 520 724 521 723 c 0,44,45
 522 721 522 721 525 716.5 c 128,-1,46
 528 712 528 712 529 710 c 2,47,-1
 532 703 l 1,48,-1
 504 450 l 1,0,-1
131 763 m 1,49,50
 131 763 131 763 134 765 c 2,51,-1
 140 771 l 1,52,-1
 150 776 l 2,53,54
 154 778 154 778 162 778 c 2,55,-1
 449 778 l 1,56,-1
 454 777 l 2,57,58
 458 776 458 776 466 772 c 0,59,60
 468 771 468 771 472 768.5 c 128,-1,61
 476 766 476 766 478 765 c 0,62,63
 483 762 483 762 483 758 c 0,64,65
 483 755 483 755 474 743 c 0,66,67
 471 739 471 739 463.5 730.5 c 128,-1,68
 456 722 456 722 452 717 c 1,69,70
 452 715 452 715 451 715 c 128,-1,71
 450 715 450 715 449 714 c 0,72,73
 445 709 445 709 436.5 700 c 128,-1,74
 428 691 428 691 424 687 c 2,75,-1
 414 676 l 1,76,-1
 211 676 l 1,77,-1
 131 763 l 1,49,50
438 36 m 1,78,79
 438 36 438 36 436 33 c 0,80,81
 432 29 432 29 429 27 c 2,82,-1
 425 23 l 1,83,-1
 421 19 l 2,84,85
 420 18 420 18 419 18 c 0,86,87
 417 17 417 17 416 17 c 0,88,89
 414 16 414 16 412 16 c 2,90,-1
 109 16 l 2,91,92
 101 16 101 16 95 19 c 2,93,-1
 83 25 l 2,94,95
 81 26 81 26 78 28 c 128,-1,96
 75 30 75 30 74 31 c 2,97,-1
 71 34 l 1,98,-1
 145 112 l 1,99,-1
 367 112 l 1,100,-1
 438 36 l 1,78,79
62 375 m 1,101,102
 63 374 63 374 67 378 c 2,103,-1
 76 387 l 1,104,-1
 78 389 l 2,105,106
 78 390 78 390 79 390 c 128,-1,107
 80 390 80 390 81 391 c 2,108,-1
 90 397 l 2,109,110
 94 400 94 400 96 398 c 2,111,-1
 98 397 l 2,112,113
 99 396 99 396 101.5 394 c 128,-1,114
 104 392 104 392 107 390 c 0,115,116
 113 385 113 385 126 372 c 2,117,-1
 127 371 l 2,118,119
 128 371 128 371 128 370 c 2,120,-1
 148 350 l 1,121,-1
 157 341 l 1,122,-1
 135 125 l 1,123,-1
 58 45 l 1,124,125
 57 46 57 46 56.5 47 c 128,-1,126
 56 48 56 48 54 50 c 0,127,128
 50 54 50 54 48 57 c 0,129,130
 46 59 46 59 40 72 c 0,131,132
 37 78 37 78 33 90 c 1,133,134
 31 92 31 92 31 95 c 2,135,-1
 31 99 l 1,136,-1
 62 375 l 1,101,102
442 411 m 1,137,138
 442 408 442 408 436 401 c 0,139,140
 430 393 430 393 420 385 c 0,141,142
 419 385 419 385 418 384 c 128,-1,143
 417 383 417 383 417 382 c 0,144,145
 403 372 403 372 398 367 c 2,146,-1
 390 359 l 1,147,-1
 161 359 l 1,148,-1
 153 366 l 2,149,150
 143 374 143 374 135 382 c 0,151,152
 134 382 134 382 134 383 c 2,153,-1
 132 384 l 1,154,-1
 130 386 l 2,155,156
 128 388 128 388 122.5 392.5 c 128,-1,157
 117 397 117 397 115 400 c 0,158,159
 109 408 109 408 109 411 c 0,160,161
 109 412 109 412 117 420 c 0,162,163
 124 428 124 428 135 435 c 1,164,-1
 137 437 l 2,165,166
 138 437 138 437 138 438 c 0,167,168
 149 445 149 445 160 454 c 2,169,-1
 169 461 l 1,170,-1
 397 461 l 1,171,-1
 404 454 l 1,172,173
 412 448 412 448 420 438 c 1,174,-1
 422 436 l 1,175,-1
 424 434 l 2,176,177
 430 428 430 428 436 420 c 0,178,179
 440 414 440 414 442 411 c 1,137,138
EndSplineSet
Validated: 1
EndChar

StartChar: three
Encoding: 51 51 19
Width: 563
Flags: W
LayerCount: 2
Fore
SplineSet
475 88 m 2,0,1
 475 86 475 86 472 77 c 0,2,3
 469 67 469 67 451 51 c 1,4,5
 445 54 445 54 437 62 c 0,6,7
 431 68 431 68 415 86 c 0,8,9
 414 86 414 86 413 87 c 2,10,-1
 412 88 l 2,11,12
 408 93 408 93 400 101.5 c 128,-1,13
 392 110 392 110 388 114 c 2,14,-1
 377 126 l 1,15,-1
 401 348 l 1,16,-1
 409 356 l 1,17,-1
 427 374 l 1,18,-1
 429 376 l 1,19,-1
 431 378 l 1,20,-1
 449 393 l 2,21,22
 457 399 457 399 460 398 c 2,23,-1
 468 394 l 2,24,25
 472 392 472 392 480 386 c 1,26,-1
 481 385 l 2,27,28
 482 384 482 384 483 384 c 0,29,30
 484 383 484 383 485 383 c 0,31,32
 495 375 495 375 499 372 c 2,33,-1
 505 367 l 1,34,-1
 475 88 l 2,0,1
504 450 m 1,35,-1
 498 445 l 2,36,37
 494 442 494 442 486 434 c 0,38,39
 485 433 485 433 484 433 c 2,40,-1
 482 431 l 2,41,42
 481 430 481 430 478.5 428 c 128,-1,43
 476 426 476 426 474 424.5 c 128,-1,44
 472 423 472 423 470 422 c 0,45,46
 464 419 464 419 462 419 c 0,47,48
 458 420 458 420 451 426 c 0,49,50
 441 434 441 434 435 440 c 2,51,-1
 434 441 l 2,52,53
 434 442 434 442 433 443 c 128,-1,54
 432 444 432 444 431 444 c 2,55,-1
 430 445 l 1,56,57
 418 459 418 459 413 464 c 2,58,-1
 406 472 l 1,59,-1
 431 668 l 1,60,-1
 441 679 l 1,61,62
 444 684 444 684 452 693 c 128,-1,63
 460 702 460 702 463 706 c 2,64,-1
 465 708 l 1,65,-1
 467 710 l 2,66,67
 471 714 471 714 478 721.5 c 128,-1,68
 485 729 485 729 488 732 c 0,69,70
 498 742 498 742 502 742 c 0,71,72
 505 742 505 742 507 740 c 0,73,74
 511 736 511 736 513 733 c 2,75,-1
 517 729 l 2,76,77
 518 728 518 728 519 726 c 128,-1,78
 520 724 520 724 521 723 c 0,79,80
 522 721 522 721 525 716.5 c 128,-1,81
 528 712 528 712 529 710 c 2,82,-1
 532 703 l 1,83,-1
 504 450 l 1,35,-1
131 763 m 1,84,85
 131 763 131 763 134 765 c 2,86,-1
 140 771 l 1,87,-1
 150 776 l 2,88,89
 154 778 154 778 162 778 c 2,90,-1
 449 778 l 1,91,-1
 454 777 l 2,92,93
 458 776 458 776 466 772 c 0,94,95
 468 771 468 771 472 768.5 c 128,-1,96
 476 766 476 766 478 765 c 0,97,98
 483 762 483 762 483 758 c 0,99,100
 483 755 483 755 474 743 c 0,101,102
 471 739 471 739 463.5 730.5 c 128,-1,103
 456 722 456 722 452 717 c 1,104,105
 452 715 452 715 451 715 c 128,-1,106
 450 715 450 715 449 714 c 0,107,108
 445 709 445 709 436.5 700 c 128,-1,109
 428 691 428 691 424 687 c 2,110,-1
 414 676 l 1,111,-1
 211 676 l 1,112,-1
 131 763 l 1,84,85
438 36 m 1,113,114
 438 36 438 36 436 33 c 0,115,116
 432 29 432 29 429 27 c 2,117,-1
 425 23 l 1,118,-1
 421 19 l 2,119,120
 420 18 420 18 419 18 c 0,121,122
 417 17 417 17 416 17 c 0,123,124
 414 16 414 16 412 16 c 2,125,-1
 109 16 l 2,126,127
 101 16 101 16 95 19 c 2,128,-1
 83 25 l 2,129,130
 81 26 81 26 78 28 c 128,-1,131
 75 30 75 30 74 31 c 2,132,-1
 71 34 l 1,133,-1
 145 112 l 1,134,-1
 367 112 l 1,135,-1
 438 36 l 1,113,114
442 411 m 1,136,137
 442 408 442 408 436 401 c 0,138,139
 430 393 430 393 420 385 c 0,140,141
 419 385 419 385 418 384 c 128,-1,142
 417 383 417 383 417 382 c 0,143,144
 403 372 403 372 398 367 c 2,145,-1
 390 359 l 1,146,-1
 161 359 l 1,147,-1
 153 366 l 2,148,149
 143 374 143 374 135 382 c 0,150,151
 134 382 134 382 134 383 c 2,152,-1
 132 384 l 1,153,-1
 130 386 l 2,154,155
 128 388 128 388 122.5 392.5 c 128,-1,156
 117 397 117 397 115 400 c 0,157,158
 109 408 109 408 109 411 c 0,159,160
 109 412 109 412 117 420 c 0,161,162
 124 428 124 428 135 435 c 1,163,-1
 137 437 l 2,164,165
 138 437 138 437 138 438 c 0,166,167
 149 445 149 445 160 454 c 2,168,-1
 169 461 l 1,169,-1
 397 461 l 1,170,-1
 404 454 l 1,171,172
 412 448 412 448 420 438 c 1,173,-1
 422 436 l 1,174,-1
 424 434 l 2,175,176
 430 428 430 428 436 420 c 0,177,178
 440 414 440 414 442 411 c 1,136,137
EndSplineSet
Validated: 1
EndChar

StartChar: four
Encoding: 52 52 20
Width: 563
Flags: W
LayerCount: 2
Fore
SplineSet
475 88 m 2,0,1
 475 86 475 86 472 77 c 0,2,3
 469 67 469 67 451 51 c 1,4,5
 445 54 445 54 437 62 c 0,6,7
 431 68 431 68 415 86 c 0,8,9
 414 86 414 86 413 87 c 2,10,-1
 412 88 l 2,11,12
 408 93 408 93 400 101.5 c 128,-1,13
 392 110 392 110 388 114 c 2,14,-1
 377 126 l 1,15,-1
 401 348 l 1,16,-1
 409 356 l 1,17,-1
 427 374 l 1,18,-1
 429 376 l 1,19,-1
 431 378 l 1,20,-1
 449 393 l 2,21,22
 457 399 457 399 460 398 c 2,23,-1
 468 394 l 2,24,25
 472 392 472 392 480 386 c 1,26,-1
 481 385 l 2,27,28
 482 384 482 384 483 384 c 0,29,30
 484 383 484 383 485 383 c 0,31,32
 495 375 495 375 499 372 c 2,33,-1
 505 367 l 1,34,-1
 475 88 l 2,0,1
504 450 m 1,35,-1
 498 445 l 2,36,37
 494 442 494 442 486 434 c 0,38,39
 485 433 485 433 484 433 c 2,40,-1
 482 431 l 2,41,42
 481 430 481 430 478.5 428 c 128,-1,43
 476 426 476 426 474 424.5 c 128,-1,44
 472 423 472 423 470 422 c 0,45,46
 464 419 464 419 462 419 c 0,47,48
 458 420 458 420 451 426 c 0,49,50
 441 434 441 434 435 440 c 2,51,-1
 434 441 l 2,52,53
 434 442 434 442 433 443 c 128,-1,54
 432 444 432 444 431 444 c 2,55,-1
 430 445 l 1,56,57
 418 459 418 459 413 464 c 2,58,-1
 406 472 l 1,59,-1
 431 668 l 1,60,-1
 441 679 l 1,61,62
 444 684 444 684 452 693 c 128,-1,63
 460 702 460 702 463 706 c 2,64,-1
 465 708 l 1,65,-1
 467 710 l 2,66,67
 471 714 471 714 478 721.5 c 128,-1,68
 485 729 485 729 488 732 c 0,69,70
 498 742 498 742 502 742 c 0,71,72
 505 742 505 742 507 740 c 0,73,74
 511 736 511 736 513 733 c 2,75,-1
 517 729 l 2,76,77
 518 728 518 728 519 726 c 128,-1,78
 520 724 520 724 521 723 c 0,79,80
 522 721 522 721 525 716.5 c 128,-1,81
 528 712 528 712 529 710 c 2,82,-1
 532 703 l 1,83,-1
 504 450 l 1,35,-1
442 411 m 1,84,85
 442 408 442 408 436 401 c 0,86,87
 430 393 430 393 420 385 c 0,88,89
 419 385 419 385 418 384 c 128,-1,90
 417 383 417 383 417 382 c 0,91,92
 403 372 403 372 398 367 c 2,93,-1
 390 359 l 1,94,-1
 161 359 l 1,95,-1
 153 366 l 2,96,97
 143 374 143 374 135 382 c 0,98,99
 134 382 134 382 134 383 c 2,100,-1
 132 384 l 1,101,-1
 130 386 l 2,102,103
 128 388 128 388 122.5 392.5 c 128,-1,104
 117 397 117 397 115 400 c 0,105,106
 109 408 109 408 109 411 c 0,107,108
 109 412 109 412 117 420 c 0,109,110
 124 428 124 428 135 435 c 1,111,-1
 137 437 l 2,112,113
 138 437 138 437 138 438 c 0,114,115
 149 445 149 445 160 454 c 2,116,-1
 169 461 l 1,117,-1
 397 461 l 1,118,-1
 404 454 l 1,119,120
 412 448 412 448 420 438 c 1,121,-1
 422 436 l 1,122,-1
 424 434 l 2,123,124
 430 428 430 428 436 420 c 0,125,126
 440 414 440 414 442 411 c 1,84,85
95 714 m 1,127,128
 97 716 97 716 97 717 c 0,129,130
 97 720 97 720 98 721 c 0,131,132
 103 736 103 736 111 744 c 2,133,-1
 117 750 l 1,134,-1
 190 670 l 1,135,-1
 169 478 l 1,136,-1
 159 470 l 2,137,138
 148 462 148 462 135 452 c 1,139,140
 136 452 136 452 135 451 c 1,141,-1
 133 451 l 1,142,143
 123 442 123 442 110 433 c 0,144,145
 99 425 99 425 98 425 c 2,146,-1
 93 430 l 2,147,148
 88 435 88 435 86 438 c 2,149,-1
 85 440 l 1,150,-1
 84 442 l 1,151,-1
 82 444 l 1,152,-1
 73 459 l 1,153,-1
 70 465 l 1,154,-1
 95 714 l 1,127,128
EndSplineSet
Validated: 1
EndChar

StartChar: five
Encoding: 53 53 21
Width: 563
Flags: W
LayerCount: 2
Fore
SplineSet
475 88 m 2,0,1
 475 86 475 86 472 77 c 0,2,3
 469 67 469 67 451 51 c 1,4,5
 445 54 445 54 437 62 c 0,6,7
 431 68 431 68 415 86 c 0,8,9
 414 86 414 86 413 87 c 2,10,-1
 412 88 l 2,11,12
 408 93 408 93 400 101.5 c 128,-1,13
 392 110 392 110 388 114 c 2,14,-1
 377 126 l 1,15,-1
 401 348 l 1,16,-1
 409 356 l 1,17,-1
 427 374 l 1,18,-1
 429 376 l 1,19,-1
 431 378 l 1,20,-1
 449 393 l 2,21,22
 457 399 457 399 460 398 c 2,23,-1
 468 394 l 2,24,25
 472 392 472 392 480 386 c 1,26,-1
 481 385 l 2,27,28
 482 384 482 384 483 384 c 0,29,30
 484 383 484 383 485 383 c 0,31,32
 495 375 495 375 499 372 c 2,33,-1
 505 367 l 1,34,-1
 475 88 l 2,0,1
131 763 m 1,35,36
 131 763 131 763 134 765 c 2,37,-1
 140 771 l 1,38,-1
 150 776 l 2,39,40
 154 778 154 778 162 778 c 2,41,-1
 449 778 l 1,42,-1
 454 777 l 2,43,44
 458 776 458 776 466 772 c 0,45,46
 468 771 468 771 472 768.5 c 128,-1,47
 476 766 476 766 478 765 c 0,48,49
 483 762 483 762 483 758 c 0,50,51
 483 755 483 755 474 743 c 0,52,53
 471 739 471 739 463.5 730.5 c 128,-1,54
 456 722 456 722 452 717 c 1,55,56
 452 715 452 715 451 715 c 128,-1,57
 450 715 450 715 449 714 c 0,58,59
 445 709 445 709 436.5 700 c 128,-1,60
 428 691 428 691 424 687 c 2,61,-1
 414 676 l 1,62,-1
 211 676 l 1,63,-1
 131 763 l 1,35,36
438 36 m 1,64,65
 438 36 438 36 436 33 c 0,66,67
 432 29 432 29 429 27 c 2,68,-1
 425 23 l 1,69,-1
 421 19 l 2,70,71
 420 18 420 18 419 18 c 0,72,73
 417 17 417 17 416 17 c 0,74,75
 414 16 414 16 412 16 c 2,76,-1
 109 16 l 2,77,78
 101 16 101 16 95 19 c 2,79,-1
 83 25 l 2,80,81
 81 26 81 26 78 28 c 128,-1,82
 75 30 75 30 74 31 c 2,83,-1
 71 34 l 1,84,-1
 145 112 l 1,85,-1
 367 112 l 1,86,-1
 438 36 l 1,64,65
95 714 m 1,87,88
 97 716 97 716 97 717 c 0,89,90
 97 720 97 720 98 721 c 0,91,92
 103 736 103 736 111 744 c 2,93,-1
 117 750 l 1,94,-1
 190 670 l 1,95,-1
 169 478 l 1,96,-1
 159 470 l 2,97,98
 148 462 148 462 135 452 c 1,99,100
 136 452 136 452 135 451 c 1,101,-1
 133 451 l 1,102,103
 123 442 123 442 110 433 c 0,104,105
 99 425 99 425 98 425 c 2,106,-1
 93 430 l 2,107,108
 88 435 88 435 86 438 c 2,109,-1
 85 440 l 1,110,-1
 84 442 l 1,111,-1
 82 444 l 1,112,-1
 73 459 l 1,113,-1
 70 465 l 1,114,-1
 95 714 l 1,87,88
442 411 m 1,115,116
 442 408 442 408 436 401 c 0,117,118
 430 393 430 393 420 385 c 0,119,120
 419 385 419 385 418 384 c 128,-1,121
 417 383 417 383 417 382 c 0,122,123
 403 372 403 372 398 367 c 2,124,-1
 390 359 l 1,125,-1
 161 359 l 1,126,-1
 153 366 l 2,127,128
 143 374 143 374 135 382 c 0,129,130
 134 382 134 382 134 383 c 2,131,-1
 132 384 l 1,132,-1
 130 386 l 2,133,134
 128 388 128 388 122.5 392.5 c 128,-1,135
 117 397 117 397 115 400 c 0,136,137
 109 408 109 408 109 411 c 0,138,139
 109 412 109 412 117 420 c 0,140,141
 124 428 124 428 135 435 c 1,142,-1
 137 437 l 2,143,144
 138 437 138 437 138 438 c 0,145,146
 149 445 149 445 160 454 c 2,147,-1
 169 461 l 1,148,-1
 397 461 l 1,149,-1
 404 454 l 1,150,151
 412 448 412 448 420 438 c 1,152,-1
 422 436 l 1,153,-1
 424 434 l 2,154,155
 430 428 430 428 436 420 c 0,156,157
 440 414 440 414 442 411 c 1,115,116
EndSplineSet
Validated: 1
EndChar

StartChar: six
Encoding: 54 54 22
Width: 563
Flags: W
LayerCount: 2
Fore
SplineSet
475 88 m 2,0,1
 475 86 475 86 472 77 c 0,2,3
 469 67 469 67 451 51 c 1,4,5
 445 54 445 54 437 62 c 0,6,7
 431 68 431 68 415 86 c 0,8,9
 414 86 414 86 413 87 c 2,10,-1
 412 88 l 2,11,12
 408 93 408 93 400 101.5 c 128,-1,13
 392 110 392 110 388 114 c 2,14,-1
 377 126 l 1,15,-1
 401 348 l 1,16,-1
 409 356 l 1,17,-1
 427 374 l 1,18,-1
 429 376 l 1,19,-1
 431 378 l 1,20,-1
 449 393 l 2,21,22
 457 399 457 399 460 398 c 2,23,-1
 468 394 l 2,24,25
 472 392 472 392 480 386 c 1,26,-1
 481 385 l 2,27,28
 482 384 482 384 483 384 c 0,29,30
 484 383 484 383 485 383 c 0,31,32
 495 375 495 375 499 372 c 2,33,-1
 505 367 l 1,34,-1
 475 88 l 2,0,1
131 763 m 1,35,36
 131 763 131 763 134 765 c 2,37,-1
 140 771 l 1,38,-1
 150 776 l 2,39,40
 154 778 154 778 162 778 c 2,41,-1
 449 778 l 1,42,-1
 454 777 l 2,43,44
 458 776 458 776 466 772 c 0,45,46
 468 771 468 771 472 768.5 c 128,-1,47
 476 766 476 766 478 765 c 0,48,49
 483 762 483 762 483 758 c 0,50,51
 483 755 483 755 474 743 c 0,52,53
 471 739 471 739 463.5 730.5 c 128,-1,54
 456 722 456 722 452 717 c 1,55,56
 452 715 452 715 451 715 c 128,-1,57
 450 715 450 715 449 714 c 0,58,59
 445 709 445 709 436.5 700 c 128,-1,60
 428 691 428 691 424 687 c 2,61,-1
 414 676 l 1,62,-1
 211 676 l 1,63,-1
 131 763 l 1,35,36
438 36 m 1,64,65
 438 36 438 36 436 33 c 0,66,67
 432 29 432 29 429 27 c 2,68,-1
 425 23 l 1,69,-1
 421 19 l 2,70,71
 420 18 420 18 419 18 c 0,72,73
 417 17 417 17 416 17 c 0,74,75
 414 16 414 16 412 16 c 2,76,-1
 109 16 l 2,77,78
 101 16 101 16 95 19 c 2,79,-1
 83 25 l 2,80,81
 81 26 81 26 78 28 c 128,-1,82
 75 30 75 30 74 31 c 2,83,-1
 71 34 l 1,84,-1
 145 112 l 1,85,-1
 367 112 l 1,86,-1
 438 36 l 1,64,65
62 375 m 1,87,88
 63 374 63 374 67 378 c 2,89,-1
 76 387 l 1,90,-1
 78 389 l 2,91,92
 78 390 78 390 79 390 c 128,-1,93
 80 390 80 390 81 391 c 2,94,-1
 90 397 l 2,95,96
 94 400 94 400 96 398 c 2,97,-1
 98 397 l 2,98,99
 99 396 99 396 101.5 394 c 128,-1,100
 104 392 104 392 107 390 c 0,101,102
 113 385 113 385 126 372 c 2,103,-1
 127 371 l 2,104,105
 128 371 128 371 128 370 c 2,106,-1
 148 350 l 1,107,-1
 157 341 l 1,108,-1
 135 125 l 1,109,-1
 58 45 l 1,110,111
 57 46 57 46 56.5 47 c 128,-1,112
 56 48 56 48 54 50 c 0,113,114
 50 54 50 54 48 57 c 0,115,116
 46 59 46 59 40 72 c 0,117,118
 37 78 37 78 33 90 c 1,119,120
 31 92 31 92 31 95 c 2,121,-1
 31 99 l 1,122,-1
 62 375 l 1,87,88
95 714 m 1,123,124
 97 716 97 716 97 717 c 0,125,126
 97 720 97 720 98 721 c 0,127,128
 103 736 103 736 111 744 c 2,129,-1
 117 750 l 1,130,-1
 190 670 l 1,131,-1
 169 478 l 1,132,-1
 159 470 l 2,133,134
 148 462 148 462 135 452 c 1,135,136
 136 452 136 452 135 451 c 1,137,-1
 133 451 l 1,138,139
 123 442 123 442 110 433 c 0,140,141
 99 425 99 425 98 425 c 2,142,-1
 93 430 l 2,143,144
 88 435 88 435 86 438 c 2,145,-1
 85 440 l 1,146,-1
 84 442 l 1,147,-1
 82 444 l 1,148,-1
 73 459 l 1,149,-1
 70 465 l 1,150,-1
 95 714 l 1,123,124
442 411 m 1,151,152
 442 408 442 408 436 401 c 0,153,154
 430 393 430 393 420 385 c 0,155,156
 419 385 419 385 418 384 c 128,-1,157
 417 383 417 383 417 382 c 0,158,159
 403 372 403 372 398 367 c 2,160,-1
 390 359 l 1,161,-1
 161 359 l 1,162,-1
 153 366 l 2,163,164
 143 374 143 374 135 382 c 0,165,166
 134 382 134 382 134 383 c 2,167,-1
 132 384 l 1,168,-1
 130 386 l 2,169,170
 128 388 128 388 122.5 392.5 c 128,-1,171
 117 397 117 397 115 400 c 0,172,173
 109 408 109 408 109 411 c 0,174,175
 109 412 109 412 117 420 c 0,176,177
 124 428 124 428 135 435 c 1,178,-1
 137 437 l 2,179,180
 138 437 138 437 138 438 c 0,181,182
 149 445 149 445 160 454 c 2,183,-1
 169 461 l 1,184,-1
 397 461 l 1,185,-1
 404 454 l 1,186,187
 412 448 412 448 420 438 c 1,188,-1
 422 436 l 1,189,-1
 424 434 l 2,190,191
 430 428 430 428 436 420 c 0,192,193
 440 414 440 414 442 411 c 1,151,152
EndSplineSet
Validated: 1
EndChar

StartChar: seven
Encoding: 55 55 23
Width: 563
Flags: W
LayerCount: 2
Fore
SplineSet
475 88 m 2,0,1
 475 86 475 86 472 77 c 0,2,3
 469 67 469 67 451 51 c 1,4,5
 445 54 445 54 437 62 c 0,6,7
 431 68 431 68 415 86 c 0,8,9
 414 86 414 86 413 87 c 2,10,-1
 412 88 l 2,11,12
 408 93 408 93 400 101.5 c 128,-1,13
 392 110 392 110 388 114 c 2,14,-1
 377 126 l 1,15,-1
 401 348 l 1,16,-1
 409 356 l 1,17,-1
 427 374 l 1,18,-1
 429 376 l 1,19,-1
 431 378 l 1,20,-1
 449 393 l 2,21,22
 457 399 457 399 460 398 c 2,23,-1
 468 394 l 2,24,25
 472 392 472 392 480 386 c 1,26,-1
 481 385 l 2,27,28
 482 384 482 384 483 384 c 0,29,30
 484 383 484 383 485 383 c 0,31,32
 495 375 495 375 499 372 c 2,33,-1
 505 367 l 1,34,-1
 475 88 l 2,0,1
504 450 m 1,35,-1
 498 445 l 2,36,37
 494 442 494 442 486 434 c 0,38,39
 485 433 485 433 484 433 c 2,40,-1
 482 431 l 2,41,42
 481 430 481 430 478.5 428 c 128,-1,43
 476 426 476 426 474 424.5 c 128,-1,44
 472 423 472 423 470 422 c 0,45,46
 464 419 464 419 462 419 c 0,47,48
 458 420 458 420 451 426 c 0,49,50
 441 434 441 434 435 440 c 2,51,-1
 434 441 l 2,52,53
 434 442 434 442 433 443 c 128,-1,54
 432 444 432 444 431 444 c 2,55,-1
 430 445 l 1,56,57
 418 459 418 459 413 464 c 2,58,-1
 406 472 l 1,59,-1
 431 668 l 1,60,-1
 441 679 l 1,61,62
 444 684 444 684 452 693 c 128,-1,63
 460 702 460 702 463 706 c 2,64,-1
 465 708 l 1,65,-1
 467 710 l 2,66,67
 471 714 471 714 478 721.5 c 128,-1,68
 485 729 485 729 488 732 c 0,69,70
 498 742 498 742 502 742 c 0,71,72
 505 742 505 742 507 740 c 0,73,74
 511 736 511 736 513 733 c 2,75,-1
 517 729 l 2,76,77
 518 728 518 728 519 726 c 128,-1,78
 520 724 520 724 521 723 c 0,79,80
 522 721 522 721 525 716.5 c 128,-1,81
 528 712 528 712 529 710 c 2,82,-1
 532 703 l 1,83,-1
 504 450 l 1,35,-1
131 763 m 1,84,85
 131 763 131 763 134 765 c 2,86,-1
 140 771 l 1,87,-1
 150 776 l 2,88,89
 154 778 154 778 162 778 c 2,90,-1
 449 778 l 1,91,-1
 454 777 l 2,92,93
 458 776 458 776 466 772 c 0,94,95
 468 771 468 771 472 768.5 c 128,-1,96
 476 766 476 766 478 765 c 0,97,98
 483 762 483 762 483 758 c 0,99,100
 483 755 483 755 474 743 c 0,101,102
 471 739 471 739 463.5 730.5 c 128,-1,103
 456 722 456 722 452 717 c 1,104,105
 452 715 452 715 451 715 c 128,-1,106
 450 715 450 715 449 714 c 0,107,108
 445 709 445 709 436.5 700 c 128,-1,109
 428 691 428 691 424 687 c 2,110,-1
 414 676 l 1,111,-1
 211 676 l 1,112,-1
 131 763 l 1,84,85
EndSplineSet
Validated: 1
EndChar

StartChar: eight
Encoding: 56 56 24
Width: 563
Flags: W
LayerCount: 2
Fore
SplineSet
475 88 m 2,0,1
 475 86 475 86 472 77 c 0,2,3
 469 67 469 67 451 51 c 1,4,5
 445 54 445 54 437 62 c 0,6,7
 431 68 431 68 415 86 c 0,8,9
 414 86 414 86 413 87 c 2,10,-1
 412 88 l 2,11,12
 408 93 408 93 400 101.5 c 128,-1,13
 392 110 392 110 388 114 c 2,14,-1
 377 126 l 1,15,-1
 401 348 l 1,16,-1
 409 356 l 1,17,-1
 427 374 l 1,18,-1
 429 376 l 1,19,-1
 431 378 l 1,20,-1
 449 393 l 2,21,22
 457 399 457 399 460 398 c 2,23,-1
 468 394 l 2,24,25
 472 392 472 392 480 386 c 1,26,-1
 481 385 l 2,27,28
 482 384 482 384 483 384 c 0,29,30
 484 383 484 383 485 383 c 0,31,32
 495 375 495 375 499 372 c 2,33,-1
 505 367 l 1,34,-1
 475 88 l 2,0,1
504 450 m 1,35,-1
 498 445 l 2,36,37
 494 442 494 442 486 434 c 0,38,39
 485 433 485 433 484 433 c 2,40,-1
 482 431 l 2,41,42
 481 430 481 430 478.5 428 c 128,-1,43
 476 426 476 426 474 424.5 c 128,-1,44
 472 423 472 423 470 422 c 0,45,46
 464 419 464 419 462 419 c 0,47,48
 458 420 458 420 451 426 c 0,49,50
 441 434 441 434 435 440 c 2,51,-1
 434 441 l 2,52,53
 434 442 434 442 433 443 c 128,-1,54
 432 444 432 444 431 444 c 2,55,-1
 430 445 l 1,56,57
 418 459 418 459 413 464 c 2,58,-1
 406 472 l 1,59,-1
 431 668 l 1,60,-1
 441 679 l 1,61,62
 444 684 444 684 452 693 c 128,-1,63
 460 702 460 702 463 706 c 2,64,-1
 465 708 l 1,65,-1
 467 710 l 2,66,67
 471 714 471 714 478 721.5 c 128,-1,68
 485 729 485 729 488 732 c 0,69,70
 498 742 498 742 502 742 c 0,71,72
 505 742 505 742 507 740 c 0,73,74
 511 736 511 736 513 733 c 2,75,-1
 517 729 l 2,76,77
 518 728 518 728 519 726 c 128,-1,78
 520 724 520 724 521 723 c 0,79,80
 522 721 522 721 525 716.5 c 128,-1,81
 528 712 528 712 529 710 c 2,82,-1
 532 703 l 1,83,-1
 504 450 l 1,35,-1
131 763 m 1,84,85
 131 763 131 763 134 765 c 2,86,-1
 140 771 l 1,87,-1
 150 776 l 2,88,89
 154 778 154 778 162 778 c 2,90,-1
 449 778 l 1,91,-1
 454 777 l 2,92,93
 458 776 458 776 466 772 c 0,94,95
 468 771 468 771 472 768.5 c 128,-1,96
 476 766 476 766 478 765 c 0,97,98
 483 762 483 762 483 758 c 0,99,100
 483 755 483 755 474 743 c 0,101,102
 471 739 471 739 463.5 730.5 c 128,-1,103
 456 722 456 722 452 717 c 1,104,105
 452 715 452 715 451 715 c 128,-1,106
 450 715 450 715 449 714 c 0,107,108
 445 709 445 709 436.5 700 c 128,-1,109
 428 691 428 691 424 687 c 2,110,-1
 414 676 l 1,111,-1
 211 676 l 1,112,-1
 131 763 l 1,84,85
438 36 m 1,113,114
 438 36 438 36 436 33 c 0,115,116
 432 29 432 29 429 27 c 2,117,-1
 425 23 l 1,118,-1
 421 19 l 2,119,120
 420 18 420 18 419 18 c 0,121,122
 417 17 417 17 416 17 c 0,123,124
 414 16 414 16 412 16 c 2,125,-1
 109 16 l 2,126,127
 101 16 101 16 95 19 c 2,128,-1
 83 25 l 2,129,130
 81 26 81 26 78 28 c 128,-1,131
 75 30 75 30 74 31 c 2,132,-1
 71 34 l 1,133,-1
 145 112 l 1,134,-1
 367 112 l 1,135,-1
 438 36 l 1,113,114
62 375 m 1,136,137
 63 374 63 374 67 378 c 2,138,-1
 76 387 l 1,139,-1
 78 389 l 2,140,141
 78 390 78 390 79 390 c 128,-1,142
 80 390 80 390 81 391 c 2,143,-1
 90 397 l 2,144,145
 94 400 94 400 96 398 c 2,146,-1
 98 397 l 2,147,148
 99 396 99 396 101.5 394 c 128,-1,149
 104 392 104 392 107 390 c 0,150,151
 113 385 113 385 126 372 c 2,152,-1
 127 371 l 2,153,154
 128 371 128 371 128 370 c 2,155,-1
 148 350 l 1,156,-1
 157 341 l 1,157,-1
 135 125 l 1,158,-1
 58 45 l 1,159,160
 57 46 57 46 56.5 47 c 128,-1,161
 56 48 56 48 54 50 c 0,162,163
 50 54 50 54 48 57 c 0,164,165
 46 59 46 59 40 72 c 0,166,167
 37 78 37 78 33 90 c 1,168,169
 31 92 31 92 31 95 c 2,170,-1
 31 99 l 1,171,-1
 62 375 l 1,136,137
95 714 m 1,172,173
 97 716 97 716 97 717 c 0,174,175
 97 720 97 720 98 721 c 0,176,177
 103 736 103 736 111 744 c 2,178,-1
 117 750 l 1,179,-1
 190 670 l 1,180,-1
 169 478 l 1,181,-1
 159 470 l 2,182,183
 148 462 148 462 135 452 c 1,184,185
 136 452 136 452 135 451 c 1,186,-1
 133 451 l 1,187,188
 123 442 123 442 110 433 c 0,189,190
 99 425 99 425 98 425 c 2,191,-1
 93 430 l 2,192,193
 88 435 88 435 86 438 c 2,194,-1
 85 440 l 1,195,-1
 84 442 l 1,196,-1
 82 444 l 1,197,-1
 73 459 l 1,198,-1
 70 465 l 1,199,-1
 95 714 l 1,172,173
442 411 m 1,200,201
 442 408 442 408 436 401 c 0,202,203
 430 393 430 393 420 385 c 0,204,205
 419 385 419 385 418 384 c 128,-1,206
 417 383 417 383 417 382 c 0,207,208
 403 372 403 372 398 367 c 2,209,-1
 390 359 l 1,210,-1
 161 359 l 1,211,-1
 153 366 l 2,212,213
 143 374 143 374 135 382 c 0,214,215
 134 382 134 382 134 383 c 2,216,-1
 132 384 l 1,217,-1
 130 386 l 2,218,219
 128 388 128 388 122.5 392.5 c 128,-1,220
 117 397 117 397 115 400 c 0,221,222
 109 408 109 408 109 411 c 0,223,224
 109 412 109 412 117 420 c 0,225,226
 124 428 124 428 135 435 c 1,227,-1
 137 437 l 2,228,229
 138 437 138 437 138 438 c 0,230,231
 149 445 149 445 160 454 c 2,232,-1
 169 461 l 1,233,-1
 397 461 l 1,234,-1
 404 454 l 1,235,236
 412 448 412 448 420 438 c 1,237,-1
 422 436 l 1,238,-1
 424 434 l 2,239,240
 430 428 430 428 436 420 c 0,241,242
 440 414 440 414 442 411 c 1,200,201
EndSplineSet
Validated: 1
EndChar

StartChar: nine
Encoding: 57 57 25
Width: 563
Flags: W
LayerCount: 2
Fore
SplineSet
475 88 m 2,0,1
 475 86 475 86 472 77 c 0,2,3
 469 67 469 67 451 51 c 1,4,5
 445 54 445 54 437 62 c 0,6,7
 431 68 431 68 415 86 c 0,8,9
 414 86 414 86 413 87 c 2,10,-1
 412 88 l 2,11,12
 408 93 408 93 400 101.5 c 128,-1,13
 392 110 392 110 388 114 c 2,14,-1
 377 126 l 1,15,-1
 401 348 l 1,16,-1
 409 356 l 1,17,-1
 427 374 l 1,18,-1
 429 376 l 1,19,-1
 431 378 l 1,20,-1
 449 393 l 2,21,22
 457 399 457 399 460 398 c 2,23,-1
 468 394 l 2,24,25
 472 392 472 392 480 386 c 1,26,-1
 481 385 l 2,27,28
 482 384 482 384 483 384 c 0,29,30
 484 383 484 383 485 383 c 0,31,32
 495 375 495 375 499 372 c 2,33,-1
 505 367 l 1,34,-1
 475 88 l 2,0,1
504 450 m 1,35,-1
 498 445 l 2,36,37
 494 442 494 442 486 434 c 0,38,39
 485 433 485 433 484 433 c 2,40,-1
 482 431 l 2,41,42
 481 430 481 430 478.5 428 c 128,-1,43
 476 426 476 426 474 424.5 c 128,-1,44
 472 423 472 423 470 422 c 0,45,46
 464 419 464 419 462 419 c 0,47,48
 458 420 458 420 451 426 c 0,49,50
 441 434 441 434 435 440 c 2,51,-1
 434 441 l 2,52,53
 434 442 434 442 433 443 c 128,-1,54
 432 444 432 444 431 444 c 2,55,-1
 430 445 l 1,56,57
 418 459 418 459 413 464 c 2,58,-1
 406 472 l 1,59,-1
 431 668 l 1,60,-1
 441 679 l 1,61,62
 444 684 444 684 452 693 c 128,-1,63
 460 702 460 702 463 706 c 2,64,-1
 465 708 l 1,65,-1
 467 710 l 2,66,67
 471 714 471 714 478 721.5 c 128,-1,68
 485 729 485 729 488 732 c 0,69,70
 498 742 498 742 502 742 c 0,71,72
 505 742 505 742 507 740 c 0,73,74
 511 736 511 736 513 733 c 2,75,-1
 517 729 l 2,76,77
 518 728 518 728 519 726 c 128,-1,78
 520 724 520 724 521 723 c 0,79,80
 522 721 522 721 525 716.5 c 128,-1,81
 528 712 528 712 529 710 c 2,82,-1
 532 703 l 1,83,-1
 504 450 l 1,35,-1
131 763 m 1,84,85
 131 763 131 763 134 765 c 2,86,-1
 140 771 l 1,87,-1
 150 776 l 2,88,89
 154 778 154 778 162 778 c 2,90,-1
 449 778 l 1,91,-1
 454 777 l 2,92,93
 458 776 458 776 466 772 c 0,94,95
 468 771 468 771 472 768.5 c 128,-1,96
 476 766 476 766 478 765 c 0,97,98
 483 762 483 762 483 758 c 0,99,100
 483 755 483 755 474 743 c 0,101,102
 471 739 471 739 463.5 730.5 c 128,-1,103
 456 722 456 722 452 717 c 1,104,105
 452 715 452 715 451 715 c 128,-1,106
 450 715 450 715 449 714 c 0,107,108
 445 709 445 709 436.5 700 c 128,-1,109
 428 691 428 691 424 687 c 2,110,-1
 414 676 l 1,111,-1
 211 676 l 1,112,-1
 131 763 l 1,84,85
438 36 m 1,113,114
 438 36 438 36 436 33 c 0,115,116
 432 29 432 29 429 27 c 2,117,-1
 425 23 l 1,118,-1
 421 19 l 2,119,120
 420 18 420 18 419 18 c 0,121,122
 417 17 417 17 416 17 c 0,123,124
 414 16 414 16 412 16 c 2,125,-1
 109 16 l 2,126,127
 101 16 101 16 95 19 c 2,128,-1
 83 25 l 2,129,130
 81 26 81 26 78 28 c 128,-1,131
 75 30 75 30 74 31 c 2,132,-1
 71 34 l 1,133,-1
 145 112 l 1,134,-1
 367 112 l 1,135,-1
 438 36 l 1,113,114
95 714 m 1,136,137
 97 716 97 716 97 717 c 0,138,139
 97 720 97 720 98 721 c 0,140,141
 103 736 103 736 111 744 c 2,142,-1
 117 750 l 1,143,-1
 190 670 l 1,144,-1
 169 478 l 1,145,-1
 159 470 l 2,146,147
 148 462 148 462 135 452 c 1,148,149
 136 452 136 452 135 451 c 1,150,-1
 133 451 l 1,151,152
 123 442 123 442 110 433 c 0,153,154
 99 425 99 425 98 425 c 2,155,-1
 93 430 l 2,156,157
 88 435 88 435 86 438 c 2,158,-1
 85 440 l 1,159,-1
 84 442 l 1,160,-1
 82 444 l 1,161,-1
 73 459 l 1,162,-1
 70 465 l 1,163,-1
 95 714 l 1,136,137
442 411 m 1,164,165
 442 408 442 408 436 401 c 0,166,167
 430 393 430 393 420 385 c 0,168,169
 419 385 419 385 418 384 c 128,-1,170
 417 383 417 383 417 382 c 0,171,172
 403 372 403 372 398 367 c 2,173,-1
 390 359 l 1,174,-1
 161 359 l 1,175,-1
 153 366 l 2,176,177
 143 374 143 374 135 382 c 0,178,179
 134 382 134 382 134 383 c 2,180,-1
 132 384 l 1,181,-1
 130 386 l 2,182,183
 128 388 128 388 122.5 392.5 c 128,-1,184
 117 397 117 397 115 400 c 0,185,186
 109 408 109 408 109 411 c 0,187,188
 109 412 109 412 117 420 c 0,189,190
 124 428 124 428 135 435 c 1,191,-1
 137 437 l 2,192,193
 138 437 138 437 138 438 c 0,194,195
 149 445 149 445 160 454 c 2,196,-1
 169 461 l 1,197,-1
 397 461 l 1,198,-1
 404 454 l 1,199,200
 412 448 412 448 420 438 c 1,201,-1
 422 436 l 1,202,-1
 424 434 l 2,203,204
 430 428 430 428 436 420 c 0,205,206
 440 414 440 414 442 411 c 1,164,165
EndSplineSet
Validated: 1
EndChar

StartChar: colon
Encoding: 58 58 26
Width: 251
Flags: W
LayerCount: 2
Fore
SplineSet
59 217 m 1,0,-1
 73 319 l 1,1,-1
 179 319 l 1,2,-1
 167 217 l 1,3,-1
 60 217 l 1,4,-1
 59 217 l 1,0,-1
77 496 m 1,5,-1
 90 598 l 1,6,-1
 196 598 l 1,7,-1
 183 496 l 1,8,-1
 77 496 l 1,5,-1
EndSplineSet
Validated: 1
EndChar

StartChar: semicolon
Encoding: 59 59 27
Width: 251
Flags: W
LayerCount: 2
Fore
SplineSet
37 64 m 1,0,-1
 69 256 l 1,1,-1
 175 256 l 1,2,-1
 137 15 l 1,3,-1
 30 15 l 1,4,-1
 37 64 l 1,0,-1
77 496 m 1,5,-1
 90 598 l 1,6,-1
 196 598 l 1,7,-1
 183 496 l 1,8,-1
 77 496 l 1,5,-1
EndSplineSet
Validated: 1
EndChar

StartChar: less
Encoding: 60 60 28
Width: 251
Flags: W
LayerCount: 2
Fore
SplineSet
6 405 m 2,0,1
 6 406 6 406 6 406 c 1,2,3
 5 410 5 410 19 410 c 0,4,5
 29 410 29 410 44 408 c 0,6,7
 70 403 70 403 74 403 c 1,8,-1
 84 398 l 1,9,-1
 236 261 l 1,10,-1
 236 253 l 2,11,12
 236 248 236 248 234 235 c 1,13,-1
 234 233 l 1,14,15
 232 232 232 232 232 231 c 2,16,-1
 232 229 l 2,17,18
 232 219 232 219 230 215 c 2,19,-1
 226 207 l 2,20,21
 224 204 224 204 216 203 c 2,22,-1
 192 200 l 1,23,-1
 190 200 l 1,24,-1
 186 200 l 1,25,-1
 162 200 l 1,26,-1
 150 200 l 1,27,-1
 42 302 l 1,28,-1
 6 405 l 2,0,1
6 422 m 1,29,30
 15 458 15 458 25 494 c 1,31,-1
 42 539 l 1,32,-1
 150 624 l 1,33,-1
 162 624 l 1,34,-1
 186 624 l 1,35,-1
 190 624 l 1,36,-1
 192 624 l 1,37,-1
 216 621 l 2,38,39
 224 620 224 620 226 617 c 2,40,-1
 230 609 l 2,41,42
 232 605 232 605 232 595 c 2,43,-1
 232 593 l 2,44,45
 232 592 232 592 234 591 c 1,46,-1
 234 589 l 1,47,48
 236 576 236 576 236 571 c 2,49,-1
 236 563 l 1,50,-1
 84 431 l 1,51,-1
 74 426 l 2,52,53
 65 422 65 422 44 422 c 128,-1,54
 23 422 23 422 6 422 c 1,29,30
EndSplineSet
Validated: 1
EndChar

StartChar: equal
Encoding: 61 61 29
Width: 563
Flags: W
LayerCount: 2
Fore
SplineSet
59 217 m 1,0,-1
 73 319 l 1,1,-1
 485 319 l 1,2,-1
 473 217 l 1,3,-1
 60 217 l 1,4,-1
 59 217 l 1,0,-1
77 496 m 1,5,-1
 90 598 l 1,6,-1
 502 598 l 1,7,-1
 489 496 l 1,8,-1
 77 496 l 1,5,-1
EndSplineSet
Validated: 1
EndChar

StartChar: greater
Encoding: 62 62 30
Width: 251
Flags: W
LayerCount: 2
Fore
SplineSet
35 191 m 1,0,1
 32 190 32 190 28 192 c 0,2,3
 26 193 26 193 24 193 c 2,4,-1
 22 193 l 2,5,6
 19 193 19 193 18 198 c 2,7,-1
 16 209 l 2,8,9
 16 210 16 210 16 211 c 2,10,-1
 16 212 l 1,11,-1
 16 215 l 1,12,-1
 16 228 l 2,13,14
 16 234 16 234 14 234 c 1,15,-1
 141 388 l 1,16,-1
 144 391 l 2,17,18
 146 393 146 393 149 393 c 1,19,20
 157 397 157 397 167 401 c 0,21,22
 174 404 174 404 183 406 c 0,23,24
 189 407 189 407 192 406 c 0,25,26
 194 405 194 405 196 407 c 1,27,-1
 199 407 l 1,28,-1
 244 414 l 1,29,-1
 106 190 l 1,30,-1
 35 191 l 1,0,1
36 623 m 2,31,-1
 106 623 l 1,32,-1
 241 442 l 1,33,-1
 199 422 l 1,34,-1
 196 422 l 1,35,36
 194 424 194 424 192 423 c 0,37,38
 189 421 189 421 183 423 c 0,39,40
 174 425 174 425 167 428 c 0,41,42
 157 432 157 432 149 436 c 1,43,44
 146 436 146 436 144 438 c 2,45,-1
 141 441 l 1,46,-1
 14 579 l 1,47,48
 16 579 16 579 16 585 c 2,49,-1
 16 598 l 1,50,-1
 16 601 l 1,51,-1
 16 602 l 2,52,53
 16 603 16 603 16 604 c 2,54,-1
 18 615 l 2,55,56
 19 620 19 620 22 620 c 2,57,-1
 24 620 l 2,58,59
 26 620 26 620 28 621 c 0,60,61
 32 623 32 623 36 623 c 2,31,-1
EndSplineSet
Validated: 1
EndChar

StartChar: question
Encoding: 63 63 31
Width: 563
Flags: W
LayerCount: 2
Fore
SplineSet
228 238 m 1,0,-1
 248 348 l 1,1,-1
 354 348 l 1,2,-1
 326 150 l 1,3,-1
 220 150 l 1,4,-1
 228 238 l 1,0,-1
205 29 m 1,5,-1
 216 117 l 1,6,-1
 322 117 l 1,7,-1
 310 15 l 1,8,-1
 204 15 l 1,9,-1
 205 29 l 1,5,-1
504 450 m 1,10,-1
 498 445 l 2,11,12
 492 440 492 440 486 434 c 0,13,14
 485 433 485 433 484 433 c 2,15,-1
 482 431 l 2,16,17
 481 430 481 430 478.5 428 c 128,-1,18
 476 426 476 426 474 424.5 c 128,-1,19
 472 423 472 423 470 422 c 0,20,21
 464 419 464 419 462 419 c 0,22,23
 458 420 458 420 451 426 c 0,24,25
 441 434 441 434 435 440 c 2,26,-1
 434 441 l 2,27,28
 434 442 434 442 433 443 c 128,-1,29
 432 444 432 444 431 444 c 2,30,-1
 430 445 l 1,31,32
 418 459 418 459 413 464 c 2,33,-1
 406 472 l 1,34,-1
 431 668 l 1,35,-1
 441 679 l 1,36,37
 444 684 444 684 452 693 c 128,-1,38
 460 702 460 702 463 706 c 2,39,-1
 465 708 l 1,40,-1
 467 710 l 2,41,42
 473 716 473 716 484 703 c 0,43,44
 494 692 494 692 495 690 c 0,45,46
 500 685 500 685 504 678 c 0,47,48
 505 675 505 675 507 673 c 0,49,50
 511 669 511 669 513 666 c 2,51,-1
 517 662 l 2,52,53
 518 661 518 661 519 659 c 128,-1,54
 520 657 520 657 521 656 c 0,55,56
 522 654 522 654 525 650 c 0,57,58
 528 644 528 644 529 643 c 2,59,-1
 532 636 l 1,60,-1
 504 450 l 1,10,-1
131 763 m 1,61,-1
 134 765 l 1,62,-1
 140 771 l 1,63,-1
 150 776 l 2,64,65
 154 778 154 778 162 778 c 2,66,-1
 393 778 l 1,67,-1
 398 777 l 2,68,69
 408 774 408 774 410 772 c 128,-1,70
 412 770 412 770 416 768 c 0,71,72
 422 765 422 765 422 765 c 1,73,74
 425 762 425 762 429 759 c 128,-1,75
 433 756 433 756 439 746 c 1,76,77
 447 737 447 737 449 735 c 0,78,79
 457 723 457 723 452 717 c 1,80,81
 452 715 452 715 451 715 c 128,-1,82
 450 715 450 715 449 714 c 0,83,84
 445 709 445 709 436.5 700 c 128,-1,85
 428 691 428 691 424 687 c 2,86,-1
 414 676 l 1,87,-1
 211 676 l 1,88,-1
 131 763 l 1,61,-1
442 411 m 1,89,90
 442 408 442 408 436 401 c 0,91,92
 424 385 424 385 420 385 c 0,93,94
 419 385 419 385 418 384 c 128,-1,95
 417 383 417 383 417 382 c 0,96,97
 403 372 403 372 398 367 c 2,98,-1
 390 359 l 1,99,-1
 279 359 l 1,100,-1
 271 366 l 1,101,102
 256 382 256 382 253 382 c 0,103,104
 252 382 252 382 252 383 c 2,105,-1
 250 384 l 1,106,-1
 248 386 l 2,107,108
 246 388 246 388 240.5 392.5 c 128,-1,109
 235 397 235 397 233 400 c 0,110,111
 227 408 227 408 227 411 c 0,112,113
 227 412 227 412 235 420 c 0,114,115
 242 428 242 428 253 435 c 1,116,-1
 255 437 l 1,117,-1
 256 438 l 1,118,119
 264 443 264 443 278 454 c 2,120,-1
 287 461 l 1,121,-1
 397 461 l 1,122,-1
 404 454 l 1,123,124
 412 448 412 448 420 438 c 1,125,-1
 422 436 l 1,126,-1
 424 434 l 2,127,128
 430 428 430 428 436 420 c 0,129,130
 440 414 440 414 442 411 c 1,89,90
EndSplineSet
Validated: 1
EndChar

StartChar: A
Encoding: 65 65 32
Width: 563
Flags: W
LayerCount: 2
Fore
SplineSet
475 88 m 2,0,1
 475 86 475 86 472 77 c 0,2,3
 469 67 469 67 451 51 c 1,4,5
 445 54 445 54 437 62 c 0,6,7
 431 68 431 68 415 86 c 0,8,9
 414 86 414 86 413 87 c 2,10,-1
 412 88 l 2,11,12
 408 93 408 93 400 101.5 c 128,-1,13
 392 110 392 110 388 114 c 2,14,-1
 377 126 l 1,15,-1
 401 348 l 1,16,-1
 409 356 l 1,17,-1
 427 374 l 1,18,-1
 429 376 l 1,19,-1
 431 378 l 1,20,-1
 449 393 l 2,21,22
 457 399 457 399 460 398 c 2,23,-1
 468 394 l 2,24,25
 472 392 472 392 480 386 c 1,26,-1
 481 385 l 2,27,28
 482 384 482 384 483 384 c 0,29,30
 484 383 484 383 485 383 c 0,31,32
 495 375 495 375 499 372 c 2,33,-1
 505 367 l 1,34,-1
 475 88 l 2,0,1
504 450 m 1,35,-1
 498 445 l 2,36,37
 494 442 494 442 486 434 c 0,38,39
 485 433 485 433 484 433 c 2,40,-1
 482 431 l 2,41,42
 481 430 481 430 478.5 428 c 128,-1,43
 476 426 476 426 474 424.5 c 128,-1,44
 472 423 472 423 470 422 c 0,45,46
 464 419 464 419 462 419 c 0,47,48
 458 420 458 420 451 426 c 0,49,50
 441 434 441 434 435 440 c 2,51,-1
 434 441 l 2,52,53
 434 442 434 442 433 443 c 128,-1,54
 432 444 432 444 431 444 c 2,55,-1
 430 445 l 1,56,57
 418 459 418 459 413 464 c 2,58,-1
 406 472 l 1,59,-1
 431 668 l 1,60,-1
 441 679 l 1,61,62
 444 684 444 684 452 693 c 128,-1,63
 460 702 460 702 463 706 c 2,64,-1
 465 708 l 1,65,-1
 467 710 l 2,66,67
 471 714 471 714 478 721.5 c 128,-1,68
 485 729 485 729 488 732 c 0,69,70
 498 742 498 742 502 742 c 0,71,72
 505 742 505 742 507 740 c 0,73,74
 511 736 511 736 513 733 c 2,75,-1
 517 729 l 2,76,77
 518 728 518 728 519 726 c 128,-1,78
 520 724 520 724 521 723 c 0,79,80
 522 721 522 721 525 716.5 c 128,-1,81
 528 712 528 712 529 710 c 2,82,-1
 532 703 l 1,83,-1
 504 450 l 1,35,-1
131 763 m 1,84,85
 131 763 131 763 134 765 c 2,86,-1
 140 771 l 1,87,-1
 150 776 l 2,88,89
 154 778 154 778 162 778 c 2,90,-1
 449 778 l 1,91,-1
 454 777 l 2,92,93
 458 776 458 776 466 772 c 0,94,95
 468 771 468 771 472 768.5 c 128,-1,96
 476 766 476 766 478 765 c 0,97,98
 483 762 483 762 483 758 c 0,99,100
 483 755 483 755 474 743 c 0,101,102
 471 739 471 739 463.5 730.5 c 128,-1,103
 456 722 456 722 452 717 c 1,104,105
 452 715 452 715 451 715 c 128,-1,106
 450 715 450 715 449 714 c 0,107,108
 445 709 445 709 436.5 700 c 128,-1,109
 428 691 428 691 424 687 c 2,110,-1
 414 676 l 1,111,-1
 211 676 l 1,112,-1
 131 763 l 1,84,85
62 375 m 1,113,114
 63 374 63 374 67 378 c 2,115,-1
 76 387 l 1,116,-1
 78 389 l 2,117,118
 78 390 78 390 79 390 c 128,-1,119
 80 390 80 390 81 391 c 2,120,-1
 90 397 l 2,121,122
 94 400 94 400 96 398 c 2,123,-1
 98 397 l 2,124,125
 99 396 99 396 101.5 394 c 128,-1,126
 104 392 104 392 107 390 c 0,127,128
 113 385 113 385 126 372 c 2,129,-1
 127 371 l 2,130,131
 128 371 128 371 128 370 c 2,132,-1
 148 350 l 1,133,-1
 157 341 l 1,134,-1
 135 125 l 1,135,-1
 58 45 l 1,136,137
 57 46 57 46 56.5 47 c 128,-1,138
 56 48 56 48 54 50 c 0,139,140
 50 54 50 54 48 57 c 0,141,142
 46 59 46 59 40 72 c 0,143,144
 37 78 37 78 33 90 c 1,145,146
 31 92 31 92 31 95 c 2,147,-1
 31 99 l 1,148,-1
 62 375 l 1,113,114
95 714 m 1,149,150
 97 716 97 716 97 717 c 0,151,152
 97 720 97 720 98 721 c 0,153,154
 103 736 103 736 111 744 c 2,155,-1
 117 750 l 1,156,-1
 190 670 l 1,157,-1
 169 478 l 1,158,-1
 159 470 l 2,159,160
 148 462 148 462 135 452 c 1,161,162
 136 452 136 452 135 451 c 1,163,-1
 133 451 l 1,164,165
 123 442 123 442 110 433 c 0,166,167
 99 425 99 425 98 425 c 2,168,-1
 93 430 l 2,169,170
 88 435 88 435 86 438 c 2,171,-1
 85 440 l 1,172,-1
 84 442 l 1,173,-1
 82 444 l 1,174,-1
 73 459 l 1,175,-1
 70 465 l 1,176,-1
 95 714 l 1,149,150
442 411 m 1,177,178
 442 408 442 408 436 401 c 0,179,180
 430 393 430 393 420 385 c 0,181,182
 419 385 419 385 418 384 c 128,-1,183
 417 383 417 383 417 382 c 0,184,185
 403 372 403 372 398 367 c 2,186,-1
 390 359 l 1,187,-1
 161 359 l 1,188,-1
 153 366 l 2,189,190
 143 374 143 374 135 382 c 0,191,192
 134 382 134 382 134 383 c 2,193,-1
 132 384 l 1,194,-1
 130 386 l 2,195,196
 128 388 128 388 122.5 392.5 c 128,-1,197
 117 397 117 397 115 400 c 0,198,199
 109 408 109 408 109 411 c 0,200,201
 109 412 109 412 117 420 c 0,202,203
 124 428 124 428 135 435 c 1,204,-1
 137 437 l 2,205,206
 138 437 138 437 138 438 c 0,207,208
 149 445 149 445 160 454 c 2,209,-1
 169 461 l 1,210,-1
 397 461 l 1,211,-1
 404 454 l 1,212,213
 412 448 412 448 420 438 c 1,214,-1
 422 436 l 1,215,-1
 424 434 l 2,216,217
 430 428 430 428 436 420 c 0,218,219
 440 414 440 414 442 411 c 1,177,178
EndSplineSet
Validated: 1
EndChar

StartChar: B
Encoding: 66 66 33
Width: 563
Flags: W
LayerCount: 2
Fore
SplineSet
475 149 m 2,0,1
 474 142 474 142 472 138 c 0,2,3
 468 130 468 130 454 112 c 1,4,5
 454 112 454 112 440 98 c 1,6,7
 421 86 421 86 415 86 c 0,8,9
 414 86 414 86 413 87 c 2,10,-1
 412 88 l 2,11,12
 408 93 408 93 400 101.5 c 128,-1,13
 392 110 392 110 388 114 c 2,14,-1
 377 126 l 1,15,-1
 401 348 l 1,16,-1
 409 356 l 1,17,-1
 427 374 l 1,18,-1
 429 376 l 1,19,-1
 431 378 l 1,20,-1
 449 393 l 2,21,22
 457 400 457 400 460 398 c 2,23,-1
 468 394 l 2,24,25
 472 392 472 392 480 386 c 1,26,-1
 481 385 l 2,27,28
 482 384 482 384 483 384 c 0,29,30
 484 383 484 383 485 383 c 0,31,32
 495 375 495 375 499 372 c 2,33,-1
 505 367 l 1,34,-1
 475 149 l 2,0,1
504 450 m 1,35,-1
 498 445 l 2,36,37
 492 440 492 440 486 434 c 0,38,39
 485 433 485 433 484 433 c 2,40,-1
 482 431 l 2,41,42
 481 430 481 430 478.5 428 c 128,-1,43
 476 426 476 426 474 424.5 c 128,-1,44
 472 423 472 423 470 422 c 0,45,46
 464 419 464 419 462 419 c 0,47,48
 458 420 458 420 451 426 c 0,49,50
 441 434 441 434 435 440 c 2,51,-1
 434 441 l 2,52,53
 434 442 434 442 433 443 c 128,-1,54
 432 444 432 444 431 444 c 2,55,-1
 430 445 l 1,56,57
 418 459 418 459 413 464 c 2,58,-1
 406 472 l 1,59,-1
 431 668 l 1,60,-1
 441 679 l 1,61,62
 444 684 444 684 452 693 c 128,-1,63
 460 702 460 702 463 706 c 2,64,-1
 465 708 l 1,65,-1
 467 710 l 2,66,67
 473 716 473 716 484 703 c 0,68,69
 494 692 494 692 495 690 c 0,70,71
 500 685 500 685 504 678 c 0,72,73
 505 675 505 675 507 673 c 0,74,75
 511 669 511 669 513 666 c 2,76,-1
 517 662 l 2,77,78
 518 661 518 661 519 659 c 128,-1,79
 520 657 520 657 521 656 c 0,80,81
 522 654 522 654 525 650 c 0,82,83
 528 644 528 644 529 643 c 2,84,-1
 532 636 l 1,85,-1
 504 450 l 1,35,-1
131 763 m 1,86,87
 131 763 131 763 134 765 c 2,88,-1
 140 771 l 1,89,-1
 150 776 l 2,90,91
 154 778 154 778 162 778 c 2,92,-1
 393 778 l 1,93,-1
 398 777 l 2,94,95
 408 774 408 774 410 772 c 128,-1,96
 412 770 412 770 416 768 c 0,97,98
 422 765 422 765 422 765 c 1,99,100
 425 762 425 762 429 759 c 128,-1,101
 433 756 433 756 439 746 c 1,102,103
 447 737 447 737 449 735 c 0,104,105
 457 723 457 723 452 717 c 1,106,107
 452 715 452 715 451 715 c 128,-1,108
 450 715 450 715 449 714 c 0,109,110
 445 709 445 709 436.5 700 c 128,-1,111
 428 691 428 691 424 687 c 2,112,-1
 414 676 l 1,113,-1
 211 676 l 1,114,-1
 131 763 l 1,86,87
406 68 m 1,115,-1
 372 33 l 2,116,117
 368 29 368 29 365 27 c 2,118,-1
 361 23 l 1,119,-1
 357 19 l 1,120,121
 357 19 357 19 355 18 c 128,-1,122
 353 17 353 17 352 17 c 0,123,124
 350 16 350 16 348 16 c 2,125,-1
 109 16 l 2,126,127
 101 16 101 16 95 19 c 2,128,-1
 83 25 l 2,129,130
 81 26 81 26 78 28 c 128,-1,131
 75 30 75 30 74 31 c 2,132,-1
 71 34 l 1,133,-1
 145 112 l 1,134,-1
 367 112 l 1,135,-1
 406 68 l 1,115,-1
62 375 m 1,136,137
 63 374 63 374 67 378 c 2,138,-1
 76 387 l 1,139,-1
 78 389 l 2,140,141
 78 390 78 390 79 390 c 128,-1,142
 80 390 80 390 81 391 c 2,143,-1
 90 397 l 2,144,145
 94 400 94 400 96 398 c 2,146,-1
 98 397 l 2,147,148
 99 396 99 396 101.5 394 c 128,-1,149
 104 392 104 392 107 390 c 0,150,151
 113 385 113 385 126 372 c 2,152,-1
 127 371 l 2,153,154
 128 371 128 371 128 370 c 2,155,-1
 148 350 l 1,156,-1
 157 341 l 1,157,-1
 135 125 l 1,158,-1
 58 45 l 1,159,160
 57 46 57 46 56.5 47 c 128,-1,161
 56 48 56 48 54 50 c 0,162,163
 50 54 50 54 48 57 c 0,164,165
 46 59 46 59 40 72 c 0,166,167
 37 78 37 78 33 90 c 1,168,169
 31 92 31 92 31 95 c 2,170,-1
 31 99 l 1,171,-1
 62 375 l 1,136,137
95 714 m 1,172,173
 97 716 97 716 97 717 c 0,174,175
 97 720 97 720 98 721 c 0,176,177
 103 736 103 736 111 744 c 2,178,-1
 117 750 l 1,179,-1
 190 670 l 1,180,-1
 169 478 l 1,181,-1
 159 470 l 2,182,183
 148 462 148 462 135 452 c 1,184,185
 136 452 136 452 135 451 c 1,186,-1
 133 451 l 1,187,188
 123 442 123 442 110 433 c 0,189,190
 99 425 99 425 98 425 c 2,191,-1
 93 430 l 2,192,193
 88 435 88 435 86 438 c 2,194,-1
 85 440 l 1,195,-1
 84 442 l 1,196,-1
 82 444 l 1,197,-1
 73 459 l 1,198,-1
 70 465 l 1,199,-1
 95 714 l 1,172,173
442 411 m 1,200,201
 442 408 442 408 436 401 c 0,202,203
 430 393 430 393 420 385 c 0,204,205
 419 385 419 385 418 384 c 128,-1,206
 417 383 417 383 417 382 c 0,207,208
 403 372 403 372 398 367 c 2,209,-1
 390 359 l 1,210,-1
 161 359 l 1,211,-1
 153 366 l 2,212,213
 143 374 143 374 135 382 c 0,214,215
 134 382 134 382 134 383 c 2,216,-1
 132 384 l 1,217,-1
 130 386 l 2,218,219
 128 388 128 388 122.5 392.5 c 128,-1,220
 117 397 117 397 115 400 c 0,221,222
 109 408 109 408 109 411 c 0,223,224
 109 412 109 412 117 420 c 0,225,226
 124 428 124 428 135 435 c 1,227,-1
 137 437 l 2,228,229
 138 437 138 437 138 438 c 0,230,231
 149 445 149 445 160 454 c 2,232,-1
 169 461 l 1,233,-1
 397 461 l 1,234,-1
 404 454 l 1,235,236
 412 448 412 448 420 438 c 1,237,-1
 422 436 l 1,238,-1
 424 434 l 2,239,240
 430 428 430 428 436 420 c 0,241,242
 440 414 440 414 442 411 c 1,200,201
EndSplineSet
Validated: 1
EndChar

StartChar: C
Encoding: 67 67 34
Width: 563
Flags: W
LayerCount: 2
Fore
SplineSet
131 763 m 1,0,1
 131 763 131 763 134 765 c 2,2,-1
 140 771 l 1,3,-1
 150 776 l 2,4,5
 154 778 154 778 162 778 c 2,6,-1
 449 778 l 1,7,-1
 454 777 l 2,8,9
 458 776 458 776 466 772 c 0,10,11
 468 771 468 771 472 768.5 c 128,-1,12
 476 766 476 766 478 765 c 0,13,14
 483 762 483 762 483 758 c 0,15,16
 483 755 483 755 474 743 c 0,17,18
 471 739 471 739 463.5 730.5 c 128,-1,19
 456 722 456 722 452 717 c 1,20,21
 452 715 452 715 451 715 c 128,-1,22
 450 715 450 715 449 714 c 0,23,24
 445 709 445 709 436.5 700 c 128,-1,25
 428 691 428 691 424 687 c 2,26,-1
 414 676 l 1,27,-1
 211 676 l 1,28,-1
 131 763 l 1,0,1
438 36 m 1,29,30
 438 36 438 36 436 33 c 0,31,32
 432 29 432 29 429 27 c 2,33,-1
 425 23 l 1,34,-1
 421 19 l 2,35,36
 420 18 420 18 419 18 c 0,37,38
 417 17 417 17 416 17 c 0,39,40
 414 16 414 16 412 16 c 2,41,-1
 109 16 l 2,42,43
 101 16 101 16 95 19 c 2,44,-1
 83 25 l 2,45,46
 81 26 81 26 78 28 c 128,-1,47
 75 30 75 30 74 31 c 2,48,-1
 71 34 l 1,49,-1
 145 112 l 1,50,-1
 367 112 l 1,51,-1
 438 36 l 1,29,30
62 375 m 1,52,53
 63 374 63 374 67 378 c 2,54,-1
 76 387 l 1,55,-1
 78 389 l 2,56,57
 78 390 78 390 79 390 c 128,-1,58
 80 390 80 390 81 391 c 2,59,-1
 90 397 l 2,60,61
 94 400 94 400 96 398 c 2,62,-1
 98 397 l 2,63,64
 99 396 99 396 101.5 394 c 128,-1,65
 104 392 104 392 107 390 c 0,66,67
 113 385 113 385 126 372 c 2,68,-1
 127 371 l 2,69,70
 128 371 128 371 128 370 c 2,71,-1
 148 350 l 1,72,-1
 157 341 l 1,73,-1
 135 125 l 1,74,-1
 58 45 l 1,75,76
 57 46 57 46 56.5 47 c 128,-1,77
 56 48 56 48 54 50 c 0,78,79
 50 54 50 54 48 57 c 0,80,81
 46 59 46 59 40 72 c 0,82,83
 37 78 37 78 33 90 c 1,84,85
 31 92 31 92 31 95 c 2,86,-1
 31 99 l 1,87,-1
 62 375 l 1,52,53
95 714 m 1,88,89
 97 716 97 716 97 717 c 0,90,91
 97 720 97 720 98 721 c 0,92,93
 103 736 103 736 111 744 c 2,94,-1
 117 750 l 1,95,-1
 190 670 l 1,96,-1
 169 478 l 1,97,-1
 159 470 l 2,98,99
 148 462 148 462 135 452 c 1,100,101
 136 452 136 452 135 451 c 1,102,-1
 133 451 l 1,103,104
 123 442 123 442 110 433 c 0,105,106
 99 425 99 425 98 425 c 2,107,-1
 93 430 l 2,108,109
 88 435 88 435 86 438 c 2,110,-1
 85 440 l 1,111,-1
 84 442 l 1,112,-1
 82 444 l 1,113,-1
 73 459 l 1,114,-1
 70 465 l 1,115,-1
 95 714 l 1,88,89
EndSplineSet
Validated: 1
EndChar

StartChar: D
Encoding: 68 68 35
Width: 563
Flags: W
LayerCount: 2
Fore
SplineSet
475 149 m 2,0,1
 474 142 474 142 472 138 c 0,2,3
 468 130 468 130 454 112 c 1,4,5
 454 112 454 112 440 98 c 1,6,7
 421 86 421 86 415 86 c 0,8,9
 414 86 414 86 413 87 c 2,10,-1
 412 88 l 2,11,12
 408 93 408 93 400 101.5 c 128,-1,13
 392 110 392 110 388 114 c 2,14,-1
 377 126 l 1,15,-1
 401 348 l 1,16,-1
 409 356 l 1,17,-1
 427 374 l 1,18,-1
 429 376 l 1,19,-1
 431 378 l 1,20,-1
 449 393 l 2,21,22
 457 400 457 400 460 398 c 2,23,-1
 468 394 l 2,24,25
 472 392 472 392 480 386 c 1,26,-1
 481 385 l 2,27,28
 482 384 482 384 483 384 c 0,29,30
 484 383 484 383 485 383 c 0,31,32
 495 375 495 375 499 372 c 2,33,-1
 505 367 l 1,34,-1
 475 149 l 2,0,1
504 450 m 1,35,-1
 498 445 l 2,36,37
 492 440 492 440 486 434 c 0,38,39
 485 433 485 433 484 433 c 2,40,-1
 482 431 l 2,41,42
 481 430 481 430 478.5 428 c 128,-1,43
 476 426 476 426 474 424.5 c 128,-1,44
 472 423 472 423 470 422 c 0,45,46
 464 419 464 419 462 419 c 0,47,48
 458 420 458 420 451 426 c 0,49,50
 441 434 441 434 435 440 c 2,51,-1
 434 441 l 2,52,53
 434 442 434 442 433 443 c 128,-1,54
 432 444 432 444 431 444 c 2,55,-1
 430 445 l 1,56,57
 418 459 418 459 413 464 c 2,58,-1
 406 472 l 1,59,-1
 431 668 l 1,60,-1
 441 679 l 1,61,62
 444 684 444 684 452 693 c 128,-1,63
 460 702 460 702 463 706 c 2,64,-1
 465 708 l 1,65,-1
 467 710 l 2,66,67
 473 716 473 716 484 703 c 0,68,69
 494 692 494 692 495 690 c 0,70,71
 500 685 500 685 504 678 c 0,72,73
 505 675 505 675 507 673 c 0,74,75
 511 669 511 669 513 666 c 2,76,-1
 517 662 l 2,77,78
 518 661 518 661 519 659 c 128,-1,79
 520 657 520 657 521 656 c 0,80,81
 522 654 522 654 525 650 c 0,82,83
 528 644 528 644 529 643 c 2,84,-1
 532 636 l 1,85,-1
 504 450 l 1,35,-1
131 763 m 1,86,87
 131 763 131 763 134 765 c 2,88,-1
 140 771 l 1,89,-1
 150 776 l 2,90,91
 154 778 154 778 162 778 c 2,92,-1
 393 778 l 1,93,-1
 398 777 l 2,94,95
 408 774 408 774 410 772 c 128,-1,96
 412 770 412 770 416 768 c 0,97,98
 422 765 422 765 422 765 c 1,99,100
 425 762 425 762 429 759 c 128,-1,101
 433 756 433 756 439 746 c 1,102,103
 447 737 447 737 449 735 c 0,104,105
 457 723 457 723 452 717 c 1,106,107
 452 715 452 715 451 715 c 128,-1,108
 450 715 450 715 449 714 c 0,109,110
 445 709 445 709 436.5 700 c 128,-1,111
 428 691 428 691 424 687 c 2,112,-1
 414 676 l 1,113,-1
 211 676 l 1,114,-1
 131 763 l 1,86,87
406 68 m 1,115,-1
 372 33 l 2,116,117
 368 29 368 29 365 27 c 2,118,-1
 361 23 l 1,119,-1
 357 19 l 1,120,121
 357 19 357 19 355 18 c 128,-1,122
 353 17 353 17 352 17 c 0,123,124
 350 16 350 16 348 16 c 2,125,-1
 109 16 l 2,126,127
 101 16 101 16 95 19 c 2,128,-1
 83 25 l 2,129,130
 81 26 81 26 78 28 c 128,-1,131
 75 30 75 30 74 31 c 2,132,-1
 71 34 l 1,133,-1
 145 112 l 1,134,-1
 367 112 l 1,135,-1
 406 68 l 1,115,-1
62 375 m 1,136,137
 63 374 63 374 67 378 c 2,138,-1
 76 387 l 1,139,-1
 78 389 l 2,140,141
 78 390 78 390 79 390 c 128,-1,142
 80 390 80 390 81 391 c 2,143,-1
 90 397 l 2,144,145
 94 400 94 400 96 398 c 2,146,-1
 98 397 l 2,147,148
 99 396 99 396 101.5 394 c 128,-1,149
 104 392 104 392 107 390 c 0,150,151
 113 385 113 385 126 372 c 2,152,-1
 127 371 l 2,153,154
 128 371 128 371 128 370 c 2,155,-1
 148 350 l 1,156,-1
 157 341 l 1,157,-1
 135 125 l 1,158,-1
 58 45 l 1,159,160
 57 46 57 46 56.5 47 c 128,-1,161
 56 48 56 48 54 50 c 0,162,163
 50 54 50 54 48 57 c 0,164,165
 46 59 46 59 40 72 c 0,166,167
 37 78 37 78 33 90 c 1,168,169
 31 92 31 92 31 95 c 2,170,-1
 31 99 l 1,171,-1
 62 375 l 1,136,137
95 714 m 1,172,173
 97 716 97 716 97 717 c 0,174,175
 97 720 97 720 98 721 c 0,176,177
 103 736 103 736 111 744 c 2,178,-1
 117 750 l 1,179,-1
 190 670 l 1,180,-1
 169 478 l 1,181,-1
 159 470 l 2,182,183
 148 462 148 462 135 452 c 1,184,185
 136 452 136 452 135 451 c 1,186,-1
 133 451 l 1,187,188
 123 442 123 442 110 433 c 0,189,190
 99 425 99 425 98 425 c 2,191,-1
 93 430 l 2,192,193
 88 435 88 435 86 438 c 2,194,-1
 85 440 l 1,195,-1
 84 442 l 1,196,-1
 82 444 l 1,197,-1
 73 459 l 1,198,-1
 70 465 l 1,199,-1
 95 714 l 1,172,173
EndSplineSet
Validated: 1
EndChar

StartChar: E
Encoding: 69 69 36
Width: 563
Flags: W
LayerCount: 2
Fore
SplineSet
131 763 m 1,0,1
 131 763 131 763 134 765 c 2,2,-1
 140 771 l 1,3,-1
 150 776 l 2,4,5
 154 778 154 778 162 778 c 2,6,-1
 449 778 l 1,7,-1
 454 777 l 2,8,9
 458 776 458 776 466 772 c 0,10,11
 468 771 468 771 472 768.5 c 128,-1,12
 476 766 476 766 478 765 c 0,13,14
 483 762 483 762 483 758 c 0,15,16
 483 755 483 755 474 743 c 0,17,18
 471 739 471 739 463.5 730.5 c 128,-1,19
 456 722 456 722 452 717 c 1,20,21
 452 715 452 715 451 715 c 128,-1,22
 450 715 450 715 449 714 c 0,23,24
 445 709 445 709 436.5 700 c 128,-1,25
 428 691 428 691 424 687 c 2,26,-1
 414 676 l 1,27,-1
 211 676 l 1,28,-1
 131 763 l 1,0,1
438 36 m 1,29,30
 438 36 438 36 436 33 c 0,31,32
 432 29 432 29 429 27 c 2,33,-1
 425 23 l 1,34,-1
 421 19 l 2,35,36
 420 18 420 18 419 18 c 0,37,38
 417 17 417 17 416 17 c 0,39,40
 414 16 414 16 412 16 c 2,41,-1
 109 16 l 2,42,43
 101 16 101 16 95 19 c 2,44,-1
 83 25 l 2,45,46
 81 26 81 26 78 28 c 128,-1,47
 75 30 75 30 74 31 c 2,48,-1
 71 34 l 1,49,-1
 145 112 l 1,50,-1
 367 112 l 1,51,-1
 438 36 l 1,29,30
62 375 m 1,52,53
 63 374 63 374 67 378 c 2,54,-1
 76 387 l 1,55,-1
 78 389 l 2,56,57
 78 390 78 390 79 390 c 128,-1,58
 80 390 80 390 81 391 c 2,59,-1
 90 397 l 2,60,61
 94 400 94 400 96 398 c 2,62,-1
 98 397 l 2,63,64
 99 396 99 396 101.5 394 c 128,-1,65
 104 392 104 392 107 390 c 0,66,67
 113 385 113 385 126 372 c 2,68,-1
 127 371 l 2,69,70
 128 371 128 371 128 370 c 2,71,-1
 148 350 l 1,72,-1
 157 341 l 1,73,-1
 135 125 l 1,74,-1
 58 45 l 1,75,76
 57 46 57 46 56.5 47 c 128,-1,77
 56 48 56 48 54 50 c 0,78,79
 50 54 50 54 48 57 c 0,80,81
 46 59 46 59 40 72 c 0,82,83
 37 78 37 78 33 90 c 1,84,85
 31 92 31 92 31 95 c 2,86,-1
 31 99 l 1,87,-1
 62 375 l 1,52,53
95 714 m 1,88,89
 97 716 97 716 97 717 c 0,90,91
 97 720 97 720 98 721 c 0,92,93
 103 736 103 736 111 744 c 2,94,-1
 117 750 l 1,95,-1
 190 670 l 1,96,-1
 169 478 l 1,97,-1
 159 470 l 2,98,99
 148 462 148 462 135 452 c 1,100,101
 136 452 136 452 135 451 c 1,102,-1
 133 451 l 1,103,104
 123 442 123 442 110 433 c 0,105,106
 99 425 99 425 98 425 c 2,107,-1
 93 430 l 2,108,109
 88 435 88 435 86 438 c 2,110,-1
 85 440 l 1,111,-1
 84 442 l 1,112,-1
 82 444 l 1,113,-1
 73 459 l 1,114,-1
 70 465 l 1,115,-1
 95 714 l 1,88,89
442 411 m 1,116,117
 442 408 442 408 436 401 c 0,118,119
 430 393 430 393 420 385 c 0,120,121
 419 385 419 385 418 384 c 128,-1,122
 417 383 417 383 417 382 c 0,123,124
 403 372 403 372 398 367 c 2,125,-1
 390 359 l 1,126,-1
 161 359 l 1,127,-1
 153 366 l 2,128,129
 143 374 143 374 135 382 c 0,130,131
 134 382 134 382 134 383 c 2,132,-1
 132 384 l 1,133,-1
 130 386 l 2,134,135
 128 388 128 388 122.5 392.5 c 128,-1,136
 117 397 117 397 115 400 c 0,137,138
 109 408 109 408 109 411 c 0,139,140
 109 412 109 412 117 420 c 0,141,142
 124 428 124 428 135 435 c 1,143,-1
 137 437 l 2,144,145
 138 437 138 437 138 438 c 0,146,147
 149 445 149 445 160 454 c 2,148,-1
 169 461 l 1,149,-1
 397 461 l 1,150,-1
 404 454 l 1,151,152
 412 448 412 448 420 438 c 1,153,-1
 422 436 l 1,154,-1
 424 434 l 2,155,156
 430 428 430 428 436 420 c 0,157,158
 440 414 440 414 442 411 c 1,116,117
EndSplineSet
Validated: 1
EndChar

StartChar: F
Encoding: 70 70 37
Width: 563
Flags: W
LayerCount: 2
Fore
SplineSet
131 763 m 1,0,1
 131 763 131 763 134 765 c 2,2,-1
 140 771 l 1,3,-1
 150 776 l 2,4,5
 154 778 154 778 162 778 c 2,6,-1
 449 778 l 1,7,-1
 454 777 l 2,8,9
 458 776 458 776 466 772 c 0,10,11
 468 771 468 771 472 768.5 c 128,-1,12
 476 766 476 766 478 765 c 0,13,14
 483 762 483 762 483 758 c 0,15,16
 483 755 483 755 474 743 c 0,17,18
 471 739 471 739 463.5 730.5 c 128,-1,19
 456 722 456 722 452 717 c 1,20,21
 452 715 452 715 451 715 c 128,-1,22
 450 715 450 715 449 714 c 0,23,24
 445 709 445 709 436.5 700 c 128,-1,25
 428 691 428 691 424 687 c 2,26,-1
 414 676 l 1,27,-1
 211 676 l 1,28,-1
 131 763 l 1,0,1
62 375 m 1,29,30
 63 374 63 374 67 378 c 2,31,-1
 76 387 l 1,32,-1
 78 389 l 2,33,34
 78 390 78 390 79 390 c 128,-1,35
 80 390 80 390 81 391 c 2,36,-1
 90 397 l 2,37,38
 94 400 94 400 96 398 c 2,39,-1
 98 397 l 2,40,41
 99 396 99 396 101.5 394 c 128,-1,42
 104 392 104 392 107 390 c 0,43,44
 113 385 113 385 126 372 c 2,45,-1
 127 371 l 2,46,47
 128 371 128 371 128 370 c 2,48,-1
 148 350 l 1,49,-1
 157 341 l 1,50,-1
 135 125 l 1,51,-1
 58 45 l 1,52,53
 57 46 57 46 56.5 47 c 128,-1,54
 56 48 56 48 54 50 c 0,55,56
 50 54 50 54 48 57 c 0,57,58
 46 59 46 59 40 72 c 0,59,60
 37 78 37 78 33 90 c 1,61,62
 31 92 31 92 31 95 c 2,63,-1
 31 99 l 1,64,-1
 62 375 l 1,29,30
95 714 m 1,65,66
 97 716 97 716 97 717 c 0,67,68
 97 720 97 720 98 721 c 0,69,70
 103 736 103 736 111 744 c 2,71,-1
 117 750 l 1,72,-1
 190 670 l 1,73,-1
 169 478 l 1,74,-1
 159 470 l 2,75,76
 148 462 148 462 135 452 c 1,77,78
 136 452 136 452 135 451 c 1,79,-1
 133 451 l 1,80,81
 123 442 123 442 110 433 c 0,82,83
 99 425 99 425 98 425 c 2,84,-1
 93 430 l 2,85,86
 88 435 88 435 86 438 c 2,87,-1
 85 440 l 1,88,-1
 84 442 l 1,89,-1
 82 444 l 1,90,-1
 73 459 l 1,91,-1
 70 465 l 1,92,-1
 95 714 l 1,65,66
442 411 m 1,93,94
 442 408 442 408 436 401 c 0,95,96
 430 393 430 393 420 385 c 0,97,98
 419 385 419 385 418 384 c 128,-1,99
 417 383 417 383 417 382 c 0,100,101
 403 372 403 372 398 367 c 2,102,-1
 390 359 l 1,103,-1
 161 359 l 1,104,-1
 153 366 l 2,105,106
 143 374 143 374 135 382 c 0,107,108
 134 382 134 382 134 383 c 2,109,-1
 132 384 l 1,110,-1
 130 386 l 2,111,112
 128 388 128 388 122.5 392.5 c 128,-1,113
 117 397 117 397 115 400 c 0,114,115
 109 408 109 408 109 411 c 0,116,117
 109 412 109 412 117 420 c 0,118,119
 124 428 124 428 135 435 c 1,120,-1
 137 437 l 2,121,122
 138 437 138 437 138 438 c 0,123,124
 149 445 149 445 160 454 c 2,125,-1
 169 461 l 1,126,-1
 397 461 l 1,127,-1
 404 454 l 1,128,129
 412 448 412 448 420 438 c 1,130,-1
 422 436 l 1,131,-1
 424 434 l 2,132,133
 430 428 430 428 436 420 c 0,134,135
 440 414 440 414 442 411 c 1,93,94
EndSplineSet
Validated: 1
EndChar

StartChar: G
Encoding: 71 71 38
Width: 563
Flags: W
LayerCount: 2
Fore
SplineSet
475 88 m 2,0,1
 475 86 475 86 472 77 c 0,2,3
 469 67 469 67 451 51 c 1,4,5
 445 54 445 54 437 62 c 0,6,7
 431 68 431 68 415 86 c 0,8,9
 414 86 414 86 413 87 c 2,10,-1
 412 88 l 2,11,12
 408 93 408 93 400 101.5 c 128,-1,13
 392 110 392 110 388 114 c 2,14,-1
 377 126 l 1,15,-1
 401 348 l 1,16,-1
 409 356 l 1,17,-1
 427 374 l 1,18,-1
 429 376 l 1,19,-1
 431 378 l 1,20,-1
 449 393 l 2,21,22
 457 399 457 399 460 398 c 2,23,-1
 468 394 l 2,24,25
 472 392 472 392 480 386 c 1,26,-1
 481 385 l 2,27,28
 482 384 482 384 483 384 c 0,29,30
 484 383 484 383 485 383 c 0,31,32
 495 375 495 375 499 372 c 2,33,-1
 505 367 l 1,34,-1
 475 88 l 2,0,1
131 763 m 1,35,36
 131 763 131 763 134 765 c 2,37,-1
 140 771 l 1,38,-1
 150 776 l 2,39,40
 154 778 154 778 162 778 c 2,41,-1
 449 778 l 1,42,-1
 454 777 l 2,43,44
 458 776 458 776 466 772 c 0,45,46
 468 771 468 771 472 768.5 c 128,-1,47
 476 766 476 766 478 765 c 0,48,49
 483 762 483 762 483 758 c 0,50,51
 483 755 483 755 474 743 c 0,52,53
 471 739 471 739 463.5 730.5 c 128,-1,54
 456 722 456 722 452 717 c 1,55,56
 452 715 452 715 451 715 c 128,-1,57
 450 715 450 715 449 714 c 0,58,59
 445 709 445 709 436.5 700 c 128,-1,60
 428 691 428 691 424 687 c 2,61,-1
 414 676 l 1,62,-1
 211 676 l 1,63,-1
 131 763 l 1,35,36
438 36 m 1,64,65
 438 36 438 36 436 33 c 0,66,67
 432 29 432 29 429 27 c 2,68,-1
 425 23 l 1,69,-1
 421 19 l 2,70,71
 420 18 420 18 419 18 c 0,72,73
 417 17 417 17 416 17 c 0,74,75
 414 16 414 16 412 16 c 2,76,-1
 109 16 l 2,77,78
 101 16 101 16 95 19 c 2,79,-1
 83 25 l 2,80,81
 81 26 81 26 78 28 c 128,-1,82
 75 30 75 30 74 31 c 2,83,-1
 71 34 l 1,84,-1
 145 112 l 1,85,-1
 367 112 l 1,86,-1
 438 36 l 1,64,65
62 375 m 1,87,88
 63 374 63 374 67 378 c 2,89,-1
 76 387 l 1,90,-1
 78 389 l 2,91,92
 78 390 78 390 79 390 c 128,-1,93
 80 390 80 390 81 391 c 2,94,-1
 90 397 l 2,95,96
 94 400 94 400 96 398 c 2,97,-1
 98 397 l 2,98,99
 99 396 99 396 101.5 394 c 128,-1,100
 104 392 104 392 107 390 c 0,101,102
 113 385 113 385 126 372 c 2,103,-1
 127 371 l 2,104,105
 128 371 128 371 128 370 c 2,106,-1
 148 350 l 1,107,-1
 157 341 l 1,108,-1
 135 125 l 1,109,-1
 58 45 l 1,110,111
 57 46 57 46 56.5 47 c 128,-1,112
 56 48 56 48 54 50 c 0,113,114
 50 54 50 54 48 57 c 0,115,116
 46 59 46 59 40 72 c 0,117,118
 37 78 37 78 33 90 c 1,119,120
 31 92 31 92 31 95 c 2,121,-1
 31 99 l 1,122,-1
 62 375 l 1,87,88
95 714 m 1,123,124
 97 716 97 716 97 717 c 0,125,126
 97 720 97 720 98 721 c 0,127,128
 103 736 103 736 111 744 c 2,129,-1
 117 750 l 1,130,-1
 190 670 l 1,131,-1
 169 478 l 1,132,-1
 159 470 l 2,133,134
 148 462 148 462 135 452 c 1,135,136
 136 452 136 452 135 451 c 1,137,-1
 133 451 l 1,138,139
 123 442 123 442 110 433 c 0,140,141
 99 425 99 425 98 425 c 2,142,-1
 93 430 l 2,143,144
 88 435 88 435 86 438 c 2,145,-1
 85 440 l 1,146,-1
 84 442 l 1,147,-1
 82 444 l 1,148,-1
 73 459 l 1,149,-1
 70 465 l 1,150,-1
 95 714 l 1,123,124
442 411 m 1,151,152
 442 408 442 408 436 401 c 0,153,154
 424 385 424 385 420 385 c 0,155,156
 419 385 419 385 418 384 c 128,-1,157
 417 383 417 383 417 382 c 0,158,159
 403 372 403 372 398 367 c 2,160,-1
 390 359 l 1,161,-1
 320 359 l 1,162,-1
 312 366 l 1,163,164
 297 382 297 382 294 382 c 0,165,166
 293 382 293 382 293 383 c 2,167,-1
 291 384 l 1,168,-1
 289 386 l 2,169,170
 286 389 286 389 281 393 c 0,171,172
 277 396 277 396 274 400 c 0,173,174
 268 408 268 408 268 411 c 0,175,176
 268 412 268 412 276 420 c 0,177,178
 285 429 285 429 294 435 c 1,179,-1
 296 437 l 1,180,-1
 297 438 l 1,181,182
 305 443 305 443 319 454 c 2,183,-1
 328 461 l 1,184,-1
 397 461 l 1,185,-1
 404 454 l 1,186,187
 412 448 412 448 420 438 c 1,188,-1
 422 436 l 1,189,-1
 424 434 l 2,190,191
 430 428 430 428 436 420 c 0,192,193
 440 414 440 414 442 411 c 1,151,152
EndSplineSet
Validated: 1
EndChar

StartChar: H
Encoding: 72 72 39
Width: 563
Flags: W
LayerCount: 2
Fore
SplineSet
475 88 m 2,0,1
 475 86 475 86 472 77 c 0,2,3
 469 67 469 67 451 51 c 1,4,5
 445 54 445 54 437 62 c 0,6,7
 431 68 431 68 415 86 c 0,8,9
 414 86 414 86 413 87 c 2,10,-1
 412 88 l 2,11,12
 408 93 408 93 400 101.5 c 128,-1,13
 392 110 392 110 388 114 c 2,14,-1
 377 126 l 1,15,-1
 401 348 l 1,16,-1
 409 356 l 1,17,-1
 427 374 l 1,18,-1
 429 376 l 1,19,-1
 431 378 l 1,20,-1
 449 393 l 2,21,22
 457 399 457 399 460 398 c 2,23,-1
 468 394 l 2,24,25
 472 392 472 392 480 386 c 1,26,-1
 481 385 l 2,27,28
 482 384 482 384 483 384 c 0,29,30
 484 383 484 383 485 383 c 0,31,32
 495 375 495 375 499 372 c 2,33,-1
 505 367 l 1,34,-1
 475 88 l 2,0,1
504 450 m 1,35,-1
 498 445 l 2,36,37
 494 442 494 442 486 434 c 0,38,39
 485 433 485 433 484 433 c 2,40,-1
 482 431 l 2,41,42
 481 430 481 430 478.5 428 c 128,-1,43
 476 426 476 426 474 424.5 c 128,-1,44
 472 423 472 423 470 422 c 0,45,46
 464 419 464 419 462 419 c 0,47,48
 458 420 458 420 451 426 c 0,49,50
 441 434 441 434 435 440 c 2,51,-1
 434 441 l 2,52,53
 434 442 434 442 433 443 c 128,-1,54
 432 444 432 444 431 444 c 2,55,-1
 430 445 l 1,56,57
 418 459 418 459 413 464 c 2,58,-1
 406 472 l 1,59,-1
 431 668 l 1,60,-1
 441 679 l 1,61,62
 444 684 444 684 452 693 c 128,-1,63
 460 702 460 702 463 706 c 2,64,-1
 465 708 l 1,65,-1
 467 710 l 2,66,67
 471 714 471 714 478 721.5 c 128,-1,68
 485 729 485 729 488 732 c 0,69,70
 498 742 498 742 502 742 c 0,71,72
 505 742 505 742 507 740 c 0,73,74
 511 736 511 736 513 733 c 2,75,-1
 517 729 l 2,76,77
 518 728 518 728 519 726 c 128,-1,78
 520 724 520 724 521 723 c 0,79,80
 522 721 522 721 525 716.5 c 128,-1,81
 528 712 528 712 529 710 c 2,82,-1
 532 703 l 1,83,-1
 504 450 l 1,35,-1
62 375 m 1,84,85
 63 374 63 374 67 378 c 2,86,-1
 76 387 l 1,87,-1
 78 389 l 2,88,89
 78 390 78 390 79 390 c 128,-1,90
 80 390 80 390 81 391 c 2,91,-1
 90 397 l 2,92,93
 94 400 94 400 96 398 c 2,94,-1
 98 397 l 2,95,96
 99 396 99 396 101.5 394 c 128,-1,97
 104 392 104 392 107 390 c 0,98,99
 113 385 113 385 126 372 c 2,100,-1
 127 371 l 2,101,102
 128 371 128 371 128 370 c 2,103,-1
 148 350 l 1,104,-1
 157 341 l 1,105,-1
 135 125 l 1,106,-1
 58 45 l 1,107,108
 57 46 57 46 56.5 47 c 128,-1,109
 56 48 56 48 54 50 c 0,110,111
 50 54 50 54 48 57 c 0,112,113
 46 59 46 59 40 72 c 0,114,115
 37 78 37 78 33 90 c 1,116,117
 31 92 31 92 31 95 c 2,118,-1
 31 99 l 1,119,-1
 62 375 l 1,84,85
95 714 m 1,120,121
 97 716 97 716 97 717 c 0,122,123
 97 720 97 720 98 721 c 0,124,125
 103 736 103 736 111 744 c 2,126,-1
 117 750 l 1,127,-1
 190 670 l 1,128,-1
 169 478 l 1,129,-1
 159 470 l 2,130,131
 148 462 148 462 135 452 c 1,132,133
 136 452 136 452 135 451 c 1,134,-1
 133 451 l 1,135,136
 123 442 123 442 110 433 c 0,137,138
 99 425 99 425 98 425 c 2,139,-1
 93 430 l 2,140,141
 88 435 88 435 86 438 c 2,142,-1
 85 440 l 1,143,-1
 84 442 l 1,144,-1
 82 444 l 1,145,-1
 73 459 l 1,146,-1
 70 465 l 1,147,-1
 95 714 l 1,120,121
442 411 m 1,148,149
 442 408 442 408 436 401 c 0,150,151
 430 393 430 393 420 385 c 0,152,153
 419 385 419 385 418 384 c 128,-1,154
 417 383 417 383 417 382 c 0,155,156
 403 372 403 372 398 367 c 2,157,-1
 390 359 l 1,158,-1
 161 359 l 1,159,-1
 153 366 l 2,160,161
 143 374 143 374 135 382 c 0,162,163
 134 382 134 382 134 383 c 2,164,-1
 132 384 l 1,165,-1
 130 386 l 2,166,167
 128 388 128 388 122.5 392.5 c 128,-1,168
 117 397 117 397 115 400 c 0,169,170
 109 408 109 408 109 411 c 0,171,172
 109 412 109 412 117 420 c 0,173,174
 124 428 124 428 135 435 c 1,175,-1
 137 437 l 2,176,177
 138 437 138 437 138 438 c 0,178,179
 149 445 149 445 160 454 c 2,180,-1
 169 461 l 1,181,-1
 397 461 l 1,182,-1
 404 454 l 1,183,184
 412 448 412 448 420 438 c 1,185,-1
 422 436 l 1,186,-1
 424 434 l 2,187,188
 430 428 430 428 436 420 c 0,189,190
 440 414 440 414 442 411 c 1,148,149
EndSplineSet
Validated: 1
EndChar

StartChar: I
Encoding: 73 73 40
Width: 251
Flags: W
LayerCount: 2
Fore
SplineSet
62 375 m 1,0,1
 63 374 63 374 67 378 c 2,2,-1
 76 387 l 1,3,-1
 78 389 l 2,4,5
 78 390 78 390 79 390 c 128,-1,6
 80 390 80 390 81 391 c 2,7,-1
 90 397 l 2,8,9
 94 400 94 400 96 398 c 2,10,-1
 98 397 l 2,11,12
 99 396 99 396 101.5 394 c 128,-1,13
 104 392 104 392 107 390 c 0,14,15
 113 385 113 385 126 372 c 2,16,-1
 127 371 l 2,17,18
 128 371 128 371 128 370 c 2,19,-1
 148 350 l 1,20,-1
 157 341 l 1,21,-1
 135 125 l 1,22,-1
 58 45 l 1,23,24
 57 46 57 46 56.5 47 c 128,-1,25
 56 48 56 48 54 50 c 0,26,27
 50 54 50 54 48 57 c 0,28,29
 46 59 46 59 40 72 c 0,30,31
 37 78 37 78 33 90 c 1,32,33
 31 92 31 92 31 95 c 2,34,-1
 31 99 l 1,35,-1
 62 375 l 1,0,1
95 714 m 1,36,37
 97 716 97 716 97 717 c 0,38,39
 97 720 97 720 98 721 c 0,40,41
 103 736 103 736 111 744 c 2,42,-1
 117 750 l 1,43,-1
 190 670 l 1,44,-1
 169 478 l 1,45,-1
 159 470 l 2,46,47
 148 462 148 462 135 452 c 1,48,49
 136 452 136 452 135 451 c 1,50,-1
 133 451 l 1,51,52
 123 442 123 442 110 433 c 0,53,54
 99 425 99 425 98 425 c 2,55,-1
 93 430 l 2,56,57
 88 435 88 435 86 438 c 2,58,-1
 85 440 l 1,59,-1
 84 442 l 1,60,-1
 82 444 l 1,61,-1
 73 459 l 1,62,-1
 70 465 l 1,63,-1
 95 714 l 1,36,37
EndSplineSet
Validated: 1
EndChar

StartChar: J
Encoding: 74 74 41
Width: 563
Flags: W
LayerCount: 2
Fore
SplineSet
475 88 m 2,0,1
 475 86 475 86 472 77 c 0,2,3
 469 67 469 67 451 51 c 1,4,5
 445 54 445 54 437 62 c 0,6,7
 431 68 431 68 415 86 c 0,8,9
 414 86 414 86 413 87 c 2,10,-1
 412 88 l 2,11,12
 408 93 408 93 400 101.5 c 128,-1,13
 392 110 392 110 388 114 c 2,14,-1
 377 126 l 1,15,-1
 401 348 l 1,16,-1
 409 356 l 1,17,-1
 427 374 l 1,18,-1
 429 376 l 1,19,-1
 431 378 l 1,20,-1
 449 393 l 2,21,22
 457 399 457 399 460 398 c 2,23,-1
 468 394 l 2,24,25
 472 392 472 392 480 386 c 1,26,-1
 481 385 l 2,27,28
 482 384 482 384 483 384 c 0,29,30
 484 383 484 383 485 383 c 0,31,32
 495 375 495 375 499 372 c 2,33,-1
 505 367 l 1,34,-1
 475 88 l 2,0,1
504 450 m 1,35,-1
 498 445 l 2,36,37
 494 442 494 442 486 434 c 0,38,39
 485 433 485 433 484 433 c 2,40,-1
 482 431 l 2,41,42
 481 430 481 430 478.5 428 c 128,-1,43
 476 426 476 426 474 424.5 c 128,-1,44
 472 423 472 423 470 422 c 0,45,46
 464 419 464 419 462 419 c 0,47,48
 458 420 458 420 451 426 c 0,49,50
 441 434 441 434 435 440 c 2,51,-1
 434 441 l 2,52,53
 434 442 434 442 433 443 c 128,-1,54
 432 444 432 444 431 444 c 2,55,-1
 430 445 l 1,56,57
 418 459 418 459 413 464 c 2,58,-1
 406 472 l 1,59,-1
 431 668 l 1,60,-1
 441 679 l 1,61,62
 444 684 444 684 452 693 c 128,-1,63
 460 702 460 702 463 706 c 2,64,-1
 465 708 l 1,65,-1
 467 710 l 2,66,67
 471 714 471 714 478 721.5 c 128,-1,68
 485 729 485 729 488 732 c 0,69,70
 498 742 498 742 502 742 c 0,71,72
 505 742 505 742 507 740 c 0,73,74
 511 736 511 736 513 733 c 2,75,-1
 517 729 l 2,76,77
 518 728 518 728 519 726 c 128,-1,78
 520 724 520 724 521 723 c 0,79,80
 522 721 522 721 525 716.5 c 128,-1,81
 528 712 528 712 529 710 c 2,82,-1
 532 703 l 1,83,-1
 504 450 l 1,35,-1
438 36 m 1,84,85
 438 36 438 36 436 33 c 0,86,87
 432 29 432 29 429 27 c 2,88,-1
 425 23 l 1,89,-1
 421 19 l 2,90,91
 420 18 420 18 419 18 c 0,92,93
 417 17 417 17 416 17 c 0,94,95
 414 16 414 16 412 16 c 2,96,-1
 109 16 l 2,97,98
 101 16 101 16 95 19 c 2,99,-1
 83 25 l 2,100,101
 81 26 81 26 78 28 c 128,-1,102
 75 30 75 30 74 31 c 2,103,-1
 71 34 l 1,104,-1
 145 112 l 1,105,-1
 367 112 l 1,106,-1
 438 36 l 1,84,85
62 375 m 1,107,108
 63 374 63 374 67 378 c 2,109,-1
 76 387 l 1,110,-1
 78 389 l 2,111,112
 78 390 78 390 79 390 c 128,-1,113
 80 390 80 390 81 391 c 2,114,-1
 90 397 l 2,115,116
 94 400 94 400 96 398 c 2,117,-1
 98 397 l 2,118,119
 99 396 99 396 101.5 394 c 128,-1,120
 104 392 104 392 107 390 c 0,121,122
 113 385 113 385 126 372 c 2,123,-1
 127 371 l 2,124,125
 128 371 128 371 128 370 c 2,126,-1
 148 350 l 1,127,-1
 157 341 l 1,128,-1
 135 125 l 1,129,-1
 58 45 l 1,130,131
 57 46 57 46 56.5 47 c 128,-1,132
 56 48 56 48 54 50 c 0,133,134
 50 54 50 54 48 57 c 0,135,136
 46 59 46 59 40 72 c 0,137,138
 37 78 37 78 33 90 c 1,139,140
 31 92 31 92 31 95 c 2,141,-1
 31 99 l 1,142,-1
 62 375 l 1,107,108
EndSplineSet
Validated: 1
EndChar

StartChar: K
Encoding: 75 75 42
Width: 563
Flags: W
LayerCount: 2
Fore
SplineSet
180 338 m 2,0,1
 178 340 178 340 174 348 c 0,2,3
 169 359 169 359 170 369 c 0,4,5
 171 377 171 377 171 381 c 1,6,7
 176 384 176 384 188 384 c 0,8,9
 193 384 193 384 221 382 c 0,10,11
 222 382 222 382 223 383 c 1,12,-1
 224 383 l 2,13,14
 232 383 232 383 243 382 c 128,-1,15
 254 381 254 381 260 381 c 2,16,-1
 276 381 l 1,17,-1
 441 136 l 1,18,-1
 441 124 l 1,19,-1
 441 99 l 1,20,-1
 441 96 l 1,21,-1
 441 93 l 1,22,-1
 439 70 l 2,23,24
 438 60 438 60 435 59 c 2,25,-1
 426 56 l 2,26,27
 419 54 419 54 412 53 c 1,28,-1
 411 53 l 2,29,30
 410 53 410 53 409 52 c 1,31,32
 407 52 407 52 407 51 c 0,33,34
 394 50 394 50 389 49 c 1,35,-1
 381 49 l 1,36,-1
 180 338 l 2,0,1
427 720 m 1,37,-1
 435 720 l 1,38,39
 443 719 443 719 451 719 c 0,40,41
 453 719 453 719 454 718 c 1,42,-1
 456 718 l 2,43,44
 458 718 458 718 461 718 c 128,-1,45
 464 718 464 718 467 717 c 0,46,47
 469 717 469 717 471 716 c 0,48,49
 478 713 478 713 479 713 c 0,50,51
 481 712 481 712 482 700 c 2,52,-1
 483 679 l 1,53,-1
 483 677 l 2,54,55
 483 676 483 676 483 675 c 128,-1,56
 483 674 483 674 483 673 c 2,57,-1
 483 672 l 1,58,59
 482 653 482 653 482 646 c 2,60,-1
 481 635 l 1,61,-1
 280 417 l 1,62,-1
 265 416 l 2,63,64
 259 415 259 415 248 414 c 0,65,66
 235 413 235 413 231 412 c 1,67,-1
 228 412 l 1,68,-1
 225 412 l 2,69,70
 217 412 217 412 209 412 c 2,71,-1
 194 412 l 1,72,73
 181 411 181 411 177 415 c 0,74,75
 174 418 174 418 175 420 c 0,76,77
 176 424 176 424 176 429 c 2,78,-1
 176 434 l 2,79,80
 176 436 176 436 177 438 c 1,81,-1
 177 441 l 1,82,83
 178 445 178 445 179 449 c 128,-1,84
 180 453 180 453 181 456 c 2,85,-1
 184 463 l 1,86,-1
 427 720 l 1,37,-1
62 375 m 1,87,88
 63 374 63 374 67 378 c 2,89,-1
 76 387 l 1,90,-1
 78 389 l 2,91,92
 78 390 78 390 79 390 c 128,-1,93
 80 390 80 390 81 391 c 2,94,-1
 90 397 l 2,95,96
 94 400 94 400 96 398 c 2,97,-1
 98 397 l 2,98,99
 99 396 99 396 101.5 394 c 128,-1,100
 104 392 104 392 107 390 c 0,101,102
 113 385 113 385 126 372 c 2,103,-1
 127 371 l 2,104,105
 128 371 128 371 128 370 c 2,106,-1
 148 350 l 1,107,-1
 157 341 l 1,108,-1
 135 125 l 1,109,-1
 58 45 l 1,110,111
 57 46 57 46 56.5 47 c 128,-1,112
 56 48 56 48 54 50 c 0,113,114
 50 54 50 54 48 57 c 0,115,116
 46 59 46 59 40 72 c 0,117,118
 37 78 37 78 33 90 c 1,119,120
 31 92 31 92 31 95 c 2,121,-1
 31 99 l 1,122,-1
 62 375 l 1,87,88
95 714 m 1,123,124
 97 716 97 716 97 717 c 0,125,126
 97 720 97 720 98 721 c 0,127,128
 103 736 103 736 111 744 c 2,129,-1
 117 750 l 1,130,-1
 190 670 l 1,131,-1
 169 478 l 1,132,-1
 159 470 l 2,133,134
 148 462 148 462 135 452 c 1,135,136
 136 452 136 452 135 451 c 1,137,-1
 133 451 l 1,138,139
 123 442 123 442 110 433 c 0,140,141
 99 425 99 425 98 425 c 2,142,-1
 93 430 l 2,143,144
 88 435 88 435 86 438 c 2,145,-1
 85 440 l 1,146,-1
 84 442 l 1,147,-1
 82 444 l 1,148,-1
 73 459 l 1,149,-1
 70 465 l 1,150,-1
 95 714 l 1,123,124
EndSplineSet
Validated: 1
EndChar

StartChar: L
Encoding: 76 76 43
Width: 563
Flags: W
LayerCount: 2
Fore
SplineSet
438 36 m 1,0,1
 438 36 438 36 436 33 c 0,2,3
 432 29 432 29 429 27 c 2,4,-1
 425 23 l 1,5,-1
 421 19 l 2,6,7
 420 18 420 18 419 18 c 0,8,9
 417 17 417 17 416 17 c 0,10,11
 414 16 414 16 412 16 c 2,12,-1
 109 16 l 2,13,14
 101 16 101 16 95 19 c 2,15,-1
 83 25 l 2,16,17
 81 26 81 26 78 28 c 128,-1,18
 75 30 75 30 74 31 c 2,19,-1
 71 34 l 1,20,-1
 145 112 l 1,21,-1
 367 112 l 1,22,-1
 438 36 l 1,0,1
62 375 m 1,23,24
 63 374 63 374 67 378 c 2,25,-1
 76 387 l 1,26,-1
 78 389 l 2,27,28
 78 390 78 390 79 390 c 128,-1,29
 80 390 80 390 81 391 c 2,30,-1
 90 397 l 2,31,32
 94 400 94 400 96 398 c 2,33,-1
 98 397 l 2,34,35
 99 396 99 396 101.5 394 c 128,-1,36
 104 392 104 392 107 390 c 0,37,38
 113 385 113 385 126 372 c 2,39,-1
 127 371 l 2,40,41
 128 371 128 371 128 370 c 2,42,-1
 148 350 l 1,43,-1
 157 341 l 1,44,-1
 135 125 l 1,45,-1
 58 45 l 1,46,47
 57 46 57 46 56.5 47 c 128,-1,48
 56 48 56 48 54 50 c 0,49,50
 50 54 50 54 48 57 c 0,51,52
 46 59 46 59 40 72 c 0,53,54
 37 78 37 78 33 90 c 1,55,56
 31 92 31 92 31 95 c 2,57,-1
 31 99 l 1,58,-1
 62 375 l 1,23,24
95 714 m 1,59,60
 97 716 97 716 97 717 c 0,61,62
 97 720 97 720 98 721 c 0,63,64
 103 736 103 736 111 744 c 2,65,-1
 117 750 l 1,66,-1
 190 670 l 1,67,-1
 169 478 l 1,68,-1
 159 470 l 2,69,70
 148 462 148 462 135 452 c 1,71,72
 136 452 136 452 135 451 c 1,73,-1
 133 451 l 1,74,75
 123 442 123 442 110 433 c 0,76,77
 99 425 99 425 98 425 c 2,78,-1
 93 430 l 2,79,80
 88 435 88 435 86 438 c 2,81,-1
 85 440 l 1,82,-1
 84 442 l 1,83,-1
 82 444 l 1,84,-1
 73 459 l 1,85,-1
 70 465 l 1,86,-1
 95 714 l 1,59,60
EndSplineSet
Validated: 1
EndChar

StartChar: M
Encoding: 77 77 44
Width: 889
Flags: W
LayerCount: 2
Fore
SplineSet
62 375 m 1,0,1
 63 374 63 374 67 378 c 2,2,-1
 76 387 l 1,3,-1
 78 389 l 1,4,-1
 79 390 l 2,5,6
 80 390 80 390 81 391 c 2,7,-1
 90 397 l 2,8,9
 93 399 93 399 96 398 c 2,10,-1
 98 397 l 2,11,12
 99 396 99 396 101.5 394 c 128,-1,13
 104 392 104 392 107 390 c 0,14,15
 113 385 113 385 126 372 c 2,16,-1
 127 371 l 2,17,18
 128 370 128 370 128 370 c 1,19,-1
 148 350 l 1,20,-1
 157 341 l 1,21,-1
 120 44 l 1,22,-1
 58 45 l 2,23,24
 57 46 57 46 56.5 47 c 128,-1,25
 56 48 56 48 54 50 c 0,26,27
 50 54 50 54 48 57 c 0,28,29
 46 59 46 59 40 72 c 0,30,31
 37 78 37 78 33 90 c 1,32,33
 31 92 31 92 31 95 c 2,34,-1
 31 99 l 1,35,-1
 62 375 l 1,0,1
95 714 m 1,36,37
 97 716 97 716 97 717 c 0,38,39
 97 720 97 720 98 721 c 0,40,41
 103 736 103 736 111 744 c 2,42,-1
 117 750 l 1,43,-1
 172 752 l 1,44,-1
 169 478 l 1,45,-1
 159 470 l 2,46,47
 148 462 148 462 135 452 c 1,48,49
 136 452 136 452 135 451 c 1,50,-1
 133 451 l 1,51,52
 123 442 123 442 110 433 c 2,53,-1
 98 425 l 1,54,-1
 93 430 l 2,55,56
 87 436 87 436 86 438 c 2,57,-1
 85 440 l 1,58,-1
 84 442 l 1,59,-1
 82 444 l 1,60,-1
 73 459 l 1,61,-1
 70 465 l 1,62,-1
 95 714 l 1,36,37
351 436 m 1,63,64
 349 436 349 436 349 430 c 2,65,-1
 349 417 l 1,66,-1
 349 414 l 1,67,-1
 349 413 l 2,68,69
 349 412 349 412 349 411 c 2,70,-1
 346 400 l 2,71,72
 345 396 345 396 343 395 c 2,73,-1
 341 394 l 2,74,75
 339 394 339 394 336 394 c 128,-1,76
 333 394 333 394 330 393 c 128,-1,77
 327 392 327 392 303 392 c 2,78,-1
 302 392 l 1,79,80
 302 392 302 392 301 392 c 2,81,-1
 293 392 l 1,82,-1
 280 392 l 1,83,-1
 184 606 l 1,84,-1
 183 751 l 1,85,-1
 186 751 l 1,86,87
 188 749 188 749 190 750 c 0,88,89
 193 751 193 751 199 750 c 0,90,91
 215 747 215 747 215 745 c 1,92,93
 215 745 215 745 218 744 c 1,94,95
 222 744 222 744 223 742 c 2,96,-1
 225 739 l 1,97,-1
 351 436 l 1,63,64
629 389 m 2,98,-1
 637 383 l 2,99,100
 654 370 654 370 652 367 c 1,101,-1
 632 91 l 1,102,-1
 631 87 l 2,103,104
 630 83 630 83 628 82 c 1,105,106
 626 78 626 78 617 64 c 0,107,108
 612 56 612 56 606 49 c 0,109,110
 601 43 601 43 599 42 c 0,111,112
 596 40 596 40 596 39 c 128,-1,113
 596 38 596 38 594 37 c 2,114,-1
 533 35 l 1,115,-1
 552 333 l 1,116,-1
 562 342 l 1,117,-1
 585 362 l 1,118,119
 588 362 588 362 588 363 c 2,120,-1
 588 364 l 2,121,122
 588 367 588 367 611 382 c 2,123,124
 611 382 611 382 617 386 c 0,125,126
 620 388 620 388 621 389 c 2,127,-1
 623 390 l 2,128,129
 626 391 626 391 629 389 c 2,98,-1
685 706 m 1,130,-1
 661 457 l 1,131,-1
 658 451 l 1,132,-1
 645 436 l 1,133,-1
 643 434 l 1,134,-1
 643 432 l 1,135,-1
 640 430 l 1,136,137
 640 427 640 427 633 422 c 2,138,-1
 626 417 l 2,139,140
 625 417 625 417 615 425 c 0,141,142
 609 430 609 430 597 443 c 1,143,-1
 595 443 l 1,144,145
 593 444 593 444 595 444 c 1,146,147
 577 459 577 459 574 462 c 2,148,-1
 566 470 l 1,149,-1
 598 661 l 1,150,-1
 638 754 l 1,151,-1
 674 736 l 2,152,153
 678 734 678 734 682 713 c 0,154,155
 682 711 682 711 683 709 c 0,156,157
 683 708 683 708 685 706 c 1,130,-1
544 757 m 1,158,-1
 617 757 l 1,159,-1
 445 394 l 1,160,161
 443 395 443 395 411 395 c 0,162,163
 395 395 395 395 378 395 c 1,164,-1
 376 396 l 2,165,166
 374 397 374 397 374 401 c 2,167,-1
 374 411 l 1,168,-1
 373 413 l 2,169,170
 373 414 373 414 373 415 c 2,171,-1
 374 418 l 1,172,-1
 376 430 l 2,173,174
 377 436 377 436 375 436 c 1,175,-1
 544 757 l 1,158,-1
EndSplineSet
Validated: 1
EndChar

StartChar: N
Encoding: 78 78 45
Width: 563
Flags: W
LayerCount: 2
Fore
SplineSet
500 422 m 2,0,1
 500 423 500 423 496 419 c 2,2,-1
 486 410 l 1,3,-1
 484 408 l 1,4,5
 484 408 484 408 484 407 c 1,6,7
 483 407 483 407 482 406 c 2,8,-1
 472 400 l 2,9,10
 469 398 469 398 466 399 c 2,11,-1
 464 400 l 2,12,13
 464 401 464 401 461 403 c 0,14,15
 459 404 459 404 456 407 c 0,16,17
 448 414 448 414 436 425 c 1,18,-1
 436 426 l 1,19,20
 435 427 435 427 434 427 c 2,21,-1
 414 447 l 1,22,-1
 406 456 l 1,23,-1
 444 754 l 1,24,-1
 504 752 l 2,25,26
 506 751 506 751 506 750 c 0,27,28
 506 748 506 748 508 747 c 128,-1,29
 510 746 510 746 514 740 c 0,30,31
 516 738 516 738 522 725 c 0,32,33
 525 719 525 719 530 707 c 1,34,35
 532 705 532 705 532 702 c 2,36,-1
 532 698 l 1,37,-1
 500 422 l 2,0,1
468 83 m 1,38,39
 466 81 466 81 466 80 c 0,40,41
 466 77 466 77 464 76 c 1,42,43
 458 56 458 56 452 53 c 2,44,-1
 412 35 l 1,45,-1
 390 128 l 1,46,-1
 394 319 l 1,47,-1
 404 327 l 2,48,49
 414 335 414 335 428 345 c 1,50,51
 426 345 426 345 428 346 c 1,52,-1
 430 346 l 1,53,54
 440 355 440 355 452 364 c 128,-1,55
 464 373 464 373 464 372 c 2,56,-1
 470 367 l 2,57,58
 476 361 476 361 476 359 c 1,59,-1
 478 357 l 1,60,-1
 478 355 l 1,61,-1
 480 353 l 1,62,-1
 490 338 l 1,63,-1
 492 332 l 1,64,-1
 468 83 l 1,38,39
62 375 m 1,65,66
 63 374 63 374 67 378 c 2,67,-1
 76 387 l 1,68,-1
 78 389 l 1,69,-1
 79 390 l 2,70,71
 80 390 80 390 81 391 c 2,72,-1
 90 397 l 2,73,74
 93 399 93 399 96 398 c 2,75,-1
 98 397 l 2,76,77
 99 396 99 396 101.5 394 c 128,-1,78
 104 392 104 392 107 390 c 0,79,80
 113 385 113 385 126 372 c 2,81,-1
 127 371 l 2,82,83
 128 370 128 370 128 370 c 1,84,-1
 148 350 l 1,85,-1
 157 341 l 1,86,-1
 120 44 l 1,87,-1
 58 45 l 2,88,89
 57 46 57 46 56.5 47 c 128,-1,90
 56 48 56 48 54 50 c 0,91,92
 50 54 50 54 48 57 c 0,93,94
 46 59 46 59 40 72 c 0,95,96
 37 78 37 78 33 90 c 1,97,98
 31 92 31 92 31 95 c 2,99,-1
 31 99 l 1,100,-1
 62 375 l 1,65,66
95 714 m 1,101,102
 97 716 97 716 97 717 c 0,103,104
 97 720 97 720 98 721 c 0,105,106
 103 736 103 736 111 744 c 2,107,-1
 117 750 l 1,108,-1
 172 752 l 1,109,-1
 169 478 l 1,110,-1
 159 470 l 2,111,112
 148 462 148 462 135 452 c 1,113,114
 136 452 136 452 135 451 c 1,115,-1
 133 451 l 1,116,117
 123 442 123 442 110 433 c 2,118,119
 110 433 110 433 98 425 c 1,120,-1
 93 430 l 2,121,122
 87 436 87 436 86 438 c 2,123,-1
 85 440 l 1,124,-1
 84 442 l 1,125,-1
 82 444 l 1,126,-1
 73 459 l 1,127,-1
 70 465 l 1,128,-1
 95 714 l 1,101,102
318 32 m 1,129,-1
 231 353 l 1,130,131
 233 353 233 353 233 359 c 2,132,-1
 233 371 l 1,133,-1
 233 374 l 1,134,135
 233 374 233 374 233 376 c 2,136,137
 233 376 233 376 234 378 c 2,138,-1
 236 388 l 2,139,140
 236 393 236 393 239 393 c 1,141,-1
 241 394 l 1,142,143
 258 394 258 394 274 394 c 0,144,145
 306 394 306 394 309 395 c 1,146,-1
 391 32 l 1,147,-1
 318 32 l 1,129,-1
316 460 m 1,148,149
 314 460 314 460 314 454 c 2,150,-1
 314 441 l 1,151,-1
 314 438 l 1,152,153
 314 438 314 438 314 437 c 256,154,155
 314 436 314 436 314 435 c 2,156,-1
 311 424 l 2,157,158
 310 420 310 420 308 419 c 2,159,-1
 306 418 l 2,160,161
 304 418 304 418 301 418 c 128,-1,162
 298 418 298 418 295 417 c 128,-1,163
 292 416 292 416 268 416 c 2,164,-1
 267 416 l 2,165,166
 266 416 266 416 266 416 c 1,167,-1
 258 416 l 1,168,-1
 245 416 l 1,169,-1
 184 606 l 1,170,-1
 183 751 l 1,171,-1
 186 751 l 1,172,173
 188 749 188 749 190 750 c 0,174,175
 193 751 193 751 199 750 c 0,176,177
 215 747 215 747 215 745 c 1,178,179
 215 745 215 745 218 744 c 1,180,181
 222 744 222 744 223 742 c 2,182,-1
 225 739 l 1,183,-1
 316 460 l 1,148,149
EndSplineSet
Validated: 1
EndChar

StartChar: O
Encoding: 79 79 46
Width: 563
Flags: W
LayerCount: 2
Fore
SplineSet
475 149 m 2,0,1
 474 142 474 142 472 138 c 0,2,3
 468 130 468 130 454 112 c 1,4,5
 454 112 454 112 440 98 c 1,6,7
 421 86 421 86 415 86 c 0,8,9
 414 86 414 86 413 87 c 2,10,-1
 412 88 l 2,11,12
 408 93 408 93 400 101.5 c 128,-1,13
 392 110 392 110 388 114 c 2,14,-1
 377 126 l 1,15,-1
 401 348 l 1,16,-1
 409 356 l 1,17,-1
 427 374 l 1,18,-1
 429 376 l 1,19,-1
 431 378 l 1,20,-1
 449 393 l 2,21,22
 457 400 457 400 460 398 c 2,23,-1
 468 394 l 2,24,25
 472 392 472 392 480 386 c 1,26,-1
 481 385 l 2,27,28
 482 384 482 384 483 384 c 0,29,30
 484 383 484 383 485 383 c 0,31,32
 495 375 495 375 499 372 c 2,33,-1
 505 367 l 1,34,-1
 475 149 l 2,0,1
504 450 m 1,35,-1
 498 445 l 2,36,37
 492 440 492 440 486 434 c 0,38,39
 485 433 485 433 484 433 c 2,40,-1
 482 431 l 2,41,42
 481 430 481 430 478.5 428 c 128,-1,43
 476 426 476 426 474 424.5 c 128,-1,44
 472 423 472 423 470 422 c 0,45,46
 464 419 464 419 462 419 c 0,47,48
 458 420 458 420 451 426 c 0,49,50
 441 434 441 434 435 440 c 2,51,-1
 434 441 l 2,52,53
 434 442 434 442 433 443 c 128,-1,54
 432 444 432 444 431 444 c 2,55,-1
 430 445 l 1,56,57
 418 459 418 459 413 464 c 2,58,-1
 406 472 l 1,59,-1
 431 668 l 1,60,-1
 441 679 l 1,61,62
 444 684 444 684 452 693 c 128,-1,63
 460 702 460 702 463 706 c 2,64,-1
 465 708 l 1,65,-1
 467 710 l 2,66,67
 473 716 473 716 484 703 c 0,68,69
 494 692 494 692 495 690 c 0,70,71
 500 685 500 685 504 678 c 0,72,73
 505 675 505 675 507 673 c 0,74,75
 511 669 511 669 513 666 c 2,76,-1
 517 662 l 2,77,78
 518 661 518 661 519 659 c 128,-1,79
 520 657 520 657 521 656 c 0,80,81
 522 654 522 654 525 650 c 0,82,83
 528 644 528 644 529 643 c 2,84,-1
 532 636 l 1,85,-1
 504 450 l 1,35,-1
156 745 m 1,86,87
 156 745 156 745 180 765 c 1,88,-1
 186 771 l 1,89,-1
 196 776 l 2,90,91
 200 778 200 778 208 778 c 2,92,-1
 393 778 l 1,93,-1
 398 777 l 2,94,95
 408 774 408 774 410 772 c 128,-1,96
 412 770 412 770 416 768 c 0,97,98
 422 765 422 765 422 765 c 1,99,100
 425 762 425 762 429 759 c 128,-1,101
 433 756 433 756 439 746 c 1,102,103
 447 737 447 737 449 735 c 0,104,105
 457 723 457 723 452 717 c 1,106,107
 452 715 452 715 451 715 c 128,-1,108
 450 715 450 715 449 714 c 0,109,110
 445 709 445 709 436.5 700 c 128,-1,111
 428 691 428 691 424 687 c 2,112,-1
 414 676 l 1,113,-1
 211 676 l 1,114,-1
 156 745 l 1,86,87
103 66 m 1,115,-1
 145 112 l 1,116,-1
 367 112 l 1,117,-1
 406 68 l 1,118,-1
 372 33 l 2,119,120
 368 29 368 29 365 27 c 2,121,-1
 361 23 l 1,122,-1
 357 19 l 1,123,124
 357 19 357 19 355 18 c 128,-1,125
 353 17 353 17 352 17 c 0,126,127
 350 16 350 16 348 16 c 2,128,-1
 182 16 l 2,129,130
 172 16 172 16 168 19 c 2,131,-1
 103 66 l 1,115,-1
62 375 m 1,132,133
 63 374 63 374 67 378 c 2,134,-1
 76 387 l 1,135,-1
 78 389 l 1,136,-1
 79 390 l 2,137,138
 80 390 80 390 81 391 c 2,139,-1
 90 397 l 2,140,141
 93 399 93 399 96 398 c 2,142,-1
 98 397 l 2,143,144
 99 396 99 396 101.5 394 c 128,-1,145
 104 392 104 392 107 390 c 0,146,147
 113 385 113 385 126 372 c 2,148,-1
 127 371 l 2,149,150
 128 370 128 370 128 370 c 1,151,-1
 148 350 l 1,152,-1
 157 341 l 1,153,-1
 135 125 l 1,154,-1
 91 78 l 1,155,156
 90 79 90 79 73 98 c 128,-1,157
 56 117 56 117 54 119 c 0,158,159
 49 124 49 124 48 126 c 0,160,161
 41 139 41 139 40 141 c 0,162,163
 37 149 37 149 33 159 c 1,164,165
 31 161 31 161 31 164 c 2,166,-1
 31 168 l 1,167,-1
 62 375 l 1,132,133
95 664 m 1,168,169
 97 666 97 666 97 667 c 128,-1,170
 97 668 97 668 98 671 c 0,171,172
 102 683 102 683 111 694 c 2,173,-1
 140 731 l 1,174,-1
 190 670 l 1,175,-1
 169 478 l 1,176,-1
 159 470 l 2,177,178
 148 462 148 462 135 452 c 1,179,180
 136 452 136 452 135 451 c 1,181,-1
 133 451 l 1,182,183
 123 442 123 442 110 433 c 0,184,185
 98 425 98 425 98 425 c 1,186,-1
 93 430 l 2,187,188
 87 436 87 436 86 438 c 2,189,-1
 85 440 l 1,190,-1
 84 442 l 1,191,-1
 82 444 l 1,192,-1
 73 459 l 1,193,-1
 70 465 l 1,194,-1
 95 664 l 1,168,169
EndSplineSet
Validated: 1
EndChar

StartChar: P
Encoding: 80 80 47
Width: 563
Flags: W
LayerCount: 2
Fore
SplineSet
504 450 m 1,0,-1
 498 445 l 2,1,2
 494 442 494 442 486 434 c 0,3,4
 485 433 485 433 484 433 c 2,5,-1
 482 431 l 2,6,7
 481 430 481 430 478.5 428 c 128,-1,8
 476 426 476 426 474 424.5 c 128,-1,9
 472 423 472 423 470 422 c 0,10,11
 464 419 464 419 462 419 c 0,12,13
 458 420 458 420 451 426 c 0,14,15
 441 434 441 434 435 440 c 2,16,-1
 434 441 l 2,17,18
 434 442 434 442 433 443 c 128,-1,19
 432 444 432 444 431 444 c 2,20,-1
 430 445 l 1,21,22
 418 459 418 459 413 464 c 2,23,-1
 406 472 l 1,24,-1
 431 668 l 1,25,-1
 441 679 l 1,26,27
 444 684 444 684 452 693 c 128,-1,28
 460 702 460 702 463 706 c 2,29,-1
 465 708 l 1,30,-1
 467 710 l 2,31,32
 471 714 471 714 478 721.5 c 128,-1,33
 485 729 485 729 488 732 c 0,34,35
 498 742 498 742 502 742 c 0,36,37
 505 742 505 742 507 740 c 0,38,39
 511 736 511 736 513 733 c 2,40,-1
 517 729 l 2,41,42
 518 728 518 728 519 726 c 128,-1,43
 520 724 520 724 521 723 c 0,44,45
 522 721 522 721 525 716.5 c 128,-1,46
 528 712 528 712 529 710 c 2,47,-1
 532 703 l 1,48,-1
 504 450 l 1,0,-1
131 763 m 1,49,50
 131 763 131 763 134 765 c 2,51,-1
 140 771 l 1,52,-1
 150 776 l 2,53,54
 154 778 154 778 162 778 c 2,55,-1
 449 778 l 1,56,-1
 454 777 l 2,57,58
 458 776 458 776 466 772 c 0,59,60
 468 771 468 771 472 768.5 c 128,-1,61
 476 766 476 766 478 765 c 0,62,63
 483 762 483 762 483 758 c 0,64,65
 483 755 483 755 474 743 c 0,66,67
 471 739 471 739 463.5 730.5 c 128,-1,68
 456 722 456 722 452 717 c 1,69,70
 452 715 452 715 451 715 c 128,-1,71
 450 715 450 715 449 714 c 0,72,73
 445 709 445 709 436.5 700 c 128,-1,74
 428 691 428 691 424 687 c 2,75,-1
 414 676 l 1,76,-1
 211 676 l 1,77,-1
 131 763 l 1,49,50
62 375 m 1,78,79
 63 374 63 374 67 378 c 2,80,-1
 76 387 l 1,81,-1
 78 389 l 2,82,83
 78 390 78 390 79 390 c 128,-1,84
 80 390 80 390 81 391 c 2,85,-1
 90 397 l 2,86,87
 94 400 94 400 96 398 c 2,88,-1
 98 397 l 2,89,90
 99 396 99 396 101.5 394 c 128,-1,91
 104 392 104 392 107 390 c 0,92,93
 113 385 113 385 126 372 c 2,94,-1
 127 371 l 2,95,96
 128 371 128 371 128 370 c 2,97,-1
 148 350 l 1,98,-1
 157 341 l 1,99,-1
 135 125 l 1,100,-1
 58 45 l 1,101,102
 57 46 57 46 56.5 47 c 128,-1,103
 56 48 56 48 54 50 c 0,104,105
 50 54 50 54 48 57 c 0,106,107
 46 59 46 59 40 72 c 0,108,109
 37 78 37 78 33 90 c 1,110,111
 31 92 31 92 31 95 c 2,112,-1
 31 99 l 1,113,-1
 62 375 l 1,78,79
95 714 m 1,114,115
 97 716 97 716 97 717 c 0,116,117
 97 720 97 720 98 721 c 0,118,119
 103 736 103 736 111 744 c 2,120,-1
 117 750 l 1,121,-1
 190 670 l 1,122,-1
 169 478 l 1,123,-1
 159 470 l 2,124,125
 148 462 148 462 135 452 c 1,126,127
 136 452 136 452 135 451 c 1,128,-1
 133 451 l 1,129,130
 123 442 123 442 110 433 c 0,131,132
 99 425 99 425 98 425 c 2,133,-1
 93 430 l 2,134,135
 88 435 88 435 86 438 c 2,136,-1
 85 440 l 1,137,-1
 84 442 l 1,138,-1
 82 444 l 1,139,-1
 73 459 l 1,140,-1
 70 465 l 1,141,-1
 95 714 l 1,114,115
442 411 m 1,142,143
 442 408 442 408 436 401 c 0,144,145
 430 393 430 393 420 385 c 0,146,147
 419 385 419 385 418 384 c 128,-1,148
 417 383 417 383 417 382 c 0,149,150
 403 372 403 372 398 367 c 2,151,-1
 390 359 l 1,152,-1
 161 359 l 1,153,-1
 153 366 l 2,154,155
 143 374 143 374 135 382 c 0,156,157
 134 382 134 382 134 383 c 2,158,-1
 132 384 l 1,159,-1
 130 386 l 2,160,161
 128 388 128 388 122.5 392.5 c 128,-1,162
 117 397 117 397 115 400 c 0,163,164
 109 408 109 408 109 411 c 0,165,166
 109 412 109 412 117 420 c 0,167,168
 124 428 124 428 135 435 c 1,169,-1
 137 437 l 2,170,171
 138 437 138 437 138 438 c 0,172,173
 149 445 149 445 160 454 c 2,174,-1
 169 461 l 1,175,-1
 397 461 l 1,176,-1
 404 454 l 1,177,178
 412 448 412 448 420 438 c 1,179,-1
 422 436 l 1,180,-1
 424 434 l 2,181,182
 430 428 430 428 436 420 c 0,183,184
 440 414 440 414 442 411 c 1,142,143
EndSplineSet
Validated: 1
EndChar

StartChar: Q
Encoding: 81 81 48
Width: 563
Flags: W
LayerCount: 2
Fore
SplineSet
411 153 m 2,0,1
 411 153 411 153 494 72 c 1,2,-1
 492 65 l 2,3,4
 490 60 490 60 486 48 c 0,5,6
 485 48 485 48 485 46 c 1,7,8
 484 46 484 46 484 44 c 2,9,-1
 484 43 l 1,10,11
 480 33 480 33 478 30 c 2,12,-1
 474 22 l 2,13,14
 472 19 472 19 462 20 c 2,15,-1
 439 22 l 1,16,-1
 436 23 l 1,17,-1
 433 23 l 1,18,-1
 408 28 l 1,19,-1
 397 31 l 1,20,-1
 276 159 l 1,21,-1
 278 175 l 1,22,23
 280 182 280 182 285 192 c 0,24,25
 286 194 286 194 311 219 c 1,26,-1
 313 220 l 2,27,28
 316 221 316 221 316 222 c 128,-1,29
 316 223 316 223 334 221 c 1,30,-1
 338 218 l 1,31,32
 386 170 386 170 402 161 c 0,33,34
 404 160 404 160 411 153 c 2,0,1
475 226 m 2,35,36
 474 220 474 220 472 215 c 0,37,38
 470 209 470 209 454 188 c 1,39,-1
 440 175 l 1,40,41
 421 163 421 163 415 163 c 0,42,43
 414 163 414 163 413 164 c 2,44,-1
 412 165 l 2,45,46
 408 170 408 170 400 178 c 0,47,48
 392 187 392 187 388 191 c 2,49,-1
 377 203 l 1,50,-1
 401 348 l 1,51,-1
 409 356 l 1,52,-1
 427 374 l 1,53,-1
 429 376 l 1,54,-1
 431 378 l 1,55,-1
 449 393 l 2,56,57
 457 400 457 400 460 398 c 2,58,-1
 468 394 l 2,59,60
 472 392 472 392 480 386 c 1,61,-1
 481 385 l 2,62,63
 482 384 482 384 483 384 c 0,64,65
 484 383 484 383 485 383 c 0,66,67
 495 375 495 375 499 372 c 2,68,-1
 505 367 l 1,69,-1
 475 226 l 2,35,36
504 450 m 1,70,-1
 498 445 l 2,71,72
 492 440 492 440 486 434 c 0,73,74
 485 433 485 433 484 433 c 2,75,-1
 482 431 l 2,76,77
 481 430 481 430 478.5 428 c 128,-1,78
 476 426 476 426 474 424.5 c 128,-1,79
 472 423 472 423 470 422 c 0,80,81
 464 419 464 419 462 419 c 0,82,83
 458 420 458 420 451 426 c 0,84,85
 441 434 441 434 435 440 c 2,86,-1
 434 441 l 2,87,88
 434 442 434 442 433 443 c 128,-1,89
 432 444 432 444 431 444 c 2,90,-1
 430 445 l 1,91,92
 418 459 418 459 413 464 c 2,93,-1
 406 472 l 1,94,-1
 431 668 l 1,95,-1
 441 679 l 1,96,97
 444 684 444 684 452 693 c 128,-1,98
 460 702 460 702 463 706 c 2,99,-1
 465 708 l 1,100,-1
 467 710 l 2,101,102
 473 716 473 716 484 703 c 0,103,104
 494 692 494 692 495 690 c 0,105,106
 500 685 500 685 504 678 c 0,107,108
 505 675 505 675 507 673 c 0,109,110
 511 669 511 669 513 666 c 2,111,-1
 517 662 l 2,112,113
 518 661 518 661 519 659 c 128,-1,114
 520 657 520 657 521 656 c 0,115,116
 522 654 522 654 525 650 c 0,117,118
 528 644 528 644 529 643 c 2,119,-1
 532 636 l 1,120,-1
 504 450 l 1,70,-1
156 745 m 1,121,-1
 180 765 l 1,122,-1
 186 771 l 1,123,-1
 196 776 l 2,124,125
 200 778 200 778 208 778 c 2,126,-1
 393 778 l 1,127,-1
 398 777 l 2,128,129
 408 774 408 774 410 772 c 128,-1,130
 412 770 412 770 416 768 c 0,131,132
 422 765 422 765 422 765 c 1,133,134
 425 762 425 762 429 759 c 128,-1,135
 433 756 433 756 439 746 c 1,136,137
 447 737 447 737 449 735 c 0,138,139
 457 723 457 723 452 717 c 1,140,141
 452 715 452 715 451 715 c 128,-1,142
 450 715 450 715 449 714 c 0,143,144
 445 709 445 709 436.5 700 c 128,-1,145
 428 691 428 691 424 687 c 2,146,-1
 414 676 l 1,147,-1
 211 676 l 1,148,-1
 156 745 l 1,121,-1
104 66 m 1,149,-1
 145 112 l 1,150,-1
 300 112 l 1,151,-1
 339 68 l 1,152,-1
 305 33 l 2,153,154
 301 29 301 29 298 27 c 2,155,-1
 294 23 l 1,156,-1
 290 19 l 1,157,158
 290 19 290 19 288 18 c 128,-1,159
 286 17 286 17 285 17 c 0,160,161
 283 16 283 16 281 16 c 2,162,-1
 182 16 l 2,163,164
 174 16 174 16 168 19 c 2,165,-1
 156 25 l 1,166,167
 130 46 130 46 104 66 c 1,149,-1
62 375 m 1,168,169
 63 374 63 374 67 378 c 2,170,-1
 76 387 l 1,171,-1
 78 389 l 1,172,-1
 79 390 l 2,173,174
 80 390 80 390 81 391 c 2,175,-1
 90 397 l 2,176,177
 93 399 93 399 96 398 c 2,178,-1
 98 397 l 2,179,180
 99 396 99 396 101.5 394 c 128,-1,181
 104 392 104 392 107 390 c 0,182,183
 113 385 113 385 126 372 c 2,184,-1
 127 371 l 2,185,186
 128 370 128 370 128 370 c 1,187,-1
 148 350 l 1,188,-1
 157 341 l 1,189,-1
 135 125 l 1,190,-1
 91 78 l 1,191,192
 90 79 90 79 73 98 c 128,-1,193
 56 117 56 117 54 119 c 0,194,195
 49 124 49 124 48 126 c 0,196,197
 41 139 41 139 40 141 c 0,198,199
 37 149 37 149 33 159 c 1,200,201
 31 161 31 161 31 164 c 2,202,-1
 31 168 l 1,203,-1
 62 375 l 1,168,169
95 664 m 1,204,205
 97 666 97 666 97 667 c 128,-1,206
 97 668 97 668 98 671 c 0,207,208
 102 683 102 683 111 694 c 2,209,-1
 140 731 l 1,210,-1
 190 670 l 1,211,-1
 169 478 l 1,212,-1
 159 470 l 2,213,214
 148 462 148 462 135 452 c 1,215,216
 136 452 136 452 135 451 c 1,217,-1
 133 451 l 1,218,219
 123 442 123 442 110 433 c 0,220,221
 98 425 98 425 98 425 c 1,222,-1
 93 430 l 2,223,224
 87 436 87 436 86 438 c 2,225,-1
 85 440 l 1,226,-1
 84 442 l 1,227,-1
 82 444 l 1,228,-1
 73 459 l 1,229,-1
 70 465 l 1,230,-1
 95 664 l 1,204,205
EndSplineSet
Validated: 1
EndChar

StartChar: R
Encoding: 82 82 49
Width: 563
Flags: W
LayerCount: 2
Fore
SplineSet
504 450 m 1,0,-1
 498 445 l 2,1,2
 492 440 492 440 486 434 c 0,3,4
 485 433 485 433 484 433 c 2,5,-1
 482 431 l 2,6,7
 481 430 481 430 478.5 428 c 128,-1,8
 476 426 476 426 474 424.5 c 128,-1,9
 472 423 472 423 470 422 c 0,10,11
 464 419 464 419 462 419 c 0,12,13
 458 420 458 420 451 426 c 0,14,15
 441 434 441 434 435 440 c 2,16,-1
 434 441 l 2,17,18
 434 442 434 442 433 443 c 128,-1,19
 432 444 432 444 431 444 c 2,20,-1
 430 445 l 1,21,22
 418 459 418 459 413 464 c 2,23,-1
 406 472 l 1,24,-1
 431 668 l 1,25,-1
 441 679 l 1,26,27
 444 684 444 684 452 693 c 128,-1,28
 460 702 460 702 463 706 c 2,29,-1
 465 708 l 1,30,-1
 467 710 l 2,31,32
 473 716 473 716 484 703 c 0,33,34
 494 692 494 692 495 690 c 0,35,36
 500 685 500 685 504 678 c 0,37,38
 505 675 505 675 507 673 c 0,39,40
 511 669 511 669 513 666 c 2,41,-1
 517 662 l 2,42,43
 518 661 518 661 519 659 c 128,-1,44
 520 657 520 657 521 656 c 0,45,46
 522 654 522 654 525 650 c 0,47,48
 528 644 528 644 529 643 c 2,49,-1
 532 636 l 1,50,-1
 504 450 l 1,0,-1
131 763 m 1,51,-1
 134 765 l 1,52,-1
 140 771 l 1,53,-1
 150 776 l 2,54,55
 154 778 154 778 162 778 c 2,56,-1
 393 778 l 1,57,-1
 398 777 l 2,58,59
 408 774 408 774 410 772 c 128,-1,60
 412 770 412 770 416 768 c 0,61,62
 422 765 422 765 422 765 c 1,63,64
 425 762 425 762 429 759 c 128,-1,65
 433 756 433 756 439 746 c 1,66,67
 447 737 447 737 449 735 c 0,68,69
 457 723 457 723 452 717 c 1,70,71
 452 715 452 715 451 715 c 128,-1,72
 450 715 450 715 449 714 c 0,73,74
 445 709 445 709 436.5 700 c 128,-1,75
 428 691 428 691 424 687 c 2,76,-1
 414 676 l 1,77,-1
 211 676 l 1,78,-1
 131 763 l 1,51,-1
442 411 m 1,79,80
 442 408 442 408 436 401 c 0,81,82
 430 393 430 393 420 385 c 0,83,84
 419 385 419 385 418 384 c 128,-1,85
 417 383 417 383 417 382 c 0,86,87
 403 372 403 372 398 367 c 2,88,-1
 390 359 l 1,89,-1
 161 359 l 1,90,-1
 153 366 l 2,91,92
 143 374 143 374 135 382 c 0,93,94
 134 382 134 382 134 383 c 2,95,-1
 132 384 l 1,96,-1
 130 386 l 2,97,98
 128 388 128 388 122.5 392.5 c 128,-1,99
 117 397 117 397 115 400 c 0,100,101
 109 408 109 408 109 411 c 0,102,103
 109 412 109 412 117 420 c 0,104,105
 124 428 124 428 135 435 c 1,106,-1
 137 437 l 2,107,108
 138 437 138 437 138 438 c 0,109,110
 149 445 149 445 160 454 c 2,111,-1
 169 461 l 1,112,-1
 397 461 l 1,113,-1
 404 454 l 1,114,115
 412 448 412 448 420 438 c 1,116,-1
 422 436 l 1,117,-1
 424 434 l 2,118,119
 430 428 430 428 436 420 c 0,120,121
 440 414 440 414 442 411 c 1,79,80
180 292 m 2,122,123
 178 295 178 295 174 302 c 128,-1,124
 170 309 170 309 170 323 c 1,125,126
 171 331 171 331 171 335 c 1,127,128
 176 338 176 338 188 338 c 0,129,130
 208 338 208 338 221 336 c 1,131,132
 222 337 222 337 223 337 c 2,133,-1
 224 337 l 1,134,135
 231 336 231 336 243 336 c 1,136,137
 254 335 254 335 260 335 c 2,138,-1
 276 335 l 1,139,-1
 441 136 l 1,140,-1
 441 124 l 1,141,-1
 441 99 l 1,142,-1
 441 96 l 1,143,-1
 441 93 l 1,144,-1
 439 70 l 2,145,146
 438 60 438 60 435 59 c 2,147,-1
 426 56 l 2,148,149
 422 54 422 54 412 53 c 1,150,-1
 411 53 l 2,151,152
 410 53 410 53 409 52 c 1,153,154
 407 52 407 52 407 51 c 0,155,156
 394 50 394 50 389 49 c 1,157,-1
 381 49 l 1,158,-1
 180 292 l 2,122,123
62 375 m 1,159,160
 63 374 63 374 67 378 c 2,161,-1
 76 387 l 1,162,-1
 78 389 l 2,163,164
 78 390 78 390 79 390 c 128,-1,165
 80 390 80 390 81 391 c 2,166,-1
 90 397 l 2,167,168
 94 400 94 400 96 398 c 2,169,-1
 98 397 l 2,170,171
 99 396 99 396 101.5 394 c 128,-1,172
 104 392 104 392 107 390 c 0,173,174
 113 385 113 385 126 372 c 2,175,-1
 127 371 l 2,176,177
 128 371 128 371 128 370 c 2,178,-1
 148 350 l 1,179,-1
 157 341 l 1,180,-1
 135 125 l 1,181,-1
 58 45 l 1,182,183
 57 46 57 46 56.5 47 c 128,-1,184
 56 48 56 48 54 50 c 0,185,186
 50 54 50 54 48 57 c 0,187,188
 46 59 46 59 40 72 c 0,189,190
 37 78 37 78 33 90 c 1,191,192
 31 92 31 92 31 95 c 2,193,-1
 31 99 l 1,194,-1
 62 375 l 1,159,160
95 714 m 1,195,196
 97 716 97 716 97 717 c 0,197,198
 97 720 97 720 98 721 c 0,199,200
 103 736 103 736 111 744 c 2,201,-1
 117 750 l 1,202,-1
 190 670 l 1,203,-1
 169 478 l 1,204,-1
 159 470 l 2,205,206
 148 462 148 462 135 452 c 1,207,208
 136 452 136 452 135 451 c 1,209,-1
 133 451 l 1,210,211
 123 442 123 442 110 433 c 0,212,213
 99 425 99 425 98 425 c 2,214,-1
 93 430 l 2,215,216
 88 435 88 435 86 438 c 2,217,-1
 85 440 l 1,218,-1
 84 442 l 1,219,-1
 82 444 l 1,220,-1
 73 459 l 1,221,-1
 70 465 l 1,222,-1
 95 714 l 1,195,196
EndSplineSet
Validated: 1
EndChar

StartChar: S
Encoding: 83 83 50
Width: 563
Flags: W
LayerCount: 2
Fore
SplineSet
442 411 m 1,0,1
 442 408 442 408 436 401 c 0,2,3
 430 393 430 393 420 385 c 0,4,5
 419 385 419 385 418 384 c 128,-1,6
 417 383 417 383 417 382 c 0,7,8
 403 372 403 372 398 367 c 2,9,-1
 390 359 l 1,10,-1
 161 359 l 1,11,-1
 153 366 l 2,12,13
 143 374 143 374 135 382 c 0,14,15
 134 382 134 382 134 383 c 2,16,-1
 132 384 l 1,17,-1
 130 386 l 2,18,19
 128 388 128 388 122.5 392.5 c 128,-1,20
 117 397 117 397 115 400 c 0,21,22
 109 408 109 408 109 411 c 0,23,24
 109 412 109 412 117 420 c 0,25,26
 124 428 124 428 135 435 c 1,27,-1
 137 437 l 2,28,29
 138 437 138 437 138 438 c 0,30,31
 149 445 149 445 160 454 c 2,32,-1
 169 461 l 1,33,-1
 397 461 l 1,34,-1
 404 454 l 1,35,36
 412 448 412 448 420 438 c 1,37,-1
 422 436 l 1,38,-1
 424 434 l 2,39,40
 430 428 430 428 436 420 c 0,41,42
 440 414 440 414 442 411 c 1,0,1
475 149 m 2,43,44
 474 142 474 142 472 138 c 0,45,46
 468 130 468 130 454 112 c 1,47,-1
 440 98 l 1,48,49
 421 86 421 86 415 86 c 0,50,51
 414 86 414 86 413 87 c 2,52,-1
 412 88 l 2,53,54
 408 93 408 93 400 101.5 c 128,-1,55
 392 110 392 110 388 114 c 2,56,-1
 377 126 l 1,57,-1
 401 348 l 1,58,-1
 409 356 l 1,59,-1
 427 374 l 1,60,-1
 429 376 l 1,61,-1
 431 378 l 1,62,-1
 449 393 l 2,63,64
 457 400 457 400 460 398 c 2,65,-1
 468 394 l 2,66,67
 472 392 472 392 480 386 c 1,68,-1
 481 385 l 2,69,70
 482 384 482 384 483 384 c 0,71,72
 484 383 484 383 485 383 c 0,73,74
 495 375 495 375 499 372 c 2,75,-1
 505 367 l 1,76,-1
 475 149 l 2,43,44
156 745 m 1,77,-1
 180 765 l 1,78,-1
 186 771 l 1,79,-1
 196 776 l 2,80,81
 200 778 200 778 208 778 c 2,82,-1
 393 778 l 1,83,-1
 398 777 l 2,84,85
 408 774 408 774 410 772 c 128,-1,86
 412 770 412 770 416 768 c 0,87,88
 422 765 422 765 422 765 c 1,89,90
 425 762 425 762 429 759 c 128,-1,91
 433 756 433 756 439 746 c 1,92,93
 447 737 447 737 449 735 c 0,94,95
 457 723 457 723 452 717 c 1,96,97
 452 715 452 715 451 715 c 128,-1,98
 450 715 450 715 449 714 c 0,99,100
 445 709 445 709 436.5 700 c 128,-1,101
 428 691 428 691 424 687 c 2,102,-1
 414 676 l 1,103,-1
 211 676 l 1,104,-1
 156 745 l 1,77,-1
104 67 m 1,105,-1
 145 112 l 1,106,-1
 367 112 l 1,107,-1
 406 68 l 1,108,-1
 372 33 l 2,109,110
 368 29 368 29 365 27 c 2,111,-1
 361 23 l 1,112,-1
 357 19 l 1,113,114
 357 19 357 19 355 18 c 128,-1,115
 353 17 353 17 352 17 c 0,116,117
 350 16 350 16 348 16 c 2,118,-1
 182 16 l 2,119,120
 174 16 174 16 168 19 c 2,121,-1
 156 25 l 1,122,123
 130 46 130 46 104 67 c 1,105,-1
95 664 m 1,124,125
 97 666 97 666 97 667 c 128,-1,126
 97 668 97 668 98 671 c 0,127,128
 102 683 102 683 111 694 c 2,129,-1
 140 731 l 1,130,-1
 190 670 l 1,131,-1
 169 478 l 1,132,-1
 159 470 l 2,133,134
 148 462 148 462 135 452 c 1,135,136
 136 452 136 452 135 451 c 1,137,-1
 133 451 l 1,138,139
 123 442 123 442 110 433 c 0,140,141
 98 425 98 425 98 425 c 1,142,-1
 93 430 l 2,143,144
 87 436 87 436 86 438 c 2,145,-1
 85 440 l 1,146,-1
 84 442 l 1,147,-1
 82 444 l 1,148,-1
 73 459 l 1,149,-1
 70 465 l 1,150,-1
 95 664 l 1,124,125
EndSplineSet
Validated: 1
EndChar

StartChar: T
Encoding: 84 84 51
Width: 563
Flags: W
LayerCount: 2
Fore
SplineSet
279 88 m 2,0,1
 279 86 279 86 276 77 c 0,2,3
 273 67 273 67 255 51 c 1,4,5
 249 54 249 54 241 62 c 0,6,7
 235 68 235 68 219 86 c 0,8,9
 218 86 218 86 217 87 c 2,10,-1
 216 88 l 2,11,12
 212 93 212 93 204 101.5 c 128,-1,13
 196 110 196 110 192 114 c 2,14,-1
 181 126 l 1,15,-1
 205 348 l 1,16,-1
 213 356 l 1,17,-1
 231 374 l 1,18,-1
 233 376 l 1,19,-1
 235 378 l 1,20,-1
 253 393 l 2,21,22
 261 399 261 399 264 398 c 2,23,-1
 272 394 l 2,24,25
 276 392 276 392 284 386 c 1,26,-1
 285 385 l 2,27,28
 286 384 286 384 287 384 c 0,29,30
 288 383 288 383 289 383 c 0,31,32
 299 375 299 375 303 372 c 2,33,-1
 309 367 l 1,34,-1
 279 88 l 2,0,1
336 660 m 1,35,-1
 308 450 l 1,36,-1
 302 445 l 2,37,38
 296 440 296 440 290 434 c 0,39,40
 289 433 289 433 288 433 c 2,41,-1
 286 431 l 2,42,43
 285 430 285 430 282.5 428 c 128,-1,44
 280 426 280 426 278 424.5 c 128,-1,45
 276 423 276 423 274 422 c 0,46,47
 268 419 268 419 266 419 c 0,48,49
 262 420 262 420 255 426 c 0,50,51
 245 434 245 434 239 440 c 2,52,-1
 238 441 l 2,53,54
 238 442 238 442 237 443 c 128,-1,55
 236 444 236 444 235 444 c 2,56,-1
 234 445 l 1,57,58
 222 459 222 459 217 464 c 2,59,-1
 210 472 l 1,60,-1
 235 660 l 1,61,-1
 336 660 l 1,35,-1
31 763 m 1,62,63
 31 763 31 763 34 765 c 2,64,-1
 40 771 l 1,65,-1
 50 776 l 2,66,67
 54 778 54 778 62 778 c 2,68,-1
 498 778 l 1,69,-1
 503 777 l 2,70,71
 514 774 514 774 515 772 c 0,72,73
 516 771 516 771 521 768 c 0,74,75
 525 766 525 766 527 765 c 0,76,77
 532 762 532 762 532 758 c 0,78,79
 532 755 532 755 523 743 c 0,80,81
 520 739 520 739 512.5 730.5 c 128,-1,82
 505 722 505 722 501 717 c 1,83,84
 501 715 501 715 500 715 c 128,-1,85
 499 715 499 715 498 714 c 0,86,87
 494 709 494 709 485.5 700 c 128,-1,88
 477 691 477 691 473 687 c 2,89,-1
 463 676 l 1,90,-1
 111 676 l 1,91,-1
 31 763 l 1,62,63
EndSplineSet
Validated: 1
EndChar

StartChar: U
Encoding: 85 85 52
Width: 563
Flags: W
LayerCount: 2
Fore
SplineSet
475 149 m 2,0,1
 474 142 474 142 472 138 c 0,2,3
 468 130 468 130 454 112 c 1,4,5
 454 112 454 112 440 98 c 1,6,7
 421 86 421 86 415 86 c 0,8,9
 414 86 414 86 413 87 c 2,10,-1
 412 88 l 2,11,12
 408 93 408 93 400 101.5 c 128,-1,13
 392 110 392 110 388 114 c 2,14,-1
 377 126 l 1,15,-1
 401 348 l 1,16,-1
 409 356 l 1,17,-1
 427 374 l 1,18,-1
 429 376 l 1,19,-1
 431 378 l 1,20,-1
 449 393 l 2,21,22
 457 400 457 400 460 398 c 2,23,-1
 468 394 l 2,24,25
 472 392 472 392 480 386 c 1,26,-1
 481 385 l 2,27,28
 482 384 482 384 483 384 c 0,29,30
 484 383 484 383 485 383 c 0,31,32
 495 375 495 375 499 372 c 2,33,-1
 505 367 l 1,34,-1
 475 149 l 2,0,1
504 450 m 1,35,-1
 498 445 l 2,36,37
 492 440 492 440 486 434 c 0,38,39
 485 433 485 433 484 433 c 2,40,-1
 482 431 l 2,41,42
 481 430 481 430 478.5 428 c 128,-1,43
 476 426 476 426 474 424.5 c 128,-1,44
 472 423 472 423 470 422 c 0,45,46
 464 419 464 419 462 419 c 0,47,48
 458 420 458 420 451 426 c 0,49,50
 441 434 441 434 435 440 c 2,51,-1
 434 441 l 2,52,53
 434 442 434 442 433 443 c 128,-1,54
 432 444 432 444 431 444 c 2,55,-1
 430 445 l 1,56,57
 418 459 418 459 413 464 c 2,58,-1
 406 472 l 1,59,-1
 431 668 l 1,60,-1
 441 679 l 1,61,62
 444 684 444 684 452 693 c 128,-1,63
 460 702 460 702 463 706 c 2,64,-1
 465 708 l 1,65,-1
 467 710 l 2,66,67
 473 716 473 716 484 703 c 0,68,69
 494 692 494 692 495 690 c 0,70,71
 500 685 500 685 504 678 c 0,72,73
 505 675 505 675 507 673 c 0,74,75
 511 669 511 669 513 666 c 2,76,-1
 517 662 l 2,77,78
 518 661 518 661 519 659 c 128,-1,79
 520 657 520 657 521 656 c 0,80,81
 522 654 522 654 525 650 c 0,82,83
 528 644 528 644 529 643 c 2,84,-1
 532 636 l 1,85,-1
 504 450 l 1,35,-1
104 66 m 1,86,-1
 145 112 l 1,87,-1
 367 112 l 1,88,-1
 406 68 l 1,89,-1
 372 33 l 2,90,91
 368 29 368 29 365 27 c 2,92,-1
 361 23 l 1,93,-1
 357 19 l 1,94,95
 357 19 357 19 355 18 c 128,-1,96
 353 17 353 17 352 17 c 0,97,98
 350 16 350 16 348 16 c 2,99,-1
 182 16 l 2,100,101
 174 16 174 16 168 19 c 2,102,-1
 156 25 l 1,103,104
 130 46 130 46 104 66 c 1,86,-1
62 375 m 1,105,106
 63 374 63 374 67 378 c 2,107,-1
 76 387 l 1,108,-1
 78 389 l 1,109,-1
 79 390 l 2,110,111
 80 390 80 390 81 391 c 2,112,-1
 90 397 l 2,113,114
 93 399 93 399 96 398 c 2,115,-1
 98 397 l 2,116,117
 99 396 99 396 101.5 394 c 128,-1,118
 104 392 104 392 107 390 c 0,119,120
 113 385 113 385 126 372 c 2,121,-1
 127 371 l 2,122,123
 128 370 128 370 128 370 c 1,124,-1
 148 350 l 1,125,-1
 157 341 l 1,126,-1
 135 125 l 1,127,-1
 91 78 l 1,128,129
 90 79 90 79 73 98 c 128,-1,130
 56 117 56 117 54 119 c 0,131,132
 49 124 49 124 48 126 c 0,133,134
 41 139 41 139 40 141 c 0,135,136
 37 149 37 149 33 159 c 1,137,138
 31 161 31 161 31 164 c 2,139,-1
 31 168 l 1,140,-1
 62 375 l 1,105,106
95 664 m 1,141,142
 97 666 97 666 97 667 c 128,-1,143
 97 668 97 668 98 671 c 0,144,145
 102 683 102 683 111 694 c 2,146,-1
 140 731 l 1,147,-1
 190 670 l 1,148,-1
 169 478 l 1,149,-1
 159 470 l 2,150,151
 148 462 148 462 135 452 c 1,152,153
 136 452 136 452 135 451 c 1,154,-1
 133 451 l 1,155,156
 123 442 123 442 110 433 c 0,157,158
 98 425 98 425 98 425 c 1,159,-1
 93 430 l 2,160,161
 87 436 87 436 86 438 c 2,162,-1
 85 440 l 1,163,-1
 84 442 l 1,164,-1
 82 444 l 1,165,-1
 73 459 l 1,166,-1
 70 465 l 1,167,-1
 95 664 l 1,141,142
EndSplineSet
Validated: 1
EndChar

StartChar: V
Encoding: 86 86 53
Width: 563
Flags: W
LayerCount: 2
Fore
SplineSet
312 40 m 1,0,1
 312 40 312 40 302 35 c 0,2,3
 294 31 294 31 276 31 c 0,4,5
 273 31 273 31 269 31 c 1,6,7
 264 45 264 45 267 49 c 0,8,9
 274 59 274 59 274 68 c 0,10,11
 274 75 274 75 268 81 c 0,12,13
 267 82 267 82 267 84 c 2,14,-1
 267 85 l 1,15,16
 268 91 268 91 268 103 c 0,17,18
 269 115 269 115 269 120 c 2,19,-1
 270 137 l 1,20,-1
 394 375 l 1,21,-1
 406 375 l 1,22,-1
 431 375 l 1,23,-1
 434 375 l 1,24,-1
 437 375 l 1,25,-1
 460 372 l 1,26,27
 470 372 470 372 471 368 c 2,28,-1
 474 360 l 2,29,30
 476 356 476 356 477 346 c 1,31,-1
 477 344 l 2,32,33
 477 343 477 343 478 342 c 1,34,35
 478 340 478 340 478 340 c 1,36,37
 480 327 480 327 480 322 c 2,38,-1
 481 314 l 1,39,-1
 312 40 l 1,0,1
504 450 m 1,40,-1
 498 445 l 2,41,42
 494 442 494 442 486 434 c 0,43,44
 485 433 485 433 484 433 c 2,45,-1
 482 431 l 2,46,47
 481 430 481 430 478.5 428 c 128,-1,48
 476 426 476 426 474 424.5 c 128,-1,49
 472 423 472 423 470 422 c 0,50,51
 464 419 464 419 462 419 c 0,52,53
 458 420 458 420 451 426 c 0,54,55
 441 434 441 434 435 440 c 2,56,-1
 434 441 l 2,57,58
 434 442 434 442 433 443 c 128,-1,59
 432 444 432 444 431 444 c 2,60,-1
 430 445 l 1,61,62
 418 459 418 459 413 464 c 2,63,-1
 406 472 l 1,64,-1
 431 668 l 1,65,-1
 441 679 l 1,66,67
 444 684 444 684 452 693 c 128,-1,68
 460 702 460 702 463 706 c 2,69,-1
 465 708 l 1,70,-1
 467 710 l 2,71,72
 471 714 471 714 478 721.5 c 128,-1,73
 485 729 485 729 488 732 c 0,74,75
 498 742 498 742 502 742 c 0,76,77
 505 742 505 742 507 740 c 0,78,79
 511 736 511 736 513 733 c 2,80,-1
 517 729 l 2,81,82
 518 728 518 728 519 726 c 128,-1,83
 520 724 520 724 521 723 c 0,84,85
 522 721 522 721 525 716.5 c 128,-1,86
 528 712 528 712 529 710 c 2,87,-1
 532 703 l 1,88,-1
 504 450 l 1,40,-1
70 341 m 1,89,90
 72 341 72 341 72 347 c 2,91,-1
 72 360 l 1,92,-1
 72 363 l 1,93,94
 72 363 72 363 72 364 c 128,-1,95
 72 365 72 365 72 366 c 2,96,-1
 75 377 l 1,97,98
 75 381 75 381 78 382 c 1,99,-1
 80 382 l 2,100,101
 82 382 82 382 85 383 c 0,102,103
 88 383 88 383 91 384 c 128,-1,104
 94 385 94 385 118 385 c 2,105,-1
 119 385 l 2,106,107
 120 385 120 385 120 385 c 1,108,-1
 149 385 l 1,109,-1
 162 385 l 1,110,-1
 223 141 l 1,111,-1
 226 30 l 1,112,113
 223 30 223 30 223 30 c 1,114,115
 221 32 221 32 219 31 c 0,116,117
 214 30 214 30 210 31 c 0,118,119
 198 35 198 35 194 36 c 0,120,121
 188 38 188 38 176 44 c 1,122,123
 173 44 173 44 171 46 c 2,124,-1
 168 49 l 1,125,-1
 70 341 l 1,89,90
95 714 m 1,126,127
 97 716 97 716 97 717 c 0,128,129
 97 720 97 720 98 721 c 0,130,131
 103 736 103 736 111 744 c 2,132,-1
 117 750 l 1,133,-1
 190 670 l 1,134,-1
 169 478 l 1,135,-1
 159 470 l 2,136,137
 148 462 148 462 135 452 c 1,138,139
 136 452 136 452 135 451 c 1,140,-1
 133 451 l 1,141,142
 123 442 123 442 110 433 c 0,143,144
 99 425 99 425 98 425 c 2,145,-1
 93 430 l 2,146,147
 88 435 88 435 86 438 c 2,148,-1
 85 440 l 1,149,-1
 84 442 l 1,150,-1
 82 444 l 1,151,-1
 73 459 l 1,152,-1
 70 465 l 1,153,-1
 95 714 l 1,126,127
EndSplineSet
Validated: 1
EndChar

StartChar: W
Encoding: 87 87 54
Width: 889
Flags: W
LayerCount: 2
Fore
SplineSet
801 149 m 2,0,1
 800 146 800 146 798 138 c 0,2,3
 796 132 796 132 781 112 c 1,4,5
 781 112 781 112 766 98 c 1,6,7
 747 86 747 86 741 86 c 0,8,9
 740 86 740 86 739 87 c 2,10,-1
 738 88 l 1,11,12
 730 98 730 98 726 102 c 0,13,14
 718 110 718 110 714 114 c 2,15,-1
 703 126 l 1,16,-1
 727 348 l 1,17,-1
 735 356 l 1,18,-1
 753 374 l 1,19,-1
 755 376 l 1,20,-1
 757 378 l 1,21,-1
 775 393 l 2,22,23
 783 400 783 400 786 398 c 2,24,-1
 794 394 l 2,25,26
 798 392 798 392 806 386 c 1,27,-1
 807 385 l 2,28,29
 808 384 808 384 809 384 c 0,30,31
 810 383 810 383 811 383 c 0,32,33
 821 375 821 375 825 372 c 2,34,-1
 831 367 l 1,35,-1
 801 149 l 2,0,1
830 450 m 1,36,-1
 824 445 l 2,37,38
 818 440 818 440 812 434 c 0,39,40
 811 433 811 433 810 433 c 2,41,-1
 808 431 l 2,42,43
 805 428 805 428 805 428 c 2,44,45
 802 426 802 426 800 424 c 0,46,47
 796 422 796 422 796 422 c 2,48,49
 791 419 791 419 788 419 c 0,50,51
 786 419 786 419 777 426 c 0,52,53
 767 434 767 434 761 440 c 2,54,-1
 760 441 l 2,55,56
 760 442 760 442 759 443 c 128,-1,57
 758 444 758 444 757 444 c 2,58,-1
 756 445 l 1,59,60
 744 459 744 459 739 464 c 2,61,-1
 732 472 l 1,62,-1
 757 668 l 1,63,-1
 767 679 l 1,64,65
 770 684 770 684 778 693 c 128,-1,66
 786 702 786 702 789 706 c 2,67,-1
 791 708 l 1,68,-1
 793 710 l 2,69,70
 800 717 800 717 811 703 c 0,71,72
 820 692 820 692 821 690 c 0,73,74
 826 686 826 686 830 678 c 0,75,76
 832 674 832 674 833 673 c 0,77,78
 837 669 837 669 839 666 c 2,79,-1
 843 662 l 2,80,81
 844 661 844 661 845 659 c 128,-1,82
 846 657 846 657 847 656 c 0,83,84
 848 654 848 654 851 650 c 128,-1,85
 854 646 854 646 855 643 c 2,86,-1
 858 636 l 1,87,-1
 830 450 l 1,36,-1
732 68 m 1,88,-1
 698 33 l 2,89,90
 694 29 694 29 691 27 c 2,91,-1
 687 23 l 1,92,-1
 683 19 l 1,93,94
 683 19 683 19 681 18 c 128,-1,95
 679 17 679 17 678 17 c 0,96,97
 676 16 676 16 674 16 c 2,98,-1
 509 16 l 2,99,100
 501 16 501 16 495 19 c 2,101,-1
 483 25 l 2,102,103
 479 27 479 27 478 28 c 128,-1,104
 477 29 477 29 474 31 c 2,105,-1
 430 66 l 1,106,-1
 471 112 l 1,107,-1
 693 112 l 1,108,-1
 732 68 l 1,88,-1
475 149 m 2,109,110
 474 142 474 142 472 138 c 0,111,112
 468 130 468 130 454 112 c 1,113,-1
 440 98 l 1,114,115
 421 86 421 86 415 86 c 0,116,117
 414 86 414 86 413 87 c 2,118,-1
 412 88 l 2,119,120
 408 93 408 93 400 101.5 c 128,-1,121
 392 110 392 110 388 114 c 2,122,-1
 377 126 l 1,123,-1
 401 348 l 1,124,-1
 409 356 l 1,125,-1
 427 374 l 1,126,-1
 429 376 l 1,127,-1
 431 378 l 1,128,-1
 449 393 l 2,129,130
 457 400 457 400 460 398 c 2,131,-1
 468 394 l 2,132,133
 472 392 472 392 480 386 c 1,134,-1
 481 385 l 2,135,136
 482 384 482 384 483 384 c 0,137,138
 484 383 484 383 485 383 c 0,139,140
 495 375 495 375 499 372 c 2,141,-1
 505 367 l 1,142,-1
 475 149 l 2,109,110
504 450 m 1,143,-1
 498 445 l 2,144,145
 492 440 492 440 486 434 c 0,146,147
 485 433 485 433 484 433 c 2,148,-1
 482 431 l 2,149,150
 481 430 481 430 478.5 428 c 128,-1,151
 476 426 476 426 474 424.5 c 128,-1,152
 472 423 472 423 470 422 c 0,153,154
 464 419 464 419 462 419 c 0,155,156
 458 420 458 420 451 426 c 0,157,158
 441 434 441 434 435 440 c 2,159,-1
 434 441 l 2,160,161
 434 442 434 442 433 443 c 128,-1,162
 432 444 432 444 431 444 c 2,163,-1
 430 445 l 1,164,165
 418 459 418 459 413 464 c 2,166,-1
 406 472 l 1,167,-1
 431 668 l 1,168,-1
 441 679 l 1,169,170
 444 684 444 684 452 693 c 128,-1,171
 460 702 460 702 463 706 c 2,172,-1
 465 708 l 1,173,-1
 467 710 l 2,174,175
 473 716 473 716 484 703 c 0,176,177
 494 692 494 692 495 690 c 0,178,179
 500 685 500 685 504 678 c 0,180,181
 505 675 505 675 507 673 c 0,182,183
 511 669 511 669 513 666 c 2,184,-1
 517 662 l 2,185,186
 518 661 518 661 519 659 c 128,-1,187
 520 657 520 657 521 656 c 0,188,189
 522 654 522 654 525 650 c 0,190,191
 528 644 528 644 529 643 c 2,192,-1
 532 636 l 1,193,-1
 504 450 l 1,143,-1
104 66 m 1,194,-1
 145 112 l 1,195,-1
 367 112 l 1,196,-1
 406 68 l 1,197,-1
 372 33 l 2,198,199
 368 29 368 29 365 27 c 2,200,-1
 361 23 l 1,201,-1
 357 19 l 1,202,203
 357 19 357 19 355 18 c 128,-1,204
 353 17 353 17 352 17 c 0,205,206
 350 16 350 16 348 16 c 2,207,-1
 182 16 l 2,208,209
 174 16 174 16 168 19 c 2,210,-1
 156 25 l 2,211,212
 146 30 146 30 104 66 c 1,194,-1
62 375 m 1,213,214
 63 374 63 374 67 378 c 2,215,-1
 76 387 l 1,216,-1
 78 389 l 1,217,-1
 79 390 l 2,218,219
 80 390 80 390 81 391 c 2,220,-1
 90 397 l 2,221,222
 93 399 93 399 96 398 c 2,223,-1
 98 397 l 2,224,225
 99 396 99 396 101.5 394 c 128,-1,226
 104 392 104 392 107 390 c 0,227,228
 113 385 113 385 126 372 c 2,229,-1
 127 371 l 2,230,231
 128 370 128 370 128 370 c 1,232,-1
 148 350 l 1,233,-1
 157 341 l 1,234,-1
 135 125 l 1,235,-1
 91 78 l 1,236,237
 90 79 90 79 73 98 c 128,-1,238
 56 117 56 117 54 119 c 0,239,240
 49 124 49 124 48 126 c 0,241,242
 41 139 41 139 40 141 c 0,243,244
 37 149 37 149 33 159 c 1,245,246
 31 161 31 161 31 164 c 2,247,-1
 31 168 l 1,248,-1
 62 375 l 1,213,214
95 664 m 1,249,250
 97 666 97 666 97 667 c 128,-1,251
 97 668 97 668 98 671 c 0,252,253
 102 683 102 683 111 694 c 2,254,-1
 140 731 l 1,255,-1
 190 670 l 1,256,-1
 169 478 l 1,257,-1
 159 470 l 2,258,259
 148 462 148 462 135 452 c 1,260,261
 136 452 136 452 135 451 c 1,262,-1
 133 451 l 1,263,264
 123 442 123 442 110 433 c 0,265,266
 98 425 98 425 98 425 c 1,267,-1
 93 430 l 2,268,269
 87 436 87 436 86 438 c 2,270,-1
 85 440 l 1,271,-1
 84 442 l 1,272,-1
 82 444 l 1,273,-1
 73 459 l 1,274,-1
 70 465 l 1,275,-1
 95 664 l 1,249,250
EndSplineSet
Validated: 1
EndChar

StartChar: X
Encoding: 88 88 55
Width: 563
Flags: W
LayerCount: 2
Fore
SplineSet
188 375 m 2,0,1
 190 380 190 380 196 383 c 0,2,3
 203 387 203 387 217 387 c 1,4,5
 226 386 226 386 230 386 c 1,6,7
 235 377 235 377 234 366 c 0,8,9
 232 343 232 343 232 336 c 0,10,11
 232 334 232 334 232 334 c 1,12,13
 233 333 233 333 233 332 c 2,14,-1
 233 330 l 1,15,16
 232 324 232 324 232 312 c 0,17,18
 232 301 232 301 232 295 c 2,19,-1
 231 279 l 1,20,-1
 118 32 l 1,21,-1
 107 32 l 1,22,-1
 81 32 l 1,23,-1
 79 32 l 1,24,-1
 76 32 l 1,25,-1
 52 35 l 1,26,27
 42 35 42 35 41 39 c 2,28,-1
 38 47 l 2,29,30
 37 52 37 52 35 61 c 1,31,-1
 35 63 l 2,32,33
 35 65 35 65 35 65 c 1,34,35
 34 67 34 67 34 67 c 129,-1,36
 34 67 34 67 32 85 c 2,37,-1
 31 93 l 1,38,-1
 188 375 l 2,0,1
442 66 m 2,39,40
 441 66 441 66 441 60 c 2,41,-1
 441 47 l 1,42,-1
 441 44 l 2,43,44
 441 43 441 43 441 43 c 1,45,46
 440 43 440 43 440 41 c 2,47,-1
 438 30 l 2,48,49
 437 26 437 26 434 25 c 1,50,-1
 432 25 l 2,51,52
 431 25 431 25 428 24 c 1,53,54
 424 24 424 24 421 23 c 128,-1,55
 418 22 418 22 395 22 c 2,56,-1
 393 22 l 1,57,58
 393 22 393 22 392 22 c 2,59,-1
 364 22 l 1,60,-1
 351 22 l 1,61,-1
 277 274 l 1,62,-1
 275 385 l 2,63,64
 276 385 276 385 277 385 c 0,65,66
 279 385 279 385 281 385 c 0,67,68
 288 385 288 385 291 384 c 0,69,70
 306 379 306 379 307 379 c 0,71,72
 309 379 309 379 325 371 c 0,73,74
 327 371 327 371 330 369 c 1,75,-1
 332 366 l 1,76,-1
 442 66 l 2,39,40
324 434 m 1,77,78
 320 430 320 430 314 428 c 0,79,80
 306 425 306 425 289 425 c 0,81,82
 286 425 286 425 280 425 c 1,83,84
 277 434 277 434 278 443 c 0,85,86
 280 466 280 466 280 473 c 0,87,88
 280 475 280 475 280 475 c 1,89,90
 279 476 279 476 279 477 c 2,91,-1
 279 479 l 1,92,93
 280 485 280 485 280 497 c 0,94,95
 280 508 280 508 280 514 c 2,96,-1
 281 530 l 1,97,-1
 394 767 l 1,98,-1
 406 767 l 1,99,-1
 431 767 l 1,100,-1
 434 767 l 1,101,-1
 437 767 l 1,102,-1
 460 764 l 2,103,104
 470 763 470 763 471 760 c 2,105,-1
 474 752 l 2,106,107
 476 747 476 747 477 738 c 1,108,-1
 477 736 l 2,109,110
 477 735 477 735 478 734 c 1,111,112
 478 732 478 732 478 732 c 1,113,114
 480 719 480 719 480 714 c 2,115,-1
 481 706 l 1,116,-1
 324 434 l 1,77,78
70 733 m 1,117,118
 72 733 72 733 72 739 c 2,119,-1
 72 752 l 1,120,-1
 72 755 l 1,121,122
 72 755 72 755 72 756 c 128,-1,123
 72 757 72 757 72 758 c 2,124,-1
 75 769 l 1,125,126
 75 773 75 773 78 774 c 1,127,-1
 80 774 l 2,128,129
 82 774 82 774 85 775 c 0,130,131
 88 775 88 775 91 776 c 128,-1,132
 94 777 94 777 118 777 c 2,133,-1
 119 777 l 2,134,135
 120 777 120 777 120 777 c 1,136,-1
 149 777 l 1,137,-1
 162 777 l 1,138,-1
 235 535 l 1,139,-1
 237 424 l 2,140,141
 236 424 236 424 235 424 c 0,142,143
 233 424 233 424 231 424 c 0,144,145
 225 424 225 424 222 425 c 1,146,147
 218 425 218 425 205 430 c 0,148,149
 197 433 197 433 188 438 c 1,150,151
 185 438 185 438 183 440 c 2,152,-1
 180 443 l 1,153,-1
 70 733 l 1,117,118
EndSplineSet
Validated: 1
EndChar

StartChar: Y
Encoding: 89 89 56
Width: 563
Flags: W
LayerCount: 2
Fore
SplineSet
279 88 m 2,0,1
 279 86 279 86 276 77 c 0,2,3
 273 67 273 67 255 51 c 1,4,5
 249 54 249 54 241 62 c 0,6,7
 235 68 235 68 219 86 c 0,8,9
 218 86 218 86 217 87 c 2,10,-1
 216 88 l 2,11,12
 212 93 212 93 204 101.5 c 128,-1,13
 196 110 196 110 192 114 c 2,14,-1
 181 126 l 1,15,-1
 205 348 l 1,16,-1
 213 356 l 1,17,-1
 231 374 l 1,18,-1
 233 376 l 1,19,-1
 235 378 l 1,20,-1
 253 393 l 2,21,22
 261 399 261 399 264 398 c 2,23,-1
 272 394 l 2,24,25
 276 392 276 392 284 386 c 1,26,-1
 285 385 l 2,27,28
 286 384 286 384 287 384 c 0,29,30
 288 383 288 383 289 383 c 0,31,32
 299 375 299 375 303 372 c 2,33,-1
 309 367 l 1,34,-1
 279 88 l 2,0,1
312 432 m 1,35,36
 312 432 312 432 302 427 c 0,37,38
 294 423 294 423 276 423 c 0,39,40
 273 423 273 423 269 423 c 1,41,42
 266 431 266 431 267 441 c 0,43,44
 268 460 268 460 268 473 c 1,45,46
 267 474 267 474 267 476 c 2,47,-1
 267 477 l 1,48,49
 268 483 268 483 268 495 c 0,50,51
 269 507 269 507 269 512 c 2,52,-1
 270 529 l 1,53,-1
 394 767 l 1,54,-1
 406 767 l 1,55,-1
 431 767 l 1,56,-1
 434 767 l 1,57,-1
 437 767 l 1,58,-1
 460 764 l 2,59,60
 470 763 470 763 471 760 c 2,61,-1
 474 752 l 2,62,63
 476 747 476 747 477 738 c 1,64,-1
 477 736 l 2,65,66
 477 735 477 735 478 734 c 1,67,68
 478 732 478 732 478 732 c 1,69,70
 480 719 480 719 480 714 c 2,71,-1
 481 706 l 1,72,-1
 312 432 l 1,35,36
70 733 m 1,73,74
 72 733 72 733 72 739 c 2,75,-1
 72 752 l 1,76,-1
 72 755 l 1,77,78
 72 755 72 755 72 756 c 128,-1,79
 72 757 72 757 72 758 c 2,80,-1
 75 769 l 1,81,82
 75 773 75 773 78 774 c 1,83,-1
 80 774 l 2,84,85
 82 774 82 774 85 775 c 0,86,87
 88 775 88 775 91 776 c 128,-1,88
 94 777 94 777 118 777 c 2,89,-1
 119 777 l 2,90,91
 120 777 120 777 120 777 c 1,92,-1
 149 777 l 1,93,-1
 162 777 l 1,94,-1
 223 533 l 1,95,-1
 226 422 l 1,96,97
 223 422 223 422 223 422 c 1,98,99
 221 424 221 424 219 423 c 0,100,101
 215 422 215 422 210 423 c 0,102,103
 199 426 199 426 194 428 c 0,104,105
 186 431 186 431 176 436 c 1,106,107
 173 436 173 436 171 438 c 2,108,-1
 168 441 l 1,109,-1
 70 733 l 1,73,74
EndSplineSet
Validated: 1
EndChar

StartChar: Z
Encoding: 90 90 57
Width: 563
Flags: W
LayerCount: 2
Fore
SplineSet
275 429 m 2,0,1
 276 429 276 429 280 415 c 0,2,3
 297 356 297 356 297 354 c 1,4,-1
 298 353 l 1,5,6
 298 351 298 351 297 352 c 1,7,8
 302 336 302 336 305 323 c 2,9,-1
 308 310 l 1,10,-1
 188 128 l 1,11,-1
 100 128 l 1,12,-1
 99 137 l 2,13,14
 98 146 98 146 103 163 c 0,15,16
 104 165 104 165 104 167 c 1,17,18
 105 168 105 168 105 170 c 1,19,-1
 238 382 l 1,20,-1
 247 404 l 1,21,-1
 261 426 l 1,22,-1
 264 426 l 1,23,-1
 275 429 l 2,0,1
349 380 m 1,24,-1
 336 360 l 2,25,26
 331 354 331 354 331 354 c 1,27,28
 327 352 327 352 327 353 c 0,29,30
 314 390 314 390 314 400 c 0,31,32
 314 401 314 401 314 402 c 0,33,34
 314 410 314 410 310 416 c 0,35,36
 308 419 308 419 307 430 c 1,37,-1
 306 433 l 1,38,-1
 306 436 l 1,39,40
 305 448 305 448 304 450 c 128,-1,41
 303 452 303 452 304 466 c 1,42,-1
 302 481 l 1,43,-1
 402 649 l 1,44,-1
 412 651 l 2,45,46
 419 652 419 652 437 655 c 1,47,-1
 439 655 l 1,48,49
 439 655 439 655 441 655 c 0,50,51
 442 655 442 655 443 656 c 1,52,-1
 444 656 l 1,53,54
 453 657 453 657 465 657 c 0,55,56
 475 657 475 657 478 656 c 0,57,58
 481 656 481 656 483 649 c 0,59,60
 484 645 484 645 484 644 c 2,61,62
 484 644 484 644 486 639 c 0,63,64
 487 636 487 636 487 634 c 2,65,-1
 487 631 l 1,66,67
 488 631 488 631 488 629 c 0,68,69
 488 625 488 625 491 613 c 1,70,-1
 492 606 l 1,71,-1
 349 380 l 1,24,-1
131 763 m 1,72,-1
 134 765 l 1,73,-1
 140 771 l 1,74,-1
 150 776 l 2,75,76
 154 778 154 778 162 778 c 2,77,-1
 498 778 l 1,78,-1
 503 777 l 2,79,80
 514 774 514 774 515 772 c 0,81,82
 516 771 516 771 521 768 c 0,83,84
 525 766 525 766 527 765 c 0,85,86
 532 762 532 762 532 758 c 0,87,88
 532 755 532 755 523 743 c 0,89,90
 520 739 520 739 512.5 730.5 c 128,-1,91
 505 722 505 722 501 717 c 1,92,93
 501 715 501 715 500 715 c 128,-1,94
 499 715 499 715 498 714 c 0,95,96
 494 709 494 709 485.5 700 c 128,-1,97
 477 691 477 691 473 687 c 2,98,-1
 463 676 l 1,99,-1
 211 676 l 1,100,-1
 131 763 l 1,72,-1
438 36 m 1,101,-1
 436 33 l 1,102,103
 432 29 432 29 429 27 c 2,104,-1
 425 23 l 1,105,-1
 421 19 l 2,106,107
 420 18 420 18 419 18 c 0,108,109
 417 17 417 17 416 17 c 0,110,111
 414 16 414 16 412 16 c 2,112,-1
 69 16 l 2,113,114
 61 16 61 16 55 19 c 2,115,-1
 43 25 l 2,116,117
 41 26 41 26 38 28 c 128,-1,118
 35 30 35 30 34 31 c 2,119,-1
 31 34 l 1,120,-1
 105 112 l 1,121,-1
 367 112 l 1,122,-1
 438 36 l 1,101,-1
EndSplineSet
Validated: 1
EndChar

StartChar: bracketleft
Encoding: 91 91 58
Width: 563
Flags: W
LayerCount: 2
Fore
SplineSet
131 763 m 1,0,1
 131 763 131 763 134 765 c 2,2,-1
 140 771 l 1,3,-1
 150 776 l 2,4,5
 154 778 154 778 162 778 c 2,6,-1
 449 778 l 1,7,-1
 454 777 l 2,8,9
 458 776 458 776 466 772 c 0,10,11
 468 771 468 771 472 768.5 c 128,-1,12
 476 766 476 766 478 765 c 0,13,14
 483 762 483 762 483 758 c 0,15,16
 483 755 483 755 474 743 c 0,17,18
 471 739 471 739 463.5 730.5 c 128,-1,19
 456 722 456 722 452 717 c 1,20,21
 452 715 452 715 451 715 c 128,-1,22
 450 715 450 715 449 714 c 0,23,24
 445 709 445 709 436.5 700 c 128,-1,25
 428 691 428 691 424 687 c 2,26,-1
 414 676 l 1,27,-1
 211 676 l 1,28,-1
 131 763 l 1,0,1
438 36 m 1,29,30
 438 36 438 36 436 33 c 0,31,32
 432 29 432 29 429 27 c 2,33,-1
 425 23 l 1,34,-1
 421 19 l 2,35,36
 420 18 420 18 419 18 c 0,37,38
 417 17 417 17 416 17 c 0,39,40
 414 16 414 16 412 16 c 2,41,-1
 109 16 l 2,42,43
 101 16 101 16 95 19 c 2,44,-1
 83 25 l 2,45,46
 81 26 81 26 78 28 c 128,-1,47
 75 30 75 30 74 31 c 2,48,-1
 71 34 l 1,49,-1
 145 112 l 1,50,-1
 367 112 l 1,51,-1
 438 36 l 1,29,30
62 375 m 1,52,53
 63 374 63 374 67 378 c 2,54,-1
 76 387 l 1,55,-1
 78 389 l 2,56,57
 78 390 78 390 79 390 c 128,-1,58
 80 390 80 390 81 391 c 2,59,-1
 90 397 l 2,60,61
 94 400 94 400 96 398 c 2,62,-1
 98 397 l 2,63,64
 99 396 99 396 101.5 394 c 128,-1,65
 104 392 104 392 107 390 c 0,66,67
 113 385 113 385 126 372 c 2,68,-1
 127 371 l 2,69,70
 128 371 128 371 128 370 c 2,71,-1
 148 350 l 1,72,-1
 157 341 l 1,73,-1
 135 125 l 1,74,-1
 58 45 l 1,75,76
 57 46 57 46 56.5 47 c 128,-1,77
 56 48 56 48 54 50 c 0,78,79
 50 54 50 54 48 57 c 0,80,81
 46 59 46 59 40 72 c 0,82,83
 37 78 37 78 33 90 c 1,84,85
 31 92 31 92 31 95 c 2,86,-1
 31 99 l 1,87,-1
 62 375 l 1,52,53
95 714 m 1,88,89
 97 716 97 716 97 717 c 0,90,91
 97 720 97 720 98 721 c 0,92,93
 103 736 103 736 111 744 c 2,94,-1
 117 750 l 1,95,-1
 190 670 l 1,96,-1
 169 478 l 1,97,-1
 159 470 l 2,98,99
 148 462 148 462 135 452 c 1,100,101
 136 452 136 452 135 451 c 1,102,-1
 133 451 l 1,103,104
 123 442 123 442 110 433 c 0,105,106
 99 425 99 425 98 425 c 2,107,-1
 93 430 l 2,108,109
 88 435 88 435 86 438 c 2,110,-1
 85 440 l 1,111,-1
 84 442 l 1,112,-1
 82 444 l 1,113,-1
 73 459 l 1,114,-1
 70 465 l 1,115,-1
 95 714 l 1,88,89
EndSplineSet
Validated: 1
EndChar

StartChar: backslash
Encoding: 92 92 59
Width: 563
Flags: W
LayerCount: 2
Fore
SplineSet
50 756 m 1,0,1
 52 768 52 768 52 769 c 2,2,-1
 55 777 l 2,3,4
 56 781 56 781 66 781 c 1,5,-1
 90 784 l 1,6,-1
 93 784 l 1,7,-1
 95 784 l 1,8,-1
 121 784 l 1,9,-1
 132 784 l 1,10,-1
 245 537 l 1,11,-1
 246 521 l 1,12,-1
 246 504 l 1,13,14
 247 492 247 492 247 486 c 2,15,-1
 247 484 l 1,16,-1
 246 482 l 2,17,18
 246 481 246 481 245 477 c 1,19,20
 245 469 245 469 248 450 c 0,21,22
 249 443 249 443 246 432 c 1,23,24
 240 432 240 432 237 432 c 0,25,26
 219 432 219 432 213 435 c 0,27,28
 203 440 203 440 203 441 c 2,29,-1
 50 756 l 1,0,1
338 382 m 1,30,-1
 495 110 l 1,31,-1
 494 102 l 2,32,33
 494 97 494 97 492 84 c 1,34,35
 492 84 492 84 492 82 c 1,36,37
 491 81 491 81 491 80 c 2,38,-1
 491 78 l 1,39,40
 490 69 490 69 488 64 c 2,41,-1
 485 56 l 2,42,43
 484 53 484 53 474 52 c 2,44,-1
 451 49 l 1,45,-1
 448 49 l 1,46,-1
 445 49 l 1,47,-1
 420 49 l 1,48,-1
 408 49 l 1,49,-1
 295 286 l 1,50,-1
 294 302 l 2,51,52
 294 308 294 308 294 319 c 0,53,54
 294 331 294 331 293 337 c 1,55,-1
 293 339 l 2,56,57
 293 340 293 340 294 341 c 1,58,59
 294 341 294 341 294 343 c 0,60,61
 294 350 294 350 292 373 c 0,62,63
 291 382 291 382 294 391 c 1,64,65
 300 391 300 391 303 391 c 0,66,67
 320 391 320 391 328 388 c 0,68,69
 334 386 334 386 338 382 c 1,30,-1
EndSplineSet
Validated: 1
EndChar

StartChar: bracketright
Encoding: 93 93 60
Width: 563
Flags: W
LayerCount: 2
Fore
SplineSet
475 88 m 2,0,1
 475 86 475 86 472 77 c 0,2,3
 469 67 469 67 451 51 c 1,4,5
 445 54 445 54 437 62 c 0,6,7
 431 68 431 68 415 86 c 0,8,9
 414 86 414 86 413 87 c 2,10,-1
 412 88 l 2,11,12
 408 93 408 93 400 101.5 c 128,-1,13
 392 110 392 110 388 114 c 2,14,-1
 377 126 l 1,15,-1
 401 348 l 1,16,-1
 409 356 l 1,17,-1
 427 374 l 1,18,-1
 429 376 l 1,19,-1
 431 378 l 1,20,-1
 449 393 l 2,21,22
 457 399 457 399 460 398 c 2,23,-1
 468 394 l 2,24,25
 472 392 472 392 480 386 c 1,26,-1
 481 385 l 2,27,28
 482 384 482 384 483 384 c 0,29,30
 484 383 484 383 485 383 c 0,31,32
 495 375 495 375 499 372 c 2,33,-1
 505 367 l 1,34,-1
 475 88 l 2,0,1
504 450 m 1,35,-1
 498 445 l 2,36,37
 494 442 494 442 486 434 c 0,38,39
 485 433 485 433 484 433 c 2,40,-1
 482 431 l 2,41,42
 481 430 481 430 478.5 428 c 128,-1,43
 476 426 476 426 474 424.5 c 128,-1,44
 472 423 472 423 470 422 c 0,45,46
 464 419 464 419 462 419 c 0,47,48
 458 420 458 420 451 426 c 0,49,50
 441 434 441 434 435 440 c 2,51,-1
 434 441 l 2,52,53
 434 442 434 442 433 443 c 128,-1,54
 432 444 432 444 431 444 c 2,55,-1
 430 445 l 1,56,57
 418 459 418 459 413 464 c 2,58,-1
 406 472 l 1,59,-1
 431 668 l 1,60,-1
 441 679 l 1,61,62
 444 684 444 684 452 693 c 128,-1,63
 460 702 460 702 463 706 c 2,64,-1
 465 708 l 1,65,-1
 467 710 l 2,66,67
 471 714 471 714 478 721.5 c 128,-1,68
 485 729 485 729 488 732 c 0,69,70
 498 742 498 742 502 742 c 0,71,72
 505 742 505 742 507 740 c 0,73,74
 511 736 511 736 513 733 c 2,75,-1
 517 729 l 2,76,77
 518 728 518 728 519 726 c 128,-1,78
 520 724 520 724 521 723 c 0,79,80
 522 721 522 721 525 716.5 c 128,-1,81
 528 712 528 712 529 710 c 2,82,-1
 532 703 l 1,83,-1
 504 450 l 1,35,-1
131 763 m 1,84,85
 131 763 131 763 134 765 c 2,86,-1
 140 771 l 1,87,-1
 150 776 l 2,88,89
 154 778 154 778 162 778 c 2,90,-1
 449 778 l 1,91,-1
 454 777 l 2,92,93
 458 776 458 776 466 772 c 0,94,95
 468 771 468 771 472 768.5 c 128,-1,96
 476 766 476 766 478 765 c 0,97,98
 483 762 483 762 483 758 c 0,99,100
 483 755 483 755 474 743 c 0,101,102
 471 739 471 739 463.5 730.5 c 128,-1,103
 456 722 456 722 452 717 c 1,104,105
 452 715 452 715 451 715 c 128,-1,106
 450 715 450 715 449 714 c 0,107,108
 445 709 445 709 436.5 700 c 128,-1,109
 428 691 428 691 424 687 c 2,110,-1
 414 676 l 1,111,-1
 211 676 l 1,112,-1
 131 763 l 1,84,85
438 36 m 1,113,114
 438 36 438 36 436 33 c 0,115,116
 432 29 432 29 429 27 c 2,117,-1
 425 23 l 1,118,-1
 421 19 l 2,119,120
 420 18 420 18 419 18 c 0,121,122
 417 17 417 17 416 17 c 0,123,124
 414 16 414 16 412 16 c 2,125,-1
 109 16 l 2,126,127
 101 16 101 16 95 19 c 2,128,-1
 83 25 l 2,129,130
 81 26 81 26 78 28 c 128,-1,131
 75 30 75 30 74 31 c 2,132,-1
 71 34 l 1,133,-1
 145 112 l 1,134,-1
 367 112 l 1,135,-1
 438 36 l 1,113,114
EndSplineSet
Validated: 1
EndChar

StartChar: underscore
Encoding: 95 95 61
Width: 563
Flags: W
LayerCount: 2
Fore
SplineSet
438 36 m 1,0,1
 438 36 438 36 436 33 c 0,2,3
 432 29 432 29 429 27 c 2,4,-1
 425 23 l 1,5,-1
 421 19 l 2,6,7
 420 18 420 18 419 18 c 0,8,9
 417 17 417 17 416 17 c 0,10,11
 414 16 414 16 412 16 c 2,12,-1
 109 16 l 2,13,14
 101 16 101 16 95 19 c 2,15,-1
 83 25 l 2,16,17
 81 26 81 26 78 28 c 128,-1,18
 75 30 75 30 74 31 c 2,19,-1
 71 34 l 1,20,-1
 72 112 l 1,21,-1
 440 112 l 1,22,-1
 438 36 l 1,0,1
EndSplineSet
Validated: 1
EndChar

StartChar: a
Encoding: 97 97 62
Width: 563
Flags: W
LayerCount: 2
Fore
SplineSet
475 126 m 1,0,-1
 377 126 l 1,1,-1
 401 348 l 1,2,-1
 402 361 l 1,3,-1
 408 383 l 1,4,-1
 412 411 l 1,5,-1
 415 424 l 1,6,-1
 418 433 l 1,7,-1
 426 457 l 2,8,9
 430 471 430 471 436 475 c 0,10,11
 441 478 441 478 490 481 c 0,12,13
 496 481 496 481 496 481 c 2,14,15
 513 481 513 481 517 477 c 2,16,-1
 523 472 l 1,17,-1
 475 126 l 1,0,-1
544 36 m 1,18,-1
 542 33 l 1,19,20
 538 29 538 29 535 27 c 2,21,-1
 531 23 l 1,22,-1
 527 19 l 1,23,24
 527 19 527 19 525 18 c 256,25,26
 523 17 523 17 522 17 c 0,27,28
 520 16 520 16 518 16 c 2,29,-1
 109 16 l 2,30,31
 101 16 101 16 95 19 c 2,32,-1
 83 25 l 2,33,34
 81 26 81 26 78 28 c 128,-1,35
 75 30 75 30 74 31 c 2,36,-1
 71 34 l 1,37,-1
 145 112 l 1,38,-1
 549 112 l 1,39,-1
 544 36 l 1,18,-1
62 375 m 1,40,41
 63 374 63 374 67 378 c 2,42,-1
 76 387 l 1,43,-1
 78 389 l 2,44,45
 78 390 78 390 79 390 c 128,-1,46
 80 390 80 390 81 391 c 2,47,-1
 90 397 l 2,48,49
 94 400 94 400 96 398 c 2,50,-1
 98 397 l 2,51,52
 99 396 99 396 101.5 394 c 128,-1,53
 104 392 104 392 107 390 c 0,54,55
 113 385 113 385 126 372 c 2,56,-1
 127 371 l 2,57,58
 128 371 128 371 128 370 c 2,59,-1
 148 350 l 1,60,-1
 157 341 l 1,61,-1
 135 125 l 1,62,-1
 58 45 l 1,63,64
 57 46 57 46 56.5 47 c 128,-1,65
 56 48 56 48 54 50 c 0,66,67
 50 54 50 54 48 57 c 0,68,69
 46 59 46 59 40 72 c 0,70,71
 37 78 37 78 33 90 c 1,72,73
 31 92 31 92 31 95 c 2,74,-1
 31 99 l 1,75,-1
 62 375 l 1,40,41
389 359 m 1,76,-1
 161 359 l 1,77,-1
 153 366 l 1,78,79
 138 382 138 382 135 382 c 0,80,81
 134 382 134 382 134 383 c 2,82,-1
 132 384 l 1,83,-1
 130 386 l 2,84,85
 128 388 128 388 122.5 392.5 c 128,-1,86
 117 397 117 397 115 400 c 0,87,88
 109 408 109 408 109 411 c 0,89,90
 109 412 109 412 117 420 c 0,91,92
 124 428 124 428 135 435 c 1,93,-1
 137 437 l 1,94,-1
 138 438 l 1,95,96
 146 443 146 443 160 454 c 2,97,-1
 169 461 l 1,98,-1
 397 461 l 1,99,-1
 389 359 l 1,76,-1
EndSplineSet
Validated: 1
EndChar

StartChar: b
Encoding: 98 98 63
Width: 563
Flags: W
LayerCount: 2
Fore
SplineSet
475 88 m 2,0,1
 475 86 475 86 472 77 c 0,2,3
 469 67 469 67 451 51 c 1,4,5
 445 54 445 54 437 62 c 0,6,7
 431 68 431 68 415 86 c 0,8,9
 414 86 414 86 413 87 c 2,10,-1
 412 88 l 2,11,12
 408 93 408 93 400 101.5 c 128,-1,13
 392 110 392 110 388 114 c 2,14,-1
 377 126 l 1,15,-1
 401 348 l 1,16,-1
 409 356 l 1,17,-1
 427 374 l 1,18,-1
 429 376 l 1,19,-1
 431 378 l 1,20,-1
 449 393 l 2,21,22
 457 399 457 399 460 398 c 2,23,-1
 468 394 l 2,24,25
 472 392 472 392 480 386 c 1,26,-1
 481 385 l 2,27,28
 482 384 482 384 483 384 c 0,29,30
 484 383 484 383 485 383 c 0,31,32
 495 375 495 375 499 372 c 2,33,-1
 505 367 l 1,34,-1
 475 88 l 2,0,1
438 36 m 1,35,36
 438 36 438 36 436 33 c 0,37,38
 432 29 432 29 429 27 c 2,39,-1
 425 23 l 1,40,-1
 421 19 l 2,41,42
 420 18 420 18 419 18 c 0,43,44
 417 17 417 17 416 17 c 0,45,46
 414 16 414 16 412 16 c 2,47,-1
 109 16 l 2,48,49
 101 16 101 16 95 19 c 2,50,-1
 83 25 l 2,51,52
 81 26 81 26 78 28 c 128,-1,53
 75 30 75 30 74 31 c 2,54,-1
 71 34 l 1,55,-1
 145 112 l 1,56,-1
 367 112 l 1,57,-1
 438 36 l 1,35,36
62 375 m 1,58,59
 63 374 63 374 67 378 c 2,60,-1
 76 387 l 1,61,-1
 78 389 l 2,62,63
 78 390 78 390 79 390 c 128,-1,64
 80 390 80 390 81 391 c 2,65,-1
 90 397 l 2,66,67
 94 400 94 400 96 398 c 2,68,-1
 98 397 l 2,69,70
 99 396 99 396 101.5 394 c 128,-1,71
 104 392 104 392 107 390 c 0,72,73
 113 385 113 385 126 372 c 2,74,-1
 127 371 l 2,75,76
 128 371 128 371 128 370 c 2,77,-1
 148 350 l 1,78,-1
 157 341 l 1,79,-1
 135 125 l 1,80,-1
 58 45 l 1,81,82
 57 46 57 46 56.5 47 c 128,-1,83
 56 48 56 48 54 50 c 0,84,85
 50 54 50 54 48 57 c 0,86,87
 46 59 46 59 40 72 c 0,88,89
 37 78 37 78 33 90 c 1,90,91
 31 92 31 92 31 95 c 2,92,-1
 31 99 l 1,93,-1
 62 375 l 1,58,59
95 714 m 1,94,95
 97 716 97 716 97 717 c 0,96,97
 97 720 97 720 98 721 c 0,98,99
 103 736 103 736 111 744 c 2,100,-1
 117 750 l 1,101,-1
 190 670 l 1,102,-1
 169 478 l 1,103,-1
 159 470 l 2,104,105
 148 462 148 462 135 452 c 1,106,107
 136 452 136 452 135 451 c 1,108,-1
 133 451 l 1,109,110
 123 442 123 442 110 433 c 0,111,112
 99 425 99 425 98 425 c 2,113,-1
 93 430 l 2,114,115
 88 435 88 435 86 438 c 2,116,-1
 85 440 l 1,117,-1
 84 442 l 1,118,-1
 82 444 l 1,119,-1
 73 459 l 1,120,-1
 70 465 l 1,121,-1
 95 714 l 1,94,95
442 411 m 1,122,123
 442 408 442 408 436 401 c 0,124,125
 430 393 430 393 420 385 c 0,126,127
 419 385 419 385 418 384 c 128,-1,128
 417 383 417 383 417 382 c 0,129,130
 403 372 403 372 398 367 c 2,131,-1
 390 359 l 1,132,-1
 161 359 l 1,133,-1
 153 366 l 2,134,135
 143 374 143 374 135 382 c 0,136,137
 134 382 134 382 134 383 c 2,138,-1
 132 384 l 1,139,-1
 130 386 l 2,140,141
 128 388 128 388 122.5 392.5 c 128,-1,142
 117 397 117 397 115 400 c 0,143,144
 109 408 109 408 109 411 c 0,145,146
 109 412 109 412 117 420 c 0,147,148
 124 428 124 428 135 435 c 1,149,-1
 137 437 l 2,150,151
 138 437 138 437 138 438 c 0,152,153
 149 445 149 445 160 454 c 2,154,-1
 169 461 l 1,155,-1
 397 461 l 1,156,-1
 404 454 l 1,157,158
 412 448 412 448 420 438 c 1,159,-1
 422 436 l 1,160,-1
 424 434 l 2,161,162
 430 428 430 428 436 420 c 0,163,164
 440 414 440 414 442 411 c 1,122,123
EndSplineSet
Validated: 1
EndChar

StartChar: c
Encoding: 99 99 64
Width: 563
Flags: W
LayerCount: 2
Fore
SplineSet
438 36 m 1,0,1
 438 36 438 36 436 33 c 0,2,3
 432 29 432 29 429 27 c 2,4,-1
 425 23 l 1,5,-1
 421 19 l 2,6,7
 420 18 420 18 419 18 c 0,8,9
 417 17 417 17 416 17 c 0,10,11
 414 16 414 16 412 16 c 2,12,-1
 109 16 l 2,13,14
 101 16 101 16 95 19 c 2,15,-1
 83 25 l 2,16,17
 81 26 81 26 78 28 c 128,-1,18
 75 30 75 30 74 31 c 2,19,-1
 71 34 l 1,20,-1
 145 112 l 1,21,-1
 367 112 l 1,22,-1
 438 36 l 1,0,1
62 375 m 1,23,24
 63 374 63 374 67 378 c 2,25,-1
 76 387 l 1,26,-1
 78 389 l 2,27,28
 78 390 78 390 79 390 c 128,-1,29
 80 390 80 390 81 391 c 2,30,-1
 90 397 l 2,31,32
 94 400 94 400 96 398 c 2,33,-1
 98 397 l 2,34,35
 99 396 99 396 101.5 394 c 128,-1,36
 104 392 104 392 107 390 c 0,37,38
 113 385 113 385 126 372 c 2,39,-1
 127 371 l 2,40,41
 128 371 128 371 128 370 c 2,42,-1
 148 350 l 1,43,-1
 157 341 l 1,44,-1
 135 125 l 1,45,-1
 58 45 l 1,46,47
 57 46 57 46 56.5 47 c 128,-1,48
 56 48 56 48 54 50 c 0,49,50
 50 54 50 54 48 57 c 0,51,52
 46 59 46 59 40 72 c 0,53,54
 37 78 37 78 33 90 c 1,55,56
 31 92 31 92 31 95 c 2,57,-1
 31 99 l 1,58,-1
 62 375 l 1,23,24
442 411 m 1,59,60
 442 408 442 408 436 401 c 0,61,62
 430 393 430 393 420 385 c 0,63,64
 419 385 419 385 418 384 c 128,-1,65
 417 383 417 383 417 382 c 0,66,67
 403 372 403 372 398 367 c 2,68,-1
 390 359 l 1,69,-1
 161 359 l 1,70,-1
 153 366 l 2,71,72
 143 374 143 374 135 382 c 0,73,74
 134 382 134 382 134 383 c 2,75,-1
 132 384 l 1,76,-1
 130 386 l 2,77,78
 128 388 128 388 122.5 392.5 c 128,-1,79
 117 397 117 397 115 400 c 0,80,81
 109 408 109 408 109 411 c 0,82,83
 109 412 109 412 117 420 c 0,84,85
 124 428 124 428 135 435 c 1,86,-1
 137 437 l 2,87,88
 138 437 138 437 138 438 c 0,89,90
 149 445 149 445 160 454 c 2,91,-1
 169 461 l 1,92,-1
 397 461 l 1,93,-1
 404 454 l 1,94,95
 412 448 412 448 420 438 c 1,96,-1
 422 436 l 1,97,-1
 424 434 l 2,98,99
 430 428 430 428 436 420 c 0,100,101
 440 414 440 414 442 411 c 1,59,60
EndSplineSet
Validated: 1
EndChar

StartChar: d
Encoding: 100 100 65
Width: 563
Flags: W
LayerCount: 2
Fore
SplineSet
475 88 m 2,0,1
 475 86 475 86 472 77 c 0,2,3
 469 67 469 67 451 51 c 1,4,5
 445 54 445 54 437 62 c 0,6,7
 431 68 431 68 415 86 c 0,8,9
 414 86 414 86 413 87 c 2,10,-1
 412 88 l 2,11,12
 408 93 408 93 400 101.5 c 128,-1,13
 392 110 392 110 388 114 c 2,14,-1
 377 126 l 1,15,-1
 401 348 l 1,16,-1
 409 356 l 1,17,-1
 427 374 l 1,18,-1
 429 376 l 1,19,-1
 431 378 l 1,20,-1
 449 393 l 2,21,22
 457 399 457 399 460 398 c 2,23,-1
 468 394 l 2,24,25
 472 392 472 392 480 386 c 1,26,-1
 481 385 l 2,27,28
 482 384 482 384 483 384 c 0,29,30
 484 383 484 383 485 383 c 0,31,32
 495 375 495 375 499 372 c 2,33,-1
 505 367 l 1,34,-1
 475 88 l 2,0,1
504 450 m 1,35,-1
 498 445 l 2,36,37
 494 442 494 442 486 434 c 0,38,39
 485 433 485 433 484 433 c 2,40,-1
 482 431 l 2,41,42
 481 430 481 430 478.5 428 c 128,-1,43
 476 426 476 426 474 424.5 c 128,-1,44
 472 423 472 423 470 422 c 0,45,46
 464 419 464 419 462 419 c 0,47,48
 458 420 458 420 451 426 c 0,49,50
 441 434 441 434 435 440 c 2,51,-1
 434 441 l 2,52,53
 434 442 434 442 433 443 c 128,-1,54
 432 444 432 444 431 444 c 2,55,-1
 430 445 l 1,56,57
 418 459 418 459 413 464 c 2,58,-1
 406 472 l 1,59,-1
 431 668 l 1,60,-1
 441 679 l 1,61,62
 444 684 444 684 452 693 c 128,-1,63
 460 702 460 702 463 706 c 2,64,-1
 465 708 l 1,65,-1
 467 710 l 2,66,67
 471 714 471 714 478 721.5 c 128,-1,68
 485 729 485 729 488 732 c 0,69,70
 498 742 498 742 502 742 c 0,71,72
 505 742 505 742 507 740 c 0,73,74
 511 736 511 736 513 733 c 2,75,-1
 517 729 l 2,76,77
 518 728 518 728 519 726 c 128,-1,78
 520 724 520 724 521 723 c 0,79,80
 522 721 522 721 525 716.5 c 128,-1,81
 528 712 528 712 529 710 c 2,82,-1
 532 703 l 1,83,-1
 504 450 l 1,35,-1
438 36 m 1,84,85
 438 36 438 36 436 33 c 0,86,87
 432 29 432 29 429 27 c 2,88,-1
 425 23 l 1,89,-1
 421 19 l 2,90,91
 420 18 420 18 419 18 c 0,92,93
 417 17 417 17 416 17 c 0,94,95
 414 16 414 16 412 16 c 2,96,-1
 109 16 l 2,97,98
 101 16 101 16 95 19 c 2,99,-1
 83 25 l 2,100,101
 81 26 81 26 78 28 c 128,-1,102
 75 30 75 30 74 31 c 2,103,-1
 71 34 l 1,104,-1
 145 112 l 1,105,-1
 367 112 l 1,106,-1
 438 36 l 1,84,85
62 375 m 1,107,108
 63 374 63 374 67 378 c 2,109,-1
 76 387 l 1,110,-1
 78 389 l 2,111,112
 78 390 78 390 79 390 c 128,-1,113
 80 390 80 390 81 391 c 2,114,-1
 90 397 l 2,115,116
 94 400 94 400 96 398 c 2,117,-1
 98 397 l 2,118,119
 99 396 99 396 101.5 394 c 128,-1,120
 104 392 104 392 107 390 c 0,121,122
 113 385 113 385 126 372 c 2,123,-1
 127 371 l 2,124,125
 128 371 128 371 128 370 c 2,126,-1
 148 350 l 1,127,-1
 157 341 l 1,128,-1
 135 125 l 1,129,-1
 58 45 l 1,130,131
 57 46 57 46 56.5 47 c 128,-1,132
 56 48 56 48 54 50 c 0,133,134
 50 54 50 54 48 57 c 0,135,136
 46 59 46 59 40 72 c 0,137,138
 37 78 37 78 33 90 c 1,139,140
 31 92 31 92 31 95 c 2,141,-1
 31 99 l 1,142,-1
 62 375 l 1,107,108
442 411 m 1,143,144
 442 408 442 408 436 401 c 0,145,146
 430 393 430 393 420 385 c 0,147,148
 419 385 419 385 418 384 c 128,-1,149
 417 383 417 383 417 382 c 0,150,151
 403 372 403 372 398 367 c 2,152,-1
 390 359 l 1,153,-1
 161 359 l 1,154,-1
 153 366 l 2,155,156
 143 374 143 374 135 382 c 0,157,158
 134 382 134 382 134 383 c 2,159,-1
 132 384 l 1,160,-1
 130 386 l 2,161,162
 128 388 128 388 122.5 392.5 c 128,-1,163
 117 397 117 397 115 400 c 0,164,165
 109 408 109 408 109 411 c 0,166,167
 109 412 109 412 117 420 c 0,168,169
 124 428 124 428 135 435 c 1,170,-1
 137 437 l 2,171,172
 138 437 138 437 138 438 c 0,173,174
 149 445 149 445 160 454 c 2,175,-1
 169 461 l 1,176,-1
 397 461 l 1,177,-1
 404 454 l 1,178,179
 412 448 412 448 420 438 c 1,180,-1
 422 436 l 1,181,-1
 424 434 l 2,182,183
 430 428 430 428 436 420 c 0,184,185
 440 414 440 414 442 411 c 1,143,144
EndSplineSet
Validated: 1
EndChar

StartChar: e
Encoding: 101 101 66
Width: 563
Flags: W
LayerCount: 2
Fore
SplineSet
438 36 m 1,0,1
 438 36 438 36 436 33 c 0,2,3
 432 29 432 29 429 27 c 2,4,-1
 425 23 l 1,5,-1
 421 19 l 2,6,7
 420 18 420 18 419 18 c 0,8,9
 417 17 417 17 416 17 c 0,10,11
 414 16 414 16 412 16 c 2,12,-1
 109 16 l 2,13,14
 101 16 101 16 95 19 c 2,15,-1
 83 25 l 2,16,17
 81 26 81 26 78 28 c 128,-1,18
 75 30 75 30 74 31 c 2,19,-1
 71 34 l 1,20,-1
 145 112 l 1,21,-1
 367 112 l 1,22,-1
 438 36 l 1,0,1
498 285 m 2,23,24
 498 282 498 282 495 274 c 0,25,26
 491 263 491 263 474 248 c 1,27,28
 465 253 465 253 460 259 c 0,29,30
 441 283 441 283 438 283 c 0,31,32
 437 283 437 283 436 284 c 2,33,-1
 435 285 l 2,34,35
 431 290 431 290 423 298 c 0,36,37
 415 307 415 307 411 311 c 2,38,-1
 400 323 l 1,39,-1
 401 348 l 1,40,-1
 409 356 l 1,41,-1
 427 374 l 1,42,-1
 429 376 l 1,43,-1
 431 378 l 1,44,-1
 449 393 l 2,45,46
 457 400 457 400 460 398 c 2,47,-1
 468 394 l 2,48,49
 472 392 472 392 480 386 c 1,50,-1
 481 385 l 2,51,52
 482 384 482 384 483 384 c 0,53,54
 484 383 484 383 485 383 c 0,55,56
 495 375 495 375 499 372 c 2,57,-1
 505 367 l 1,58,-1
 498 285 l 2,23,24
155 212 m 1,59,-1
 168 309 l 1,60,-1
 390 309 l 1,61,-1
 461 233 l 1,62,-1
 459 230 l 1,63,64
 455 226 455 226 452 224 c 2,65,-1
 448 220 l 1,66,-1
 444 216 l 1,67,-1
 442 215 l 2,68,69
 440 214 440 214 439 214 c 0,70,71
 437 214 437 214 435 213 c 2,72,-1
 155 212 l 1,59,-1
62 375 m 1,73,74
 63 374 63 374 67 378 c 2,75,-1
 76 387 l 1,76,-1
 78 389 l 2,77,78
 78 390 78 390 79 390 c 128,-1,79
 80 390 80 390 81 391 c 2,80,-1
 90 397 l 2,81,82
 94 400 94 400 96 398 c 2,83,-1
 98 397 l 2,84,85
 99 396 99 396 101.5 394 c 128,-1,86
 104 392 104 392 107 390 c 0,87,88
 113 385 113 385 126 372 c 2,89,-1
 127 371 l 2,90,91
 128 371 128 371 128 370 c 2,92,-1
 148 350 l 1,93,-1
 157 341 l 1,94,-1
 135 125 l 1,95,-1
 58 45 l 1,96,97
 57 46 57 46 56.5 47 c 128,-1,98
 56 48 56 48 54 50 c 0,99,100
 50 54 50 54 48 57 c 0,101,102
 46 59 46 59 40 72 c 0,103,104
 37 78 37 78 33 90 c 1,105,106
 31 92 31 92 31 95 c 2,107,-1
 31 99 l 1,108,-1
 62 375 l 1,73,74
442 411 m 1,109,110
 442 408 442 408 436 401 c 0,111,112
 430 393 430 393 420 385 c 0,113,114
 419 385 419 385 418 384 c 128,-1,115
 417 383 417 383 417 382 c 0,116,117
 403 372 403 372 398 367 c 2,118,-1
 390 359 l 1,119,-1
 161 359 l 1,120,-1
 153 366 l 2,121,122
 143 374 143 374 135 382 c 0,123,124
 134 382 134 382 134 383 c 2,125,-1
 132 384 l 1,126,-1
 130 386 l 2,127,128
 128 388 128 388 122.5 392.5 c 128,-1,129
 117 397 117 397 115 400 c 0,130,131
 109 408 109 408 109 411 c 0,132,133
 109 412 109 412 117 420 c 0,134,135
 124 428 124 428 135 435 c 1,136,-1
 137 437 l 2,137,138
 138 437 138 437 138 438 c 0,139,140
 149 445 149 445 160 454 c 2,141,-1
 169 461 l 1,142,-1
 397 461 l 1,143,-1
 404 454 l 1,144,145
 412 448 412 448 420 438 c 1,146,-1
 422 436 l 1,147,-1
 424 434 l 2,148,149
 430 428 430 428 436 420 c 0,150,151
 440 414 440 414 442 411 c 1,109,110
EndSplineSet
Validated: 1
EndChar

StartChar: f
Encoding: 102 102 67
Width: 563
Flags: W
LayerCount: 2
Fore
SplineSet
322 373 m 1,0,-1
 318 415 l 1,1,-1
 322 456 l 1,2,-1
 402 456 l 1,3,-1
 407 415 l 1,4,-1
 402 373 l 1,5,-1
 368 373 l 1,6,-1
 322 373 l 1,0,-1
81 373 m 1,7,-1
 76 415 l 1,8,-1
 81 456 l 1,9,-1
 160 456 l 1,10,-1
 166 415 l 1,11,-1
 160 373 l 1,12,-1
 126 373 l 1,13,-1
 81 373 l 1,7,-1
316 651 m 1,14,-1
 294 671 l 1,15,-1
 286 677 l 2,16,17
 281 681 281 681 278 685 c 0,18,19
 272 693 272 693 272 696 c 1,20,21
 272 696 272 696 280 705 c 0,22,23
 286 711 286 711 298 720 c 1,24,-1
 300 722 l 1,25,-1
 302 723 l 1,26,27
 309 728 309 728 324 739 c 1,28,-1
 332 746 l 1,29,-1
 487 744 l 1,30,-1
 494 737 l 1,31,32
 502 731 502 731 510 721 c 1,33,-1
 512 719 l 1,34,-1
 514 717 l 2,35,36
 521 710 521 710 526 703 c 2,37,38
 526 703 526 703 532 694 c 1,39,40
 532 691 532 691 526 684 c 0,41,42
 512 667 512 667 510 668 c 0,43,44
 509 668 509 668 508 667 c 128,-1,45
 507 666 507 666 507 665 c 0,46,47
 495 656 495 656 488 650 c 2,48,-1
 480 642 l 1,49,-1
 324 644 l 1,50,-1
 316 651 l 1,14,-1
279 88 m 2,51,52
 279 87 279 87 276 77 c 128,-1,53
 273 67 273 67 255 51 c 1,54,55
 242 58 242 58 241 62 c 0,56,57
 235 86 235 86 219 86 c 0,58,59
 218 86 218 86 217 87 c 2,60,-1
 216 88 l 2,61,62
 212 93 212 93 204 101.5 c 128,-1,63
 196 110 196 110 192 114 c 2,64,-1
 181 126 l 1,65,-1
 205 619 l 1,66,-1
 213 627 l 1,67,-1
 231 645 l 1,68,-1
 233 647 l 1,69,-1
 235 649 l 1,70,-1
 253 664 l 2,71,72
 261 670 261 670 264 669 c 2,73,-1
 272 665 l 2,74,75
 276 663 276 663 284 657 c 1,76,-1
 285 656 l 2,77,78
 286 655 286 655 287 655 c 0,79,80
 288 654 288 654 289 654 c 0,81,82
 299 646 299 646 303 643 c 2,83,-1
 309 638 l 1,84,-1
 279 88 l 2,51,52
EndSplineSet
Validated: 1
EndChar

StartChar: g
Encoding: 103 103 68
Width: 563
Flags: W
LayerCount: 2
Fore
SplineSet
50 37 m 257,0,1
 50 37 50 37 141 113 c 1,2,-1
 363 113 l 1,3,-1
 417 35 l 1,4,-1
 413 32 l 2,5,6
 412 31 412 31 408 29 c 0,7,8
 405 27 405 27 403 26 c 2,9,-1
 389 20 l 2,10,11
 382 17 382 17 374 17 c 2,12,-1
 71 17 l 2,13,14
 69 17 69 17 68 18 c 0,15,16
 67 18 67 18 65 19 c 128,-1,17
 63 20 63 20 63 20 c 1,18,-1
 60 24 l 1,19,-1
 57 28 l 2,20,21
 54 31 54 31 52 34 c 128,-1,22
 50 37 50 37 50 37 c 257,0,1
54 286 m 2,23,24
 54 286 54 286 68 368 c 1,25,-1
 75 373 l 2,26,27
 80 376 80 376 92 384 c 0,28,29
 93 384 93 384 94 385 c 0,30,31
 95 385 95 385 96 386 c 2,32,-1
 98 387 l 1,33,34
 107 393 107 393 112 395 c 2,35,-1
 121 399 l 2,36,37
 124 401 124 401 130 394 c 2,38,-1
 145 379 l 1,39,-1
 146 377 l 1,40,-1
 148 375 l 1,41,-1
 161 357 l 1,42,-1
 167 349 l 1,43,-1
 161 324 l 1,44,-1
 147 312 l 2,45,46
 142 308 142 308 132 300 c 0,47,48
 127 296 127 296 117 286 c 1,49,-1
 115 285 l 2,50,51
 114 284 114 284 113 284 c 0,52,53
 107 284 107 284 85 260 c 0,54,55
 80 254 80 254 68 249 c 1,56,57
 55 265 55 265 54 275 c 0,58,59
 53 284 53 284 54 286 c 2,23,24
98 214 m 1,60,-1
 84 225 l 2,61,62
 82 227 82 227 79 231 c 2,63,-1
 77 234 l 1,64,-1
 168 310 l 1,65,-1
 390 310 l 1,66,-1
 379 213 l 1,67,-1
 98 214 l 1,60,-1
513 376 m 2,68,-1
 473 100 l 1,69,-1
 472 96 l 2,70,71
 472 93 472 93 469 91 c 1,72,73
 463 82 463 82 458 73 c 0,74,75
 454 66 454 66 446 58 c 0,76,77
 444 56 444 56 438 51 c 0,78,79
 435 48 435 48 435 48 c 129,-1,80
 435 48 435 48 433 46 c 1,81,-1
 376 126 l 1,82,-1
 409 342 l 1,83,-1
 421 351 l 1,84,-1
 446 371 l 2,85,86
 446 372 446 372 447 372 c 2,87,-1
 448 373 l 1,88,89
 469 390 469 390 472 391 c 2,90,91
 472 391 472 391 478 395 c 0,92,93
 481 397 481 397 482 398 c 2,94,-1
 485 399 l 1,95,96
 487 401 487 401 490 398 c 2,97,-1
 498 392 l 2,98,99
 499 391 499 391 500 391 c 128,-1,100
 501 391 501 391 500 390 c 1,101,-1
 502 388 l 1,102,-1
 509 379 l 2,103,104
 512 375 512 375 513 376 c 2,68,-1
149 421 m 1,105,106
 149 421 149 421 171 439 c 0,107,108
 182 449 182 449 191 455 c 2,109,-1
 200 462 l 1,110,-1
 428 462 l 1,111,-1
 435 455 l 2,112,113
 444 446 444 446 453 439 c 0,114,115
 453 438 453 438 454 438 c 2,116,-1
 455 436 l 1,117,118
 462 431 462 431 469 421 c 2,119,-1
 475 412 l 1,120,121
 475 410 475 410 466 401 c 0,122,123
 463 398 463 398 457 394 c 128,-1,124
 451 390 451 390 448 387 c 2,125,126
 448 387 448 387 445 385 c 2,127,-1
 443 384 l 2,128,129
 443 383 443 383 442 383 c 0,130,131
 434 383 434 383 420 367 c 1,132,-1
 410 360 l 1,133,-1
 181 360 l 1,134,-1
 175 368 l 2,135,136
 172 372 172 372 160 383 c 0,137,138
 160 384 160 384 159 385 c 128,-1,139
 158 386 158 386 157 386 c 0,140,141
 150 386 150 386 146 402 c 0,142,143
 144 410 144 410 142 412 c 1,144,145
 145 416 145 416 149 421 c 1,105,106
EndSplineSet
Validated: 1
EndChar

StartChar: h
Encoding: 104 104 69
Width: 563
Flags: W
LayerCount: 2
Fore
SplineSet
475 88 m 2,0,1
 475 86 475 86 472 77 c 0,2,3
 469 67 469 67 451 51 c 1,4,5
 445 54 445 54 437 62 c 0,6,7
 431 68 431 68 415 86 c 0,8,9
 414 86 414 86 413 87 c 2,10,-1
 412 88 l 2,11,12
 408 93 408 93 400 101.5 c 128,-1,13
 392 110 392 110 388 114 c 2,14,-1
 377 126 l 1,15,-1
 401 348 l 1,16,-1
 409 356 l 1,17,-1
 427 374 l 1,18,-1
 429 376 l 1,19,-1
 431 378 l 1,20,-1
 449 393 l 2,21,22
 457 399 457 399 460 398 c 2,23,-1
 468 394 l 2,24,25
 472 392 472 392 480 386 c 1,26,-1
 481 385 l 2,27,28
 482 384 482 384 483 384 c 0,29,30
 484 383 484 383 485 383 c 0,31,32
 495 375 495 375 499 372 c 2,33,-1
 505 367 l 1,34,-1
 475 88 l 2,0,1
62 375 m 1,35,36
 63 374 63 374 67 378 c 2,37,-1
 76 387 l 1,38,-1
 78 389 l 2,39,40
 78 390 78 390 79 390 c 128,-1,41
 80 390 80 390 81 391 c 2,42,-1
 90 397 l 2,43,44
 94 400 94 400 96 398 c 2,45,-1
 98 397 l 2,46,47
 99 396 99 396 101.5 394 c 128,-1,48
 104 392 104 392 107 390 c 0,49,50
 113 385 113 385 126 372 c 2,51,-1
 127 371 l 2,52,53
 128 371 128 371 128 370 c 2,54,-1
 148 350 l 1,55,-1
 157 341 l 1,56,-1
 135 125 l 1,57,-1
 58 45 l 1,58,59
 57 46 57 46 56.5 47 c 128,-1,60
 56 48 56 48 54 50 c 0,61,62
 50 54 50 54 48 57 c 0,63,64
 46 59 46 59 40 72 c 0,65,66
 37 78 37 78 33 90 c 1,67,68
 31 92 31 92 31 95 c 2,69,-1
 31 99 l 1,70,-1
 62 375 l 1,35,36
95 714 m 1,71,72
 97 716 97 716 97 717 c 0,73,74
 97 720 97 720 98 721 c 0,75,76
 103 736 103 736 111 744 c 2,77,-1
 117 750 l 1,78,-1
 190 670 l 1,79,-1
 169 478 l 1,80,-1
 159 470 l 2,81,82
 148 462 148 462 135 452 c 1,83,84
 136 452 136 452 135 451 c 1,85,-1
 133 451 l 1,86,87
 123 442 123 442 110 433 c 0,88,89
 99 425 99 425 98 425 c 2,90,-1
 93 430 l 2,91,92
 88 435 88 435 86 438 c 2,93,-1
 85 440 l 1,94,-1
 84 442 l 1,95,-1
 82 444 l 1,96,-1
 73 459 l 1,97,-1
 70 465 l 1,98,-1
 95 714 l 1,71,72
442 411 m 1,99,100
 442 408 442 408 436 401 c 0,101,102
 430 393 430 393 420 385 c 0,103,104
 419 385 419 385 418 384 c 128,-1,105
 417 383 417 383 417 382 c 0,106,107
 403 372 403 372 398 367 c 2,108,-1
 390 359 l 1,109,-1
 161 359 l 1,110,-1
 153 366 l 2,111,112
 143 374 143 374 135 382 c 0,113,114
 134 382 134 382 134 383 c 2,115,-1
 132 384 l 1,116,-1
 130 386 l 2,117,118
 128 388 128 388 122.5 392.5 c 128,-1,119
 117 397 117 397 115 400 c 0,120,121
 109 408 109 408 109 411 c 0,122,123
 109 412 109 412 117 420 c 0,124,125
 124 428 124 428 135 435 c 1,126,-1
 137 437 l 2,127,128
 138 437 138 437 138 438 c 0,129,130
 149 445 149 445 160 454 c 2,131,-1
 169 461 l 1,132,-1
 397 461 l 1,133,-1
 404 454 l 1,134,135
 412 448 412 448 420 438 c 1,136,-1
 422 436 l 1,137,-1
 424 434 l 2,138,139
 430 428 430 428 436 420 c 0,140,141
 440 414 440 414 442 411 c 1,99,100
EndSplineSet
Validated: 1
EndChar

StartChar: i
Encoding: 105 105 70
Width: 251
Flags: W
LayerCount: 2
Fore
SplineSet
71 520 m 1,0,-1
 75 559 l 1,1,-1
 181 559 l 1,2,-1
 169 457 l 1,3,-1
 63 457 l 1,4,-1
 71 520 l 1,0,-1
61 375 m 1,5,6
 62 374 62 374 66 378 c 2,7,-1
 75 387 l 1,8,-1
 77 389 l 1,9,10
 77 389 77 389 78 390 c 2,11,12
 78 390 78 390 80 391 c 2,13,-1
 89 397 l 2,14,15
 92 399 92 399 95 398 c 2,16,-1
 97 397 l 2,17,18
 98 396 98 396 100.5 394 c 128,-1,19
 103 392 103 392 106 390 c 0,20,21
 112 385 112 385 125 372 c 2,22,-1
 126 371 l 2,23,24
 126 370 126 370 127 370 c 2,25,-1
 147 350 l 1,26,-1
 156 341 l 1,27,-1
 127 33 l 1,28,-1
 57 32 l 1,29,30
 56 33 56 33 55.5 34 c 128,-1,31
 55 35 55 35 53 37 c 0,32,33
 49 41 49 41 47 44 c 0,34,35
 45 46 45 46 39 59 c 0,36,37
 36 65 36 65 32 77 c 1,38,39
 30 79 30 79 30 82 c 2,40,-1
 30 86 l 1,41,-1
 61 375 l 1,5,6
EndSplineSet
Validated: 1
EndChar

StartChar: j
Encoding: 106 106 71
Width: 563
Flags: W
LayerCount: 2
Fore
SplineSet
246 520 m 1,0,-1
 250 559 l 1,1,-1
 356 559 l 1,2,-1
 344 457 l 1,3,-1
 236 457 l 1,4,-1
 246 520 l 1,0,-1
305 88 m 2,5,6
 305 86 305 86 302 77 c 0,7,8
 299 67 299 67 281 51 c 1,9,10
 275 54 275 54 267 62 c 0,11,12
 261 68 261 68 245 86 c 0,13,14
 244 86 244 86 243 87 c 2,15,-1
 242 88 l 2,16,17
 238 93 238 93 230 101.5 c 128,-1,18
 222 110 222 110 218 114 c 2,19,-1
 207 126 l 1,20,-1
 231 348 l 1,21,-1
 239 356 l 1,22,-1
 257 374 l 1,23,-1
 259 376 l 1,24,-1
 261 378 l 1,25,-1
 279 393 l 2,26,27
 287 399 287 399 290 398 c 2,28,-1
 298 394 l 2,29,30
 302 392 302 392 310 386 c 1,31,-1
 311 385 l 2,32,33
 312 384 312 384 313 384 c 0,34,35
 314 383 314 383 315 383 c 0,36,37
 325 375 325 375 329 372 c 2,38,-1
 335 367 l 1,39,-1
 305 88 l 2,5,6
268 36 m 1,40,-1
 266 33 l 1,41,42
 262 29 262 29 259 27 c 2,43,-1
 255 23 l 1,44,-1
 251 19 l 2,45,46
 250 18 250 18 249 18 c 0,47,48
 247 17 247 17 246 17 c 0,49,50
 244 16 244 16 242 16 c 2,51,-1
 68 16 l 2,52,53
 60 16 60 16 54 19 c 2,54,-1
 42 25 l 2,55,56
 40 26 40 26 37 28 c 128,-1,57
 34 30 34 30 34 31 c 2,58,-1
 30 34 l 1,59,-1
 104 112 l 1,60,-1
 197 112 l 1,61,-1
 268 36 l 1,40,-1
EndSplineSet
Validated: 1
EndChar

StartChar: k
Encoding: 107 107 72
Width: 563
Flags: W
LayerCount: 2
Fore
SplineSet
220 234 m 1,0,-1
 372 97 l 1,1,-1
 372 89 l 2,2,3
 372 84 372 84 370 71 c 1,4,-1
 370 69 l 1,5,6
 368 68 368 68 368 67 c 2,7,-1
 368 65 l 2,8,9
 368 55 368 55 366 51 c 2,10,-1
 362 43 l 2,11,12
 361 40 361 40 352 39 c 2,13,-1
 328 36 l 1,14,-1
 326 36 l 1,15,-1
 322 36 l 1,16,-1
 298 36 l 1,17,-1
 286 36 l 1,18,-1
 178 138 l 1,19,-1
 177 155 l 2,20,21
 177 159 177 159 176 172 c 128,-1,22
 175 185 175 185 175 190 c 2,23,-1
 175 191 l 2,24,25
 175 193 175 193 176 194 c 1,26,27
 176 194 176 194 176 198 c 1,28,29
 177 201 177 201 175 225 c 0,30,31
 174 236 174 236 177 243 c 1,32,33
 180 243 180 243 184 243 c 0,34,35
 202 243 202 243 210 239 c 2,36,-1
 220 234 l 1,0,-1
220 267 m 1,37,-1
 210 262 l 2,38,39
 202 258 202 258 184 258 c 0,40,41
 180 258 180 258 177 258 c 1,42,43
 174 264 174 264 175 276 c 1,44,-1
 176 280 l 1,45,-1
 176 281 l 1,46,47
 175 282 175 282 175 284 c 2,48,-1
 175 285 l 2,49,50
 175 328 175 328 176 341 c 128,-1,51
 177 354 177 354 177 358 c 2,52,-1
 178 375 l 1,53,-1
 286 460 l 1,54,-1
 298 460 l 1,55,-1
 322 460 l 1,56,-1
 326 460 l 1,57,-1
 328 460 l 1,58,-1
 352 457 l 2,59,60
 361 456 361 456 362 453 c 2,61,-1
 366 445 l 2,62,63
 368 441 368 441 368 431 c 2,64,-1
 368 429 l 2,65,66
 368 428 368 428 370 427 c 1,67,-1
 370 425 l 1,68,69
 372 412 372 412 372 407 c 2,70,-1
 372 399 l 1,71,-1
 220 267 l 1,37,-1
62 375 m 1,72,73
 63 374 63 374 67 378 c 2,74,-1
 76 387 l 1,75,-1
 78 389 l 1,76,77
 78 389 78 389 79 390 c 0,78,79
 80 390 80 390 81 391 c 2,80,-1
 90 397 l 2,81,82
 93 399 93 399 96 398 c 2,83,-1
 98 397 l 2,84,85
 99 396 99 396 101.5 394 c 128,-1,86
 104 392 104 392 107 390 c 0,87,88
 113 385 113 385 126 372 c 2,89,-1
 127 371 l 2,90,91
 128 370 128 370 128 370 c 1,92,-1
 148 350 l 1,93,-1
 157 341 l 1,94,-1
 124 47 l 1,95,-1
 58 45 l 1,96,97
 57 46 57 46 56.5 47 c 128,-1,98
 56 48 56 48 54 50 c 0,99,100
 50 54 50 54 48 57 c 0,101,102
 46 59 46 59 40 72 c 0,103,104
 37 78 37 78 33 90 c 1,105,106
 31 92 31 92 31 95 c 2,107,-1
 31 99 l 1,108,-1
 62 375 l 1,72,73
95 714 m 1,109,110
 97 716 97 716 97 717 c 0,111,112
 97 720 97 720 98 721 c 0,113,114
 103 736 103 736 111 744 c 2,115,-1
 117 750 l 1,116,-1
 190 670 l 1,117,-1
 169 478 l 1,118,-1
 159 470 l 2,119,120
 148 462 148 462 135 452 c 1,121,122
 136 452 136 452 135 451 c 1,123,-1
 133 451 l 1,124,125
 123 442 123 442 110 433 c 0,126,127
 99 425 99 425 98 425 c 2,128,-1
 93 430 l 2,129,130
 88 435 88 435 86 438 c 2,131,-1
 85 440 l 1,132,-1
 84 442 l 1,133,-1
 82 444 l 1,134,-1
 73 459 l 1,135,-1
 70 465 l 1,136,-1
 95 714 l 1,109,110
EndSplineSet
Validated: 1
EndChar

StartChar: l
Encoding: 108 108 73
Width: 251
Flags: W
LayerCount: 2
Fore
SplineSet
62 375 m 1,0,1
 63 374 63 374 67 378 c 2,2,-1
 76 387 l 1,3,-1
 78 389 l 2,4,5
 78 390 78 390 79 390 c 128,-1,6
 80 390 80 390 81 391 c 2,7,-1
 90 397 l 2,8,9
 94 400 94 400 96 398 c 2,10,-1
 98 397 l 2,11,12
 99 396 99 396 101.5 394 c 128,-1,13
 104 392 104 392 107 390 c 0,14,15
 113 385 113 385 126 372 c 2,16,-1
 127 371 l 2,17,18
 128 371 128 371 128 370 c 2,19,-1
 148 350 l 1,20,-1
 157 341 l 1,21,-1
 135 125 l 1,22,-1
 58 45 l 1,23,24
 57 46 57 46 56.5 47 c 128,-1,25
 56 48 56 48 54 50 c 0,26,27
 50 54 50 54 48 57 c 0,28,29
 46 59 46 59 40 72 c 0,30,31
 37 78 37 78 33 90 c 1,32,33
 31 92 31 92 31 95 c 2,34,-1
 31 99 l 1,35,-1
 62 375 l 1,0,1
95 714 m 1,36,37
 97 716 97 716 97 717 c 0,38,39
 97 720 97 720 98 721 c 0,40,41
 103 736 103 736 111 744 c 2,42,-1
 117 750 l 1,43,-1
 190 670 l 1,44,-1
 169 478 l 1,45,-1
 159 470 l 2,46,47
 148 462 148 462 135 452 c 1,48,49
 136 452 136 452 135 451 c 1,50,-1
 133 451 l 1,51,52
 123 442 123 442 110 433 c 0,53,54
 99 425 99 425 98 425 c 2,55,-1
 93 430 l 2,56,57
 88 435 88 435 86 438 c 2,58,-1
 85 440 l 1,59,-1
 84 442 l 1,60,-1
 82 444 l 1,61,-1
 73 459 l 1,62,-1
 70 465 l 1,63,-1
 95 714 l 1,36,37
EndSplineSet
Validated: 1
EndChar

StartChar: m
Encoding: 109 109 74
Width: 889
Flags: W
LayerCount: 2
Fore
SplineSet
88 327 m 2,0,1
 89 332 89 332 91 338 c 128,-1,2
 93 344 93 344 108 364 c 1,3,-1
 123 378 l 1,4,5
 142 390 142 390 148 390 c 0,6,7
 149 390 149 390 150 389 c 2,8,-1
 151 388 l 1,9,10
 159 378 159 378 163 374 c 0,11,12
 171 366 171 366 175 362 c 2,13,-1
 186 350 l 1,14,-1
 162 85 l 1,15,-1
 154 77 l 1,16,-1
 136 59 l 1,17,-1
 134 57 l 1,18,-1
 132 55 l 1,19,-1
 114 40 l 2,20,21
 106 33 106 33 103 35 c 2,22,-1
 95 39 l 2,23,24
 91 41 91 41 83 47 c 1,25,-1
 82 48 l 2,26,27
 81 49 81 49 80 49 c 0,28,29
 79 50 79 50 78 50 c 0,30,31
 68 58 68 58 64 61 c 2,32,-1
 58 66 l 1,33,-1
 88 327 l 2,0,1
157 408 m 1,34,-1
 191 443 l 2,35,36
 195 447 195 447 198 449 c 2,37,-1
 202 453 l 1,38,-1
 206 457 l 1,39,-1
 208 458 l 2,40,41
 210 459 210 459 211 459 c 0,42,43
 213 460 213 460 215 460 c 2,44,-1
 380 460 l 2,45,46
 388 460 388 460 394 457 c 2,47,-1
 406 451 l 2,48,49
 408 450 408 450 411 448 c 0,50,51
 412 448 412 448 415 445 c 2,52,-1
 459 409 l 1,53,-1
 418 364 l 1,54,-1
 196 364 l 1,55,-1
 157 408 l 1,34,-1
414 327 m 2,56,57
 415 335 415 335 417 338 c 0,58,59
 430 357 430 357 435 364 c 1,60,-1
 449 378 l 1,61,62
 468 390 468 390 474 390 c 0,63,64
 475 390 475 390 476 389 c 2,65,-1
 477 388 l 1,66,67
 485 378 485 378 489 374 c 0,68,69
 497 366 497 366 501 362 c 2,70,-1
 512 350 l 1,71,-1
 488 85 l 1,72,-1
 480 77 l 1,73,-1
 462 59 l 1,74,-1
 460 57 l 1,75,-1
 458 55 l 1,76,-1
 440 40 l 2,77,78
 432 33 432 33 429 35 c 2,79,-1
 421 39 l 2,80,81
 417 41 417 41 409 47 c 1,82,-1
 408 48 l 2,83,84
 407 49 407 49 406 49 c 0,85,86
 405 50 405 50 404 50 c 0,87,88
 394 58 394 58 390 61 c 2,89,-1
 384 66 l 1,90,-1
 414 327 l 2,56,57
483 408 m 1,91,-1
 517 443 l 2,92,93
 521 447 521 447 524 449 c 2,94,-1
 528 453 l 1,95,-1
 532 457 l 1,96,-1
 534 458 l 2,97,98
 536 459 536 459 537 459 c 0,99,100
 539 460 539 460 541 460 c 2,101,-1
 707 460 l 2,102,103
 715 460 715 460 721 457 c 2,104,-1
 733 451 l 2,105,106
 737 449 737 449 738 448 c 128,-1,107
 739 447 739 447 742 445 c 2,108,-1
 786 409 l 1,109,-1
 744 364 l 1,110,-1
 522 364 l 1,111,-1
 483 408 l 1,91,-1
827 58 m 1,112,113
 826 59 826 59 822 55 c 2,114,-1
 813 46 l 1,115,-1
 811 44 l 1,116,-1
 810 43 l 1,117,-1
 808 42 l 1,118,-1
 799 36 l 2,119,120
 796 34 796 34 793 35 c 2,121,-1
 791 36 l 2,122,123
 789 38 789 38 788 39 c 2,124,-1
 782 43 l 2,125,126
 780 44 780 44 763 61 c 2,127,-1
 762 62 l 1,128,129
 762 62 762 62 761 63 c 2,130,-1
 741 83 l 1,131,-1
 732 92 l 1,132,-1
 754 351 l 1,133,-1
 798 398 l 1,134,135
 805 391 805 391 816 378 c 0,136,137
 834 356 834 356 835 356 c 0,138,139
 836 355 836 355 841 349 c 0,140,141
 845 344 845 344 849 334 c 0,142,143
 854 322 854 322 856 316 c 1,144,145
 858 314 858 314 858 311 c 2,146,-1
 858 307 l 1,147,-1
 827 58 l 1,112,113
EndSplineSet
Validated: 1
EndChar

StartChar: n
Encoding: 110 110 75
Width: 563
Flags: W
LayerCount: 2
Fore
SplineSet
451 42 m 0,0,1
 413 37 413 37 395 37 c 1,2,3
 382 38 382 38 380 40 c 2,4,-1
 368 52 l 1,5,-1
 401 348 l 1,6,-1
 409 356 l 1,7,-1
 427 374 l 1,8,-1
 429 376 l 1,9,-1
 431 378 l 1,10,-1
 449 393 l 2,11,12
 457 400 457 400 460 398 c 2,13,-1
 468 394 l 2,14,15
 472 392 472 392 480 386 c 1,16,-1
 481 385 l 2,17,18
 482 384 482 384 483 384 c 0,19,20
 484 383 484 383 485 383 c 128,-1,21
 486 383 486 383 499 372 c 2,22,-1
 505 367 l 1,23,-1
 475 79 l 2,24,25
 475 78 475 78 472 68 c 0,26,27
 465 44 465 44 451 42 c 0,0,1
62 375 m 1,28,29
 63 374 63 374 67 378 c 2,30,-1
 76 387 l 1,31,-1
 78 389 l 1,32,-1
 79 390 l 2,33,34
 80 390 80 390 81 391 c 2,35,-1
 90 397 l 2,36,37
 93 399 93 399 96 398 c 2,38,-1
 98 397 l 2,39,40
 99 396 99 396 101.5 394 c 128,-1,41
 104 392 104 392 107 390 c 0,42,43
 113 385 113 385 126 372 c 2,44,-1
 127 371 l 2,45,46
 128 370 128 370 128 370 c 1,47,-1
 148 350 l 1,48,-1
 157 341 l 1,49,-1
 128 35 l 1,50,-1
 58 36 l 2,51,52
 57 37 57 37 56.5 38 c 128,-1,53
 56 39 56 39 54 41 c 0,54,55
 50 45 50 45 48 48 c 0,56,57
 46 50 46 50 40 63 c 0,58,59
 37 69 37 69 33 81 c 1,60,61
 31 83 31 83 31 86 c 2,62,-1
 31 90 l 1,63,-1
 62 375 l 1,28,29
442 411 m 1,64,65
 442 408 442 408 436 401 c 0,66,67
 430 393 430 393 420 385 c 0,68,69
 419 385 419 385 418 384 c 128,-1,70
 417 383 417 383 417 382 c 0,71,72
 403 372 403 372 398 367 c 2,73,-1
 390 359 l 1,74,-1
 161 359 l 1,75,-1
 153 366 l 2,76,77
 143 374 143 374 135 382 c 0,78,79
 134 382 134 382 134 383 c 2,80,-1
 132 384 l 1,81,-1
 130 386 l 2,82,83
 128 388 128 388 122.5 392.5 c 128,-1,84
 117 397 117 397 115 400 c 0,85,86
 109 408 109 408 109 411 c 0,87,88
 109 412 109 412 117 420 c 0,89,90
 124 428 124 428 135 435 c 1,91,-1
 137 437 l 2,92,93
 138 437 138 437 138 438 c 0,94,95
 149 445 149 445 160 454 c 2,96,-1
 169 461 l 1,97,-1
 397 461 l 1,98,-1
 404 454 l 1,99,100
 412 448 412 448 420 438 c 1,101,-1
 422 436 l 1,102,-1
 424 434 l 2,103,104
 430 428 430 428 436 420 c 0,105,106
 440 414 440 414 442 411 c 1,64,65
EndSplineSet
Validated: 1
EndChar

StartChar: o
Encoding: 111 111 76
Width: 563
Flags: W
LayerCount: 2
Fore
SplineSet
475 88 m 2,0,1
 475 86 475 86 472 77 c 0,2,3
 469 67 469 67 451 51 c 1,4,5
 445 54 445 54 437 62 c 0,6,7
 431 68 431 68 415 86 c 0,8,9
 414 86 414 86 413 87 c 2,10,-1
 412 88 l 2,11,12
 408 93 408 93 400 101.5 c 128,-1,13
 392 110 392 110 388 114 c 2,14,-1
 377 126 l 1,15,-1
 401 348 l 1,16,-1
 409 356 l 1,17,-1
 427 374 l 1,18,-1
 429 376 l 1,19,-1
 431 378 l 1,20,-1
 449 393 l 2,21,22
 457 399 457 399 460 398 c 2,23,-1
 468 394 l 2,24,25
 472 392 472 392 480 386 c 1,26,-1
 481 385 l 2,27,28
 482 384 482 384 483 384 c 0,29,30
 484 383 484 383 485 383 c 0,31,32
 495 375 495 375 499 372 c 2,33,-1
 505 367 l 1,34,-1
 475 88 l 2,0,1
438 36 m 1,35,36
 438 36 438 36 436 33 c 0,37,38
 432 29 432 29 429 27 c 2,39,-1
 425 23 l 1,40,-1
 421 19 l 2,41,42
 420 18 420 18 419 18 c 0,43,44
 417 17 417 17 416 17 c 0,45,46
 414 16 414 16 412 16 c 2,47,-1
 109 16 l 2,48,49
 101 16 101 16 95 19 c 2,50,-1
 83 25 l 2,51,52
 81 26 81 26 78 28 c 128,-1,53
 75 30 75 30 74 31 c 2,54,-1
 71 34 l 1,55,-1
 145 112 l 1,56,-1
 367 112 l 1,57,-1
 438 36 l 1,35,36
62 375 m 1,58,59
 63 374 63 374 67 378 c 2,60,-1
 76 387 l 1,61,-1
 78 389 l 2,62,63
 78 390 78 390 79 390 c 128,-1,64
 80 390 80 390 81 391 c 2,65,-1
 90 397 l 2,66,67
 94 400 94 400 96 398 c 2,68,-1
 98 397 l 2,69,70
 99 396 99 396 101.5 394 c 128,-1,71
 104 392 104 392 107 390 c 0,72,73
 113 385 113 385 126 372 c 2,74,-1
 127 371 l 2,75,76
 128 371 128 371 128 370 c 2,77,-1
 148 350 l 1,78,-1
 157 341 l 1,79,-1
 135 125 l 1,80,-1
 58 45 l 1,81,82
 57 46 57 46 56.5 47 c 128,-1,83
 56 48 56 48 54 50 c 0,84,85
 50 54 50 54 48 57 c 0,86,87
 46 59 46 59 40 72 c 0,88,89
 37 78 37 78 33 90 c 1,90,91
 31 92 31 92 31 95 c 2,92,-1
 31 99 l 1,93,-1
 62 375 l 1,58,59
442 411 m 1,94,95
 442 408 442 408 436 401 c 0,96,97
 430 393 430 393 420 385 c 0,98,99
 419 385 419 385 418 384 c 128,-1,100
 417 383 417 383 417 382 c 0,101,102
 403 372 403 372 398 367 c 2,103,-1
 390 359 l 1,104,-1
 161 359 l 1,105,-1
 153 366 l 2,106,107
 143 374 143 374 135 382 c 0,108,109
 134 382 134 382 134 383 c 2,110,-1
 132 384 l 1,111,-1
 130 386 l 2,112,113
 128 388 128 388 122.5 392.5 c 128,-1,114
 117 397 117 397 115 400 c 0,115,116
 109 408 109 408 109 411 c 0,117,118
 109 412 109 412 117 420 c 0,119,120
 124 428 124 428 135 435 c 1,121,-1
 137 437 l 2,122,123
 138 437 138 437 138 438 c 0,124,125
 149 445 149 445 160 454 c 2,126,-1
 169 461 l 1,127,-1
 397 461 l 1,128,-1
 404 454 l 1,129,130
 412 448 412 448 420 438 c 1,131,-1
 422 436 l 1,132,-1
 424 434 l 2,133,134
 430 428 430 428 436 420 c 0,135,136
 440 414 440 414 442 411 c 1,94,95
EndSplineSet
Validated: 1
EndChar

StartChar: p
Encoding: 112 112 77
Width: 563
Flags: W
LayerCount: 2
Fore
SplineSet
498 285 m 2,0,1
 498 282 498 282 495 274 c 0,2,3
 491 263 491 263 474 248 c 1,4,5
 465 253 465 253 460 259 c 0,6,7
 441 283 441 283 438 283 c 0,8,9
 437 283 437 283 436 284 c 2,10,-1
 435 285 l 2,11,12
 431 290 431 290 423 298 c 0,13,14
 415 307 415 307 411 311 c 2,15,-1
 400 323 l 1,16,-1
 401 348 l 1,17,-1
 409 356 l 1,18,-1
 427 374 l 1,19,-1
 429 376 l 1,20,-1
 431 378 l 1,21,-1
 449 393 l 2,22,23
 457 400 457 400 460 398 c 2,24,-1
 468 394 l 2,25,26
 472 392 472 392 480 386 c 1,27,-1
 481 385 l 2,28,29
 482 384 482 384 483 384 c 0,30,31
 484 383 484 383 485 383 c 0,32,33
 495 375 495 375 499 372 c 2,34,-1
 505 367 l 1,35,-1
 498 285 l 2,0,1
155 212 m 1,36,-1
 168 309 l 1,37,-1
 390 309 l 1,38,-1
 461 233 l 1,39,-1
 459 230 l 1,40,41
 455 226 455 226 452 224 c 2,42,-1
 448 220 l 1,43,-1
 444 216 l 1,44,-1
 442 215 l 2,45,46
 440 214 440 214 439 214 c 0,47,48
 437 214 437 214 435 213 c 2,49,-1
 155 212 l 1,36,-1
62 375 m 1,50,51
 63 374 63 374 67 378 c 2,52,-1
 76 387 l 1,53,-1
 78 389 l 2,54,55
 78 390 78 390 79 390 c 128,-1,56
 80 390 80 390 81 391 c 2,57,-1
 90 397 l 2,58,59
 94 400 94 400 96 398 c 2,60,-1
 98 397 l 2,61,62
 99 396 99 396 101.5 394 c 128,-1,63
 104 392 104 392 107 390 c 0,64,65
 113 385 113 385 126 372 c 2,66,-1
 127 371 l 2,67,68
 128 371 128 371 128 370 c 2,69,-1
 148 350 l 1,70,-1
 157 341 l 1,71,-1
 135 125 l 1,72,-1
 58 45 l 1,73,74
 57 46 57 46 56.5 47 c 128,-1,75
 56 48 56 48 54 50 c 0,76,77
 50 54 50 54 48 57 c 0,78,79
 46 59 46 59 40 72 c 0,80,81
 37 78 37 78 33 90 c 1,82,83
 31 92 31 92 31 95 c 2,84,-1
 31 99 l 1,85,-1
 62 375 l 1,50,51
442 411 m 1,86,87
 442 408 442 408 436 401 c 0,88,89
 430 393 430 393 420 385 c 0,90,91
 419 385 419 385 418 384 c 128,-1,92
 417 383 417 383 417 382 c 0,93,94
 403 372 403 372 398 367 c 2,95,-1
 390 359 l 1,96,-1
 161 359 l 1,97,-1
 153 366 l 2,98,99
 143 374 143 374 135 382 c 0,100,101
 134 382 134 382 134 383 c 2,102,-1
 132 384 l 1,103,-1
 130 386 l 2,104,105
 128 388 128 388 122.5 392.5 c 128,-1,106
 117 397 117 397 115 400 c 0,107,108
 109 408 109 408 109 411 c 0,109,110
 109 412 109 412 117 420 c 0,111,112
 124 428 124 428 135 435 c 1,113,-1
 137 437 l 2,114,115
 138 437 138 437 138 438 c 0,116,117
 149 445 149 445 160 454 c 2,118,-1
 169 461 l 1,119,-1
 397 461 l 1,120,-1
 404 454 l 1,121,122
 412 448 412 448 420 438 c 1,123,-1
 422 436 l 1,124,-1
 424 434 l 2,125,126
 430 428 430 428 436 420 c 0,127,128
 440 414 440 414 442 411 c 1,86,87
EndSplineSet
Validated: 1
EndChar

StartChar: q
Encoding: 113 113 78
Width: 563
Flags: W
LayerCount: 2
Fore
SplineSet
411 153 m 2,0,1
 411 153 411 153 494 72 c 1,2,-1
 492 65 l 2,3,4
 490 60 490 60 486 48 c 0,5,6
 485 48 485 48 485 46 c 1,7,8
 484 46 484 46 484 44 c 2,9,-1
 484 43 l 1,10,11
 480 33 480 33 478 30 c 2,12,-1
 474 22 l 2,13,14
 472 19 472 19 462 20 c 2,15,-1
 439 22 l 1,16,-1
 436 23 l 1,17,-1
 433 23 l 1,18,-1
 408 28 l 1,19,-1
 397 31 l 1,20,-1
 276 159 l 1,21,-1
 278 175 l 1,22,23
 280 182 280 182 285 192 c 0,24,25
 286 194 286 194 311 219 c 1,26,-1
 313 220 l 2,27,28
 316 221 316 221 316 222 c 128,-1,29
 316 223 316 223 334 221 c 1,30,-1
 338 218 l 1,31,32
 386 170 386 170 402 161 c 0,33,34
 404 160 404 160 411 153 c 2,0,1
475 226 m 2,35,36
 474 220 474 220 472 215 c 0,37,38
 470 209 470 209 454 188 c 1,39,-1
 440 175 l 1,40,41
 421 163 421 163 415 163 c 0,42,43
 414 163 414 163 413 164 c 2,44,-1
 412 165 l 2,45,46
 408 170 408 170 400 178 c 0,47,48
 392 187 392 187 388 191 c 2,49,-1
 377 203 l 1,50,-1
 401 348 l 1,51,-1
 409 356 l 1,52,-1
 427 374 l 1,53,-1
 429 376 l 1,54,-1
 431 378 l 1,55,-1
 449 393 l 2,56,57
 457 400 457 400 460 398 c 2,58,-1
 468 394 l 2,59,60
 472 392 472 392 480 386 c 1,61,-1
 481 385 l 2,62,63
 482 384 482 384 483 384 c 0,64,65
 484 383 484 383 485 383 c 0,66,67
 495 375 495 375 499 372 c 2,68,-1
 505 367 l 1,69,-1
 475 226 l 2,35,36
339 68 m 1,70,-1
 305 33 l 2,71,72
 301 29 301 29 298 27 c 2,73,-1
 294 23 l 1,74,-1
 290 19 l 1,75,76
 290 19 290 19 288 18 c 128,-1,77
 286 17 286 17 285 17 c 0,78,79
 283 16 283 16 281 16 c 2,80,-1
 182 16 l 2,81,82
 180 16 180 16 168 19 c 1,83,-1
 147 18 l 1,84,-1
 96 20 l 1,85,86
 89 18 89 18 86 20 c 2,87,-1
 72 32 l 1,88,-1
 145 112 l 1,89,-1
 300 112 l 1,90,-1
 339 68 l 1,70,-1
62 375 m 1,91,92
 63 374 63 374 67 378 c 2,93,-1
 76 387 l 1,94,-1
 78 389 l 2,95,96
 78 390 78 390 79 390 c 128,-1,97
 80 390 80 390 81 391 c 2,98,-1
 90 397 l 2,99,100
 94 400 94 400 96 398 c 2,101,-1
 98 397 l 2,102,103
 99 396 99 396 101.5 394 c 128,-1,104
 104 392 104 392 107 390 c 0,105,106
 113 385 113 385 126 372 c 2,107,-1
 127 371 l 2,108,109
 128 371 128 371 128 370 c 2,110,-1
 148 350 l 1,111,-1
 157 341 l 1,112,-1
 135 125 l 1,113,-1
 58 45 l 1,114,115
 57 46 57 46 56.5 47 c 128,-1,116
 56 48 56 48 54 50 c 0,117,118
 50 54 50 54 48 57 c 0,119,120
 46 59 46 59 40 72 c 0,121,122
 37 78 37 78 33 90 c 1,123,124
 31 92 31 92 31 95 c 2,125,-1
 31 99 l 1,126,-1
 62 375 l 1,91,92
442 411 m 1,127,128
 442 408 442 408 436 401 c 0,129,130
 430 393 430 393 420 385 c 0,131,132
 419 385 419 385 418 384 c 128,-1,133
 417 383 417 383 417 382 c 0,134,135
 403 372 403 372 398 367 c 2,136,-1
 390 359 l 1,137,-1
 161 359 l 1,138,-1
 153 366 l 2,139,140
 143 374 143 374 135 382 c 0,141,142
 134 382 134 382 134 383 c 2,143,-1
 132 384 l 1,144,-1
 130 386 l 2,145,146
 128 388 128 388 122.5 392.5 c 128,-1,147
 117 397 117 397 115 400 c 0,148,149
 109 408 109 408 109 411 c 0,150,151
 109 412 109 412 117 420 c 0,152,153
 124 428 124 428 135 435 c 1,154,-1
 137 437 l 2,155,156
 138 437 138 437 138 438 c 0,157,158
 149 445 149 445 160 454 c 2,159,-1
 169 461 l 1,160,-1
 397 461 l 1,161,-1
 404 454 l 1,162,163
 412 448 412 448 420 438 c 1,164,-1
 422 436 l 1,165,-1
 424 434 l 2,166,167
 430 428 430 428 436 420 c 0,168,169
 440 414 440 414 442 411 c 1,127,128
EndSplineSet
Validated: 1
EndChar

StartChar: r
Encoding: 114 114 79
Width: 563
Flags: W
LayerCount: 2
Fore
SplineSet
86 375 m 1,0,1
 87 374 87 374 91 378 c 2,2,-1
 100 387 l 1,3,-1
 102 389 l 2,4,5
 102 390 102 390 103 390 c 128,-1,6
 104 390 104 390 105 391 c 2,7,-1
 114 397 l 2,8,9
 118 400 118 400 120 398 c 2,10,-1
 122 397 l 2,11,12
 123 396 123 396 125.5 394 c 128,-1,13
 128 392 128 392 131 390 c 0,14,15
 137 385 137 385 150 372 c 2,16,-1
 151 371 l 2,17,18
 152 371 152 371 152 370 c 2,19,-1
 172 350 l 1,20,-1
 181 341 l 1,21,-1
 159 125 l 1,22,-1
 82 45 l 1,23,24
 81 46 81 46 80.5 47 c 128,-1,25
 80 48 80 48 78 50 c 0,26,27
 74 54 74 54 72 57 c 0,28,29
 70 59 70 59 64 72 c 0,30,31
 61 78 61 78 57 90 c 1,32,33
 55 92 55 92 55 95 c 2,34,-1
 55 99 l 1,35,-1
 86 375 l 1,0,1
458 411 m 1,36,37
 458 408 458 408 452 401 c 0,38,39
 438 385 438 385 436 385 c 0,40,41
 435 385 435 385 434 384 c 128,-1,42
 433 383 433 383 433 382 c 0,43,44
 419 372 419 372 414 367 c 2,45,-1
 406 359 l 1,46,-1
 185 359 l 1,47,-1
 177 366 l 1,48,49
 162 382 162 382 159 382 c 0,50,51
 158 382 158 382 158 383 c 2,52,-1
 156 384 l 1,53,-1
 154 386 l 2,54,55
 152 388 152 388 146.5 392.5 c 128,-1,56
 141 397 141 397 139 400 c 0,57,58
 133 408 133 408 133 411 c 0,59,60
 133 412 133 412 141 420 c 0,61,62
 148 428 148 428 159 435 c 1,63,-1
 161 437 l 1,64,65
 161 437 161 437 162 438 c 0,66,67
 169 443 169 443 184 454 c 2,68,-1
 193 461 l 1,69,-1
 413 461 l 1,70,-1
 420 454 l 1,71,72
 428 448 428 448 436 438 c 1,73,-1
 438 436 l 1,74,-1
 440 434 l 2,75,76
 448 426 448 426 452 420 c 128,-1,77
 456 414 456 414 458 411 c 1,36,37
EndSplineSet
Validated: 1
EndChar

StartChar: s
Encoding: 115 115 80
Width: 563
Flags: W
LayerCount: 2
Fore
SplineSet
442 241 m 0,0,1
 442 238 442 238 436 231 c 2,2,3
 436 231 436 231 420 215 c 2,4,5
 420 215 420 215 418 213 c 0,6,7
 417 213 417 213 417 212 c 0,8,9
 403 202 403 202 398 197 c 2,10,-1
 390 189 l 1,11,-1
 161 189 l 1,12,-1
 153 196 l 1,13,14
 137 214 137 214 135 212 c 1,15,16
 135 212 135 212 134 213 c 2,17,-1
 132 214 l 1,18,-1
 130 216 l 1,19,20
 127 217 127 217 122 222 c 128,-1,21
 117 227 117 227 115 230 c 0,22,23
 102 249 102 249 102 256 c 0,24,25
 102 262 102 262 109 262 c 0,26,27
 112 262 112 262 117 265 c 0,28,29
 132 275 132 275 135 280 c 1,30,-1
 137 282 l 1,31,-1
 138 283 l 1,32,33
 149 290 149 290 160 299 c 1,34,-1
 171 301 l 1,35,-1
 399 301 l 1,36,-1
 404 299 l 1,37,38
 412 293 412 293 420 283 c 1,39,-1
 422 281 l 1,40,-1
 424 279 l 2,41,42
 435 268 435 268 436 265 c 2,43,44
 436 265 436 265 442 241 c 0,0,1
475 149 m 2,45,46
 472 144 472 144 472 138 c 0,47,48
 472 135 472 135 454 112 c 1,49,-1
 440 98 l 1,50,51
 421 86 421 86 415 86 c 0,52,53
 414 86 414 86 413 87 c 2,54,-1
 412 88 l 2,55,56
 408 93 408 93 400 101.5 c 128,-1,57
 392 110 392 110 388 114 c 2,58,-1
 377 126 l 1,59,-1
 401 178 l 1,60,-1
 409 186 l 1,61,-1
 427 204 l 1,62,-1
 429 206 l 1,63,-1
 431 208 l 1,64,-1
 449 223 l 2,65,66
 457 230 457 230 460 228 c 2,67,-1
 468 224 l 2,68,69
 472 222 472 222 480 216 c 1,70,-1
 481 215 l 2,71,72
 482 214 482 214 483 214 c 0,73,74
 484 213 484 213 485 213 c 0,75,76
 495 205 495 205 499 202 c 2,77,-1
 505 197 l 1,78,-1
 475 149 l 2,45,46
156 428 m 1,79,-1
 180 448 l 1,80,-1
 186 454 l 1,81,-1
 196 459 l 2,82,83
 200 461 200 461 208 461 c 2,84,-1
 393 461 l 1,85,-1
 398 460 l 2,86,87
 407 458 407 458 410 455 c 0,88,89
 412 453 412 453 416 451 c 2,90,-1
 422 448 l 1,91,-1
 429 441 l 1,92,93
 428 439 428 439 439 428 c 0,94,95
 446 421 446 421 449 417 c 0,96,97
 458 405 458 405 452 400 c 1,98,99
 452 398 452 398 451 398 c 128,-1,100
 450 398 450 398 449 397 c 0,101,102
 446 395 446 395 436 383 c 0,103,104
 431 377 431 377 424 370 c 2,105,-1
 414 359 l 1,106,-1
 211 359 l 1,107,-1
 156 428 l 1,79,-1
104 67 m 1,108,-1
 145 112 l 1,109,-1
 367 112 l 1,110,-1
 406 68 l 1,111,-1
 372 33 l 2,112,113
 368 29 368 29 365 27 c 2,114,-1
 361 23 l 1,115,-1
 357 19 l 1,116,117
 357 19 357 19 355 18 c 128,-1,118
 353 17 353 17 352 17 c 0,119,120
 350 16 350 16 348 16 c 2,121,-1
 182 16 l 2,122,123
 174 16 174 16 168 19 c 2,124,-1
 156 25 l 1,125,126
 130 46 130 46 104 67 c 1,108,-1
95 347 m 2,127,128
 97 349 97 349 97 350 c 128,-1,129
 97 351 97 351 98 354 c 0,130,131
 103 367 103 367 111 377 c 2,132,-1
 140 413 l 1,133,-1
 190 353 l 1,134,-1
 169 323 l 1,135,-1
 159 315 l 2,136,137
 148 307 148 307 135 297 c 1,138,139
 136 297 136 297 135 296 c 1,140,-1
 133 296 l 1,141,142
 128 291 128 291 110 278 c 0,143,144
 99 269 99 269 98 270 c 2,145,-1
 93 275 l 2,146,147
 87 281 87 281 86 283 c 2,148,-1
 85 285 l 1,149,-1
 84 287 l 1,150,-1
 82 289 l 1,151,-1
 73 304 l 1,152,-1
 70 310 l 1,153,-1
 95 347 l 2,127,128
EndSplineSet
Validated: 1
EndChar

StartChar: t
Encoding: 116 116 81
Width: 563
Flags: W
LayerCount: 2
Fore
SplineSet
322 377 m 1,0,-1
 318 419 l 1,1,-1
 322 460 l 1,2,-1
 402 460 l 1,3,-1
 407 419 l 1,4,-1
 402 377 l 1,5,-1
 368 377 l 1,6,-1
 322 377 l 1,0,-1
81 377 m 1,7,-1
 76 419 l 1,8,-1
 81 460 l 1,9,-1
 160 460 l 1,10,-1
 166 419 l 1,11,-1
 160 377 l 1,12,-1
 126 377 l 1,13,-1
 81 377 l 1,7,-1
300 152 m 1,14,-1
 454 150 l 1,15,-1
 461 142 l 1,16,17
 469 136 469 136 477 126 c 1,18,-1
 479 124 l 1,19,-1
 481 122 l 2,20,21
 493 110 493 110 493 108 c 1,22,23
 493 108 493 108 499 100 c 1,24,25
 499 97 499 97 493 90 c 2,26,27
 493 90 493 90 477 74 c 0,28,29
 475 72 475 72 475 72 c 1,30,31
 473 72 473 72 474 70 c 0,32,33
 478 55 478 55 455 56 c 1,34,-1
 447 48 l 1,35,-1
 292 50 l 1,36,-1
 300 152 l 1,14,-1
279 88 m 2,37,38
 279 87 279 87 276 77 c 128,-1,39
 273 67 273 67 255 51 c 1,40,41
 242 58 242 58 241 62 c 0,42,43
 235 86 235 86 219 86 c 0,44,45
 218 86 218 86 217 87 c 2,46,-1
 216 88 l 2,47,48
 212 93 212 93 204 101.5 c 128,-1,49
 196 110 196 110 192 114 c 2,50,-1
 181 126 l 1,51,-1
 205 619 l 1,52,-1
 213 627 l 1,53,-1
 231 645 l 1,54,-1
 233 647 l 1,55,-1
 235 649 l 1,56,-1
 253 664 l 2,57,58
 261 670 261 670 264 669 c 2,59,-1
 272 665 l 2,60,61
 276 663 276 663 284 657 c 1,62,-1
 285 656 l 2,63,64
 286 655 286 655 287 655 c 0,65,66
 288 654 288 654 289 654 c 0,67,68
 299 646 299 646 303 643 c 2,69,-1
 309 638 l 1,70,-1
 279 88 l 2,37,38
EndSplineSet
Validated: 1
EndChar

